<svg width="442" height="358" viewBox="0 0 442 358" fill="none" xmlns="http://www.w3.org/2000/svg">
<path opacity="0.95" d="M259.209 168.954H172.775C165.946 168.954 160.41 163.418 160.41 156.589V70.155C160.41 63.3265 165.946 57.7905 172.775 57.7905H259.209C266.037 57.7905 271.573 63.3265 271.573 70.155V156.589C271.573 163.418 266.038 168.954 259.209 168.954Z" fill="url(#paint0_linear_174_931)"/>
<path d="M241.725 143.645H190.259V146.188H241.725V143.645Z" fill="#96BFE6"/>
<path d="M234.435 151.656H197.548V154.199H234.435V151.656Z" fill="#96BFE6"/>
<path opacity="0.95" d="M427.434 274.922H304.427C296.383 274.922 289.861 268.4 289.861 260.355V110.911C289.861 102.866 296.383 96.3447 304.427 96.3447H427.434C435.479 96.3447 442 102.866 442 110.911V260.355C442 268.4 435.479 274.922 427.434 274.922Z" fill="url(#paint1_linear_174_931)"/>
<path d="M370.909 201.694H358.843V203.928H370.909V201.694Z" fill="#4598E6"/>
<path d="M383.245 222.172H313.031V226.498H383.245V222.172Z" fill="#96BFE6"/>
<path d="M369.81 242.945H313.031V247.272H369.81V242.945Z" fill="#96BFE6"/>
<path d="M346.317 232.558H313.031V236.885H346.317V232.558Z" fill="#96BFE6"/>
<path d="M401.614 114.153V116.338H414.481V128.414H416.666V114.153H401.614ZM314.24 128.414H316.426V116.338H329.292V114.153H314.24V128.414ZM414.481 190.724V202.803H401.614V204.989H416.666V190.723H414.481V190.724ZM316.426 190.724H314.24V204.989H329.292V202.804H316.426V190.724Z" fill="#4598E6"/>
<path d="M409.854 247.589C402.759 247.589 396.986 241.817 396.986 234.722C396.986 227.626 402.759 221.854 409.854 221.854C416.949 221.854 422.722 227.626 422.722 234.722C422.722 241.817 416.949 247.589 409.854 247.589ZM409.854 224.344C404.132 224.344 399.477 228.999 399.477 234.722C399.477 240.443 404.132 245.099 409.854 245.099C415.576 245.099 420.231 240.443 420.231 234.722C420.231 228.999 415.576 224.344 409.854 224.344Z" fill="#4598E6"/>
<path d="M409.033 239.786L403.188 233.94L404.949 232.179L409.033 236.264L414.76 230.538L416.521 232.298L409.033 239.786Z" fill="#4598E6"/>
<path d="M417.592 347.943C417.592 353.34 324.111 357.715 208.796 357.715C93.4813 357.715 0 353.34 0 347.943C0 342.546 93.4813 338.171 208.796 338.171C324.111 338.17 417.592 342.546 417.592 347.943Z" fill="url(#paint2_linear_174_931)"/>
<path opacity="0.95" d="M253.456 61.9468H178.528V126.234H253.456V61.9468Z" fill="url(#paint3_linear_174_931)"/>
<path d="M68.4087 319.454C74.6469 315.067 81.9477 284.494 82.3833 266.284C82.6065 256.956 85.3637 253.07 87.7964 249.641C90.1216 246.363 92.1301 243.533 90.9602 237.034C88.7248 224.614 94.6024 219.252 94.6623 219.2L93.9819 218.424C93.7202 218.653 87.5988 224.183 89.945 237.217C91.0382 243.289 89.2363 245.829 86.9553 249.044C84.5618 252.418 81.5827 256.616 81.3519 266.259C80.8845 285.802 73.4203 314.669 67.8154 318.61L68.4087 319.454Z" fill="url(#paint4_linear_174_931)"/>
<path d="M55.3329 310.537C54.7439 309.202 54.1348 307.822 53.445 306.366C49.8815 298.843 46.7246 297.604 41.4947 295.552C40.2167 295.05 38.768 294.482 37.1783 293.767C29.6863 290.4 31.1369 285.438 32.4168 281.061C32.5957 280.449 32.7742 279.838 32.9289 279.234C33.5879 276.659 32.322 275.368 30.4058 273.413C28.9816 271.959 27.2092 270.151 25.8429 267.294C24.3474 264.168 25.1097 262.492 26.0123 261.636C27.9133 259.835 32.2954 260.167 36.4329 262.426C37.7184 263.128 38.7764 264.236 39.8965 265.409C42.5343 268.171 45.8167 271.608 54.119 271.647C58.8529 271.669 61.4459 272.323 62.789 273.832C64.3132 275.544 64.0257 278.108 63.628 281.656C63.4906 282.884 63.3347 284.275 63.2401 285.778C62.6752 294.745 67.9687 301.213 68.0209 301.276C71.1834 305.042 75.0796 312.855 73.398 317.664C72.693 319.68 71.1166 320.949 68.7124 321.435C67.7545 321.629 66.8795 321.721 66.0746 321.721C60.2676 321.721 58.1424 316.905 55.3329 310.537ZM35.938 263.331C32.2434 261.315 28.2813 260.907 26.7217 262.386C25.5367 263.509 26.0956 265.433 26.7731 266.849C28.0657 269.551 29.7002 271.219 31.1422 272.691C33.1475 274.737 34.7308 276.352 33.9281 279.49C33.7705 280.106 33.589 280.727 33.4065 281.351C32.1319 285.71 30.9283 289.828 37.6006 292.826C39.1678 293.531 40.6038 294.094 41.8713 294.592C47.1506 296.664 50.6385 298.032 54.3772 305.924C55.0729 307.393 55.6847 308.78 56.2765 310.121C59.5037 317.435 61.4516 321.85 68.5073 320.424C70.5299 320.015 71.8475 318.972 72.4237 317.324C73.9055 313.086 70.3598 305.667 67.2293 301.939C67 301.664 61.6183 295.103 62.2099 285.713C62.306 284.185 62.4634 282.781 62.6021 281.542C62.9701 278.259 63.236 275.887 62.0179 274.518C60.9043 273.267 58.4664 272.699 54.1139 272.679C45.3729 272.638 41.9225 269.025 39.1498 266.122C38.0409 264.96 37.0828 263.957 35.938 263.331Z" fill="url(#paint5_linear_174_931)"/>
<path d="M68.6011 327.677L69.6313 327.622C69.5807 326.655 68.281 303.838 59.1199 297.161C49.0694 289.835 45.9006 281.962 44.3914 276.677C42.6131 270.45 33.562 268.786 33.1776 268.719L32.998 269.734C33.0859 269.75 41.7988 271.356 43.3994 276.961C44.9503 282.392 48.2045 290.481 58.5121 297.994C67.2801 304.386 68.5887 327.445 68.6011 327.677Z" fill="url(#paint6_linear_174_931)"/>
<path d="M66.8567 332.808C64.7009 331.734 64.7794 327.418 64.8976 320.885C65.047 312.63 65.2516 301.323 60.93 290.924C56.3392 279.876 60.4335 276.647 64.3933 273.525C68.8283 270.027 73.0172 266.724 64.9777 251.814C61.2853 244.966 60.1129 240.334 61.2883 237.237C62.4501 234.177 65.7096 232.984 69.1606 231.72C75.1173 229.54 81.8684 227.07 80.9961 214.463C80.7287 210.598 81.1833 208.221 82.4261 206.983C83.7768 205.638 85.7665 205.784 88.0702 205.953C91.5514 206.207 95.4943 206.496 98.9291 202.014C99.2861 200.894 102.57 190.898 106.499 189.187C107.324 188.828 108.132 188.832 108.902 189.2C111.614 190.498 113.188 192.036 113.713 193.903C114.627 197.152 112.248 200.816 109.493 205.058C105.163 211.725 100.255 219.281 105.345 228.273C112.075 240.163 108.52 244.324 103.601 250.082C100.782 253.381 97.5881 257.121 95.4525 263.22C93.7349 268.125 96.6648 272.802 99.4981 277.326C103.052 282.999 106.728 288.866 98.9896 293.957C86.1958 302.374 73.5609 329.85 73.4346 330.127L73.3826 330.241L73.2835 330.318C70.9265 332.166 69.2108 333.047 67.9187 333.047C67.5282 333.048 67.1762 332.967 66.8567 332.808ZM98.4229 293.095C105.318 288.559 102.216 283.607 98.6241 277.873C95.7992 273.364 92.5973 268.253 94.4789 262.879C96.6783 256.598 99.9394 252.78 102.817 249.413C107.637 243.77 110.821 240.042 104.448 228.782C99.0494 219.245 104.361 211.067 108.628 204.496C111.247 200.464 113.508 196.982 112.72 194.183C112.28 192.618 110.886 191.293 108.457 190.131C107.963 189.895 107.457 189.895 106.911 190.133C103.266 191.721 99.9196 202.303 99.8863 202.409L99.8595 202.495L99.8054 202.567C96.0195 207.569 91.5705 207.244 87.9949 206.982C85.8584 206.825 84.1711 206.702 83.1542 207.714C82.1527 208.712 81.7835 210.896 82.0255 214.392C82.9513 227.772 75.5013 230.499 69.5151 232.69C66.1522 233.921 63.2474 234.984 62.2531 237.603C61.192 240.4 62.346 244.76 65.8858 251.325C74.3367 266.997 69.6066 270.728 65.0323 274.335C61.2059 277.352 57.5917 280.202 61.8828 290.528C66.2873 301.126 66.0803 312.557 65.9292 320.904C65.8259 326.601 65.7444 331.102 67.3168 331.885C68.2367 332.343 69.9969 331.569 72.5491 329.584C73.5721 327.36 85.6731 301.483 98.4229 293.095Z" fill="url(#paint7_linear_174_931)"/>
<path d="M46.6632 213.052C53.1747 210.819 51.8219 223.369 54.5728 232.655C57.3242 241.94 85.1807 236.705 73.4879 259.957C61.7952 283.209 88.276 267.733 80.3661 288.024C72.4562 308.315 79.6782 330.016 71.0805 324.496C62.4829 318.976 66.2503 293.424 57.3086 290.388C48.3669 287.352 46.9078 283.811 55.761 275.557C64.6142 267.304 32.5627 259.11 40.4726 242.443C48.3827 225.776 39.1402 215.631 46.6632 213.052Z" fill="url(#paint8_linear_174_931)"/>
<path d="M68.0837 323.162C68.9027 319.689 75.8956 289.121 69.3705 285.425C63.6198 282.169 63.7614 269.502 64.6588 257.54C65.4529 246.952 51.8542 242.003 51.2749 241.798L50.9297 242.77C51.0644 242.818 64.3648 247.663 63.6297 257.463C62.7085 269.747 62.6097 282.783 68.8624 286.323C73.8165 289.129 69.2552 313.696 67.0797 322.926L68.0837 323.162Z" fill="white"/>
<path d="M92.6496 312.278L83.3532 347.547H62.5777L53.2812 312.278H92.6496Z" fill="url(#paint9_linear_174_931)"/>
<path d="M92.6503 312.278C92.6503 312.278 72.1846 316.12 72.1846 347.547H62.5786L53.2822 312.278H92.6503Z" fill="url(#paint10_linear_174_931)"/>
<path opacity="0.95" d="M354 90.1803H292.658C287.044 90.1803 282.493 85.6292 282.493 80.0152V26.7899C282.493 21.1757 287.044 16.6248 292.658 16.6248H354C359.614 16.6248 364.165 21.1759 364.165 26.7899V80.0152C364.165 85.6294 359.614 90.1803 354 90.1803Z" fill="url(#paint11_linear_174_931)"/>
<path d="M326.257 76.2688H319.78V77.4686H326.257V76.2688Z" fill="#4598E6"/>
<path d="M342.741 29.936V31.1091H349.648V37.5915H350.821V29.936H342.741ZM295.836 37.5915H297.009V31.1091H303.916V29.936H295.836L295.836 37.5915ZM349.648 71.0407V77.5255H342.741V78.6985H350.821V71.0407H349.648ZM297.009 71.0407H295.836V78.6985H303.916V77.5255H297.009L297.009 71.0407Z" fill="#4598E6"/>
<path d="M220.318 131.224H211.666V132.827H220.318V131.224Z" fill="#4598E6"/>
<path d="M241.921 69.3379V70.9048H251.147V79.5634H252.714V69.3379H241.921ZM179.271 79.5632H180.838V70.9046H190.063V69.3376H179.271V79.5632ZM251.147 124.241V132.903H241.921V134.47H252.714V124.241H251.147ZM180.837 124.241H179.271V134.47H190.063V132.903H180.837V124.241Z" fill="#4598E6"/>
<path d="M411.875 181.736H397.442C396.492 174.826 395.325 166.937 395.325 166.937C395.325 166.937 394.741 173.447 394.032 181.736H336.277C335.75 174.282 335.115 168.705 334.887 168.59C334.555 168.424 332.495 175.038 330.785 181.736H315.15C319.172 164.414 326.672 136.624 331.008 134.959C337.18 132.585 362.351 124.828 362.351 124.828H376.716C376.716 124.828 402.241 132.11 404.615 140.027C406.503 146.337 410.668 167.143 411.875 181.736Z" fill="#E65353"/>
<path d="M370.194 78.2283C370.194 78.2283 383.607 80.3413 381.565 101.327C379.522 122.313 367.684 120.592 366.893 120.571C366.102 120.55 355.009 120.954 354.144 95.3315C354.144 95.3315 353.767 76.3851 370.194 78.2283Z" fill="#EEA987"/>
<path d="M376.455 114.39C376.455 114.39 376.087 123.021 376.922 124.89C377.758 126.758 365.854 132.761 358.594 126.072C358.594 126.072 360.347 116.691 359.86 113.367C359.372 110.042 376.455 114.39 376.455 114.39Z" fill="#EEA987"/>
<path d="M381.772 95.3991C381.772 95.3991 383.241 93.8302 383.779 95.4185C384.318 97.0067 381.5 104.103 381.685 104.422C381.685 104.422 381.417 105.038 381.064 104.699C380.711 104.359 381.772 95.3991 381.772 95.3991Z" fill="#EEA987"/>
<path d="M354.296 95.1338C354.296 95.1338 352.858 93.5367 352.289 95.1144C351.719 96.6919 354.399 103.842 354.209 104.156C354.209 104.156 354.465 104.777 354.824 104.445C355.183 104.113 354.296 95.1338 354.296 95.1338Z" fill="#EEA987"/>
<path d="M381.766 98.6179L379.845 101.185C379.845 101.185 379.9 95.5569 379.592 94.6745C379.284 93.7921 378.812 91.0962 378.555 90.4606C378.297 89.8247 367.037 86.6694 357.09 91.382C357.09 91.382 357.527 95.4288 356.574 95.7889C355.621 96.1491 356.088 102.38 356.088 102.38L354.509 100.599C354.509 100.599 352.093 84.4533 352.689 82.7705C353.286 81.0877 355.188 70.9704 375.594 76.9763C375.594 76.9763 381.955 75.6288 383.232 80.0211C384.509 84.4131 381.766 98.6179 381.766 98.6179Z" fill="#D98B52"/>
<path d="M376.922 124.89C376.922 124.89 379.948 125.536 367.285 137.672C367.285 137.672 358.303 127.736 358.594 126.072C358.885 124.408 376.922 124.89 376.922 124.89Z" fill="#EEA987"/>
<path d="M367.285 137.672L370.741 143.582L380.993 126.175L376.553 123.079L367.285 137.672Z" fill="#B84343"/>
<path d="M367.285 137.672L358.898 124.327L354.144 127.383L362.668 143.581L367.285 137.672Z" fill="#B84343"/>
<path d="M364.685 174.643C364.788 176.611 364.834 179.025 364.839 181.736H364.364C364.359 179.036 364.313 176.628 364.21 174.666C363.432 159.861 367.019 141.846 367.042 137.625L367.505 137.716C367.482 141.938 363.907 159.901 364.685 174.643Z" fill="#B84343"/>
<path d="M361.108 118.101C361.108 118.101 364.295 121.471 368.796 120.572C373.298 119.673 375.296 117.613 375.296 117.613C375.296 117.613 373.519 122.069 368.315 122.477C363.111 122.884 361.108 118.101 361.108 118.101Z" fill="#C78D71"/>
<path d="M205.697 69.932C205.687 69.932 205.677 69.9307 205.667 69.9282C205.364 69.8546 204.885 68.4038 204.792 68.1138C204.77 68.0341 204.723 67.8883 204.657 67.6862C204.282 66.5248 203.402 63.805 203.745 62.7631C203.853 62.4343 204.021 62.2438 204.246 62.1972C204.728 62.0977 205.278 62.7089 205.301 62.735L205.313 62.7483L205.315 62.766C205.44 63.9102 206.05 69.6308 205.787 69.8934C205.761 69.9189 205.73 69.932 205.697 69.932ZM204.357 62.2969C204.327 62.2969 204.298 62.2996 204.269 62.3058C204.086 62.3439 203.945 62.5093 203.85 62.7978C203.518 63.8057 204.422 66.6004 204.763 67.6523C204.828 67.8556 204.876 68.0025 204.898 68.0824C205.121 68.777 205.515 69.7777 205.693 69.8211C205.698 69.8221 205.701 69.823 205.709 69.8152C205.877 69.5882 205.491 65.3977 205.207 62.7964C205.133 62.7169 204.722 62.2969 204.357 62.2969Z" fill="#EEA886"/>
<path d="M215.669 47.125C215.669 47.125 223.052 46.3511 225.712 53.4812C228.372 60.6113 230.877 62.9453 231.191 66.6912C232.459 81.8412 239.534 78.4144 237.544 87.1472C235.555 95.8803 234.177 97.2013 234.177 97.2013L217.262 93.8849L200.128 93.9401C200.128 93.9401 206.831 90.5924 205.339 83.4623C203.847 76.3322 200.128 64.6459 202.228 56.6867C204.329 48.7279 211.256 47.733 215.669 47.125Z" fill="#16202E"/>
<path d="M224.686 69.9319C224.653 69.9319 224.622 69.9186 224.596 69.8931C224.333 69.6305 224.944 63.9099 225.069 62.7657L225.07 62.748L225.082 62.7348C225.105 62.7088 225.656 62.0964 226.137 62.1969C226.362 62.2435 226.531 62.4338 226.639 62.7628C226.982 63.8047 226.102 66.5247 225.726 67.6859C225.661 67.8878 225.614 68.0336 225.592 68.1112C225.499 68.4035 225.019 69.8545 224.717 69.9279C224.706 69.9306 224.696 69.9319 224.686 69.9319ZM225.176 62.7961C224.893 65.3974 224.507 69.5879 224.676 69.8162C224.682 69.8229 224.686 69.8221 224.69 69.8208C224.869 69.7776 225.263 68.7768 225.486 68.08C225.508 68.0025 225.555 67.8556 225.621 67.6522C225.961 66.6003 226.865 63.8054 226.534 62.7978C226.439 62.5092 226.298 62.3436 226.115 62.3057C225.731 62.2264 225.257 62.7103 225.176 62.7961Z" fill="#EEA886"/>
<path d="M250.384 115.243H239.844C237.659 111.26 235.883 108.145 235.883 108.145C235.883 108.145 234.463 110.737 233.361 115.243H197.879C197.337 112.431 197.304 109.737 197.418 107.819C197.418 107.819 195.522 111.245 193.321 115.243H181.401C184.565 109.32 190.491 98.5348 191.839 97.1289C193.53 95.3569 203.334 88.5807 210.334 86.3695C217.337 84.1583 221.316 86.2928 221.316 86.2928C221.316 86.2928 228.506 87.5885 235.154 90.2245C237.768 91.2604 244.988 104.593 250.384 115.243Z" fill="#FAA146"/>
<path d="M216.642 51.2952C216.642 51.2952 226.42 52.7062 224.989 67.1411C223.557 81.5758 214.927 80.4302 214.351 80.4179C213.774 80.4057 205.693 80.718 204.994 63.1044C204.994 63.1044 204.668 50.0792 216.642 51.2952Z" fill="#8E4F3A"/>
<path d="M220.986 77.8576C220.986 77.8576 220.381 85.366 221.827 87.6157C223.273 89.8653 220.59 92.9182 215.062 91.874C209.535 90.8295 209.856 87.6961 209.856 87.6961C209.856 87.6961 211.404 83.0625 210.951 79.3535C210.499 75.6443 220.986 77.8576 220.986 77.8576Z" fill="#8E4F3A"/>
<path d="M215.524 56.5266C215.524 56.5266 220.093 61.3298 222.215 63.7619C224.337 66.1939 224.581 70.892 224.581 70.892C224.581 70.892 228.156 66.5254 226.661 61.4405C225.166 56.3555 221.628 46.4618 212.675 49.5017C203.72 52.5416 203.389 65.9174 204.439 72.5502C204.439 72.5502 208.458 57.9083 215.524 56.5266Z" fill="#16202E"/>
<path d="M224.42 86.9528C224.42 86.9528 217.639 104.128 213.517 107.113C213.517 107.113 208.104 89.5956 208.482 87.031C208.482 87.031 216.649 83.8307 224.42 86.9528Z" fill="#8E4F3A"/>
<path d="M210.089 82.7993C210.089 82.7993 198.001 93.5552 201.138 100.265C203.816 105.992 213.309 102.48 211.743 96.4793C210.177 90.4786 210.089 82.7993 210.089 82.7993Z" fill="#16202E"/>
<path d="M211.671 79.764C211.671 79.764 215.837 81.733 219.892 78.8245C219.892 78.8245 218.766 81.1505 215.782 81.4814C212.797 81.8118 211.671 79.764 211.671 79.764Z" fill="#633029"/>
<path d="M318.964 40.033C318.964 40.033 314.955 55.1214 314.119 58.5212C313.87 59.545 313.066 61.3153 312.045 63.3343C312.038 63.3489 312.031 63.3632 312.02 63.3813C311.8 63.8247 311.696 64.2285 311.645 64.607C311.483 65.8652 311.966 66.8568 311.13 68.3493L310.978 68.9767H303.043C303.969 66.226 305.145 62.7253 306.086 59.9058C306.875 57.5263 307.499 55.6333 307.665 55.0854C308.155 53.4487 309.954 48.1485 311.483 44.6298C312.017 43.4041 314.072 42.1927 315.892 41.3164C317.522 40.5413 318.964 40.033 318.964 40.033Z" fill="#323657"/>
<path d="M313.655 18.4802C313.655 18.4802 311.125 2.11566 324.678 2.41745C338.232 2.71925 338.051 10.8112 337.809 18.8425C337.568 26.8737 332.375 26.2699 338.232 37.4412C344.089 48.6126 333.16 48.6126 333.16 48.6126L324.679 36.9581L313.655 18.4802Z" fill="#FCCCA2"/>
<path d="M323.196 3.9879C323.196 3.9879 314.018 5.43723 313.655 18.4806C313.293 31.5239 316.131 34.3016 324.163 31.5844C332.194 28.867 334.73 15.2198 334.911 13.1062C335.092 10.9926 335.575 2.41781 323.196 3.9879Z" fill="#EEA886"/>
<path d="M339.316 49.3564C339.348 53.8449 334.189 64.5816 333.392 67.8986C333.299 68.2845 333.198 68.6413 333.097 68.9766H308.047C307.917 67.4299 307.795 66.1068 307.733 65.3605C307.535 62.9089 305.051 57.6273 305.134 55.1682C305.22 52.6626 306.45 50.4995 308.17 47.8242C308.703 46.9949 309.265 46.1513 309.825 45.3294C311.649 42.6541 313.469 40.2242 314.364 39.3877C315.031 38.7677 315.65 38.2918 316.191 37.9312C316.195 37.9276 316.195 37.9276 316.195 37.9276C317.32 37.1776 318.077 36.936 318.077 36.936L325.966 35.6741C325.966 35.6741 330.883 37.4551 333.713 38.1148C333.713 38.1148 339.233 38.9226 339.316 49.3564Z" fill="#E55353"/>
<path d="M316.196 37.9275L311.624 45.1341L307.403 51.7854C307.413 51.7495 307.694 50.7426 308.171 47.826C308.262 47.2724 308.359 46.6498 308.463 45.9524C308.494 45.7461 308.539 45.5413 308.596 45.3389C308.596 45.3389 308.596 45.3389 308.596 45.3383C310.402 41.1741 315.987 38.0341 316.191 37.9298C316.194 37.9281 316.196 37.9275 316.196 37.9275Z" fill="#E55353"/>
<path d="M329.326 25.7089C328.53 27.2113 327.69 36.5377 327.69 36.5377C327.69 36.5377 316.464 40.7807 317.613 38.3807C318.134 37.2915 318.287 35.878 318.298 34.6595C318.308 33.6987 318.229 32.8592 318.173 32.3939C318.144 32.1486 318.121 32.0074 318.121 32.0074C318.121 32.0074 330.122 24.2058 329.326 25.7089Z" fill="#EEA886"/>
<path d="M319.453 13.3475C319.453 13.3475 324.163 21.0165 328.45 24.0359C332.737 27.0551 330.563 29.4707 330.563 29.4707C330.563 29.4707 341.75 5.92026 331.114 4.28989C320.479 2.65953 313.957 2.53877 313.655 18.4805C313.655 18.4805 318.487 13.227 319.453 13.3475Z" fill="#FCCCA2"/>
<path d="M324.574 31.4333C322.851 33.9752 318.298 34.6595 318.298 34.6595C318.298 34.6595 318.298 34.6595 318.297 34.6595C318.308 33.6987 318.228 32.8593 318.173 32.3939C321.098 32.9577 324.574 31.4333 324.574 31.4333Z" fill="#A77860"/>
<path d="M308.615 45.2893H308.615C308.615 45.2893 308.371 45.7943 308.171 47.8259L309.824 45.3304C309.824 45.3304 312.778 41.0962 313.789 39.9953C314.801 38.8943 316.191 37.9299 316.191 37.9299C316.191 37.9299 310.381 40.7217 308.615 45.2893Z" fill="#EBEEFF"/>
<path d="M330.955 51.6033C330.955 51.6033 338.16 48.7774 340.292 48.6128C340.292 48.6128 338.842 37.0422 331.765 38.2685C324.687 39.4949 330.955 51.6033 330.955 51.6033Z" fill="#E55353"/>
<path d="M318.076 36.9355C318.076 36.9355 312.786 45.0696 314.577 45.78C316.368 46.4907 326.061 44.8319 330.182 37.1058C330.182 37.1058 324.02 33.9462 318.076 36.9355Z" fill="#EEA886"/>
<path d="M340.293 48.6136C339.926 54.9915 338.116 61.0411 336.623 66.5935C336.407 67.3975 336.197 68.1944 336.003 68.9767H321.333C321.297 66.7773 321.304 64.8378 321.372 63.219C322.112 45.5168 327.722 36.208 327.722 36.208C327.722 36.208 329.513 36.8099 334.669 38.2702C338.202 39.2689 339.536 43.7647 340.023 46.4903C340.023 46.4903 340.027 46.501 340.03 46.5227C340.246 47.7521 340.293 48.6136 340.293 48.6136Z" fill="#323657"/>
<path d="M318.074 36.9397C318.016 37.0406 317.05 38.663 315.893 41.3166C314.155 45.3006 311.984 51.6098 311.801 58.561C311.743 60.7926 311.299 64.4089 310.625 68.9767H307.698C307.402 65.1549 306.703 62.1014 306.086 59.9058C305.686 58.4815 305.318 57.4179 305.12 56.7437C304.186 53.5675 307.171 49.3383 308.17 47.8241C309.172 46.3136 311.566 39.3625 318.074 36.9397Z" fill="#323657"/>
<path d="M344.965 68.9766H337.088C337.088 68.4647 336.911 67.628 336.623 66.5934C335.191 61.5063 330.955 51.6024 330.955 51.6024C330.955 51.6024 324.617 41.2444 330.623 38.6052C336.63 35.9662 339.215 43.3426 340.022 46.4902C340.022 46.4902 340.026 46.5009 340.03 46.5226C340.228 47.2761 343.804 60.9114 344.965 68.9766Z" fill="#323657"/>
<path d="M216.488 216.662C216.488 216.662 219.241 216.623 220.221 215.563C221.201 214.502 222.932 213.551 223.487 213.281C224.23 212.92 226.284 210.923 226.541 211.898C226.799 212.873 223.271 215.347 222.599 216.015C221.928 216.682 225.531 216.973 226.059 217.621C226.587 218.269 224.749 225.086 222.348 224.558C219.948 224.03 217.982 221.609 217.528 221.614C217.074 221.62 215.755 221.311 215.755 221.311L216.488 216.662Z" fill="#EEA886"/>
<path d="M225.549 217.343C225.549 217.343 232.715 219.532 233.01 220.152C233.305 220.772 233.105 221.226 232.423 221.054C231.74 220.883 225.408 219.178 225.408 219.178C225.408 219.178 233.239 223.459 233.592 223.888C233.798 224.138 233.455 225.034 233.075 224.982C232.696 224.93 224.634 221.232 224.634 221.232C224.634 221.232 231.937 225.246 232.119 225.723C232.279 226.14 231.789 226.909 231.223 226.657C230.656 226.405 223.618 223.151 223.618 223.151C223.618 223.151 228.706 226.484 228.627 227.032C228.579 227.368 228.312 228.151 227.031 227.24C225.75 226.328 222.465 224.578 222.465 224.578L225.549 217.343Z" fill="#EEA886"/>
<path d="M201.414 337.546C201.414 337.546 203.713 340.985 206.938 341.728C210.162 342.471 213.339 343.653 213.363 345.688C213.387 347.723 204.04 348.937 200.35 346.885C194.843 343.824 194.283 344.746 193.672 343.216C193.062 341.686 194.405 337.593 194.366 337.106C194.317 336.505 201.414 337.546 201.414 337.546Z" fill="#353A3D"/>
<path d="M201.058 335.849C201.058 335.849 201.477 337.511 201.415 337.546C201.352 337.581 194.148 338.439 194.366 337.106C194.543 336.025 194.795 334.85 194.795 334.85L201.058 335.849Z" fill="#81807E"/>
<path d="M156.177 337.318C156.177 337.318 157.817 340.608 160.618 341.729C163.613 342.927 166.015 344.303 165.96 346.286C165.905 348.269 158.639 350.278 153.353 346.473C150.013 344.068 148.955 344.057 148.419 342.543C147.883 341.029 149.349 337.095 149.329 336.619C149.304 336.031 156.177 337.318 156.177 337.318Z" fill="#353A3D"/>
<path d="M156.258 335.609C156.258 335.609 156.239 337.286 156.176 337.318C156.114 337.349 149.151 337.923 149.329 336.619C149.469 335.582 150.004 334.331 150.004 334.331L156.258 335.609Z" fill="#81807E"/>
<path d="M181.787 235.11C181.787 235.11 190.932 270.145 194.414 278.245C197.641 285.749 198.705 296.243 199.149 301.515C199.708 308.145 203.034 333.962 203.424 335.901C203.816 337.839 192.666 336.973 192.666 336.973C192.666 336.973 184.979 292.333 181.787 285.819C179.658 281.472 167.3 250.297 165.885 252.092C164.471 253.887 162.718 285.124 161.671 290.309C160.623 295.494 157.408 336.465 157.408 336.465C157.408 336.465 150.22 337.526 148.3 335.901C148.3 335.901 147.426 300.917 148.093 291.195C148.348 287.491 143.752 246.774 149.645 230.382C152.759 221.72 181.787 235.11 181.787 235.11Z" fill="#2D3133"/>
<path d="M130.851 209.986C130.851 210.387 131.607 211.99 132.815 214.295C134.581 210.762 135.968 207.861 136.422 206.794C137.911 203.279 145.58 195.221 145.58 195.221C145.58 195.221 145.58 195.227 145.584 195.238C145.584 195.242 145.585 195.245 145.586 195.248C145.587 195.251 145.588 195.254 145.588 195.257C145.592 195.269 145.595 195.28 145.597 195.291C145.603 195.31 145.608 195.332 145.616 195.359C145.621 195.373 145.624 195.387 145.628 195.402C145.631 195.413 145.634 195.423 145.636 195.434C146.054 196.99 148.619 206.714 148.713 211.504C148.817 216.719 150.177 226.366 150.177 226.366L150.183 226.367L151.784 226.592L155.328 227.091L155.753 227.151L156.784 227.295L166.18 228.618L169.513 229.086L169.963 229.15L171.868 229.418L177.129 230.158L178.47 230.346L178.483 230.348L179.487 230.49L180.877 230.685C180.877 230.685 180.877 230.685 180.878 230.683C180.916 230.632 182.229 228.834 182.026 224.842C181.897 222.264 181.587 217.421 181.716 212.928C181.716 212.904 181.718 212.881 181.718 212.858C181.718 212.801 181.721 212.745 181.722 212.688C181.725 212.668 181.725 212.65 181.726 212.631V212.621C181.808 210.152 182.025 207.812 182.485 206.035C182.796 204.831 183.003 203.64 183.139 202.524C183.146 202.469 183.152 202.415 183.159 202.361C183.183 202.154 183.205 201.949 183.224 201.747C183.524 198.631 183.288 196.258 183.273 196.119L183.279 196.13C183.374 196.338 184.06 198.851 184.959 201.954C186.479 207.2 188.606 214.131 189.512 214.464C190.83 214.949 212.179 221.272 216.79 221.92C217.323 221.995 217.632 221.994 217.662 221.899C217.683 221.832 217.704 221.763 217.726 221.691C218.286 219.844 219.056 216.706 219.179 216.199C219.191 216.153 219.197 216.128 219.197 216.128L218.371 215.88L195.141 208.919L184.522 178.296C184.3 178.119 181.692 176.856 179.787 175.951C177.845 175.026 175.503 173.668 173.382 172.506C172.301 171.914 171.278 171.374 170.394 170.968L170.258 170.907L170.257 170.906C168.794 170.236 167.823 169.794 167.823 169.794C167.823 169.794 167.821 169.794 167.818 169.794C167.783 169.791 167.554 169.768 167.183 169.734C165.143 169.54 158.805 168.946 156.681 168.821C156.506 168.81 156.36 168.803 156.247 168.801C156.149 168.798 156.077 168.797 156.032 168.8C155.764 168.816 154.458 169.272 152.74 169.925H152.739C152.674 169.95 152.609 169.974 152.543 170C152.462 170.03 152.381 170.061 152.3 170.092C152.15 170.149 151.999 170.207 151.846 170.267C151.539 170.387 151.223 170.51 150.902 170.637C150.792 170.68 150.68 170.724 150.567 170.769C147.131 172.133 143.194 173.818 142.258 174.491C141.641 174.933 139.716 178.562 137.484 183.049C134.609 192.257 130.966 206.352 130.853 209.829C130.852 209.884 130.851 209.937 130.851 209.986Z" fill="#DECBC4"/>
<path d="M180.877 230.683C180.877 230.683 181.584 231.529 181.788 235.11C181.788 235.11 152.719 231.719 149.645 230.382C149.645 230.382 149.525 226.435 150.177 226.367C150.893 226.292 180.877 230.683 180.877 230.683Z" fill="#495055"/>
<path d="M156.087 167.814C156.177 172.376 165.011 174.872 165.011 174.872C165.011 174.872 168.706 170.24 167.823 169.796C167.476 169.622 167.336 168.93 167.293 168.155C167.253 167.417 167.3 166.603 167.343 166.086C167.369 165.763 167.394 165.555 167.394 165.555C167.394 165.555 166.132 164.224 164.526 162.637C161.72 159.863 157.863 156.309 157.857 157.723C157.857 157.798 157.867 157.887 157.89 157.991C158.568 161.173 156.087 167.814 156.087 167.814Z" fill="#EEA886"/>
<path d="M156.819 227.067C156.819 227.067 156.185 231.068 156.13 232.111L154.785 231.843C154.785 231.843 155.156 227.609 155.373 226.9L156.819 227.067Z" fill="#353A3D"/>
<path d="M178.452 230.216C178.452 230.216 178.961 233.853 178.973 235.226L177.551 235.041C177.551 235.041 177.259 230.5 177.097 230.025L178.452 230.216Z" fill="#353A3D"/>
<path d="M159.488 161.129C159.488 161.129 159.488 161.129 159.489 161.13C159.506 161.157 159.881 161.717 160.521 162.522C161.877 164.227 164.426 167.03 167.292 168.155C167.252 167.417 167.299 166.603 167.342 166.086C167.635 166.078 167.929 166.044 168.219 165.98C167.434 164.607 166.299 163.168 166.299 163.168L164.526 162.637L159.488 161.129Z" fill="#A77860"/>
<path d="M157.793 157.785C158.557 159.447 159.283 160.652 159.489 161.129C159.489 161.129 159.489 161.129 159.489 161.13C159.623 161.441 159.988 161.948 160.521 162.522C161.977 164.09 164.683 166.159 167.343 166.086C167.636 166.079 167.929 166.045 168.22 165.98C169.294 165.746 170.562 165.247 171.26 163.88C176.771 153.09 172.781 144.268 172.781 144.268C172.781 144.268 157.713 140.006 155.355 144.543C153.701 147.724 155.998 153.879 157.793 157.785Z" fill="#EEA886"/>
<path d="M172.781 144.267C172.781 144.267 174.18 144.19 174.526 141.537C174.868 138.915 174.177 138.189 174.177 138.189C174.177 138.189 167.956 135.585 165.722 135.246C163.488 134.908 157.995 134.582 156.708 136.055C156.708 136.055 153.579 135.328 152.727 140.521C151.375 148.76 157.334 156.76 157.334 156.76C157.334 156.76 157.284 151.378 158.471 150.665C159.657 149.951 160.682 151.648 160.682 151.648L163.11 152.083C163.11 152.083 159.422 144.119 163.846 143.824C168.27 143.529 170.248 144.729 172.781 144.267Z" fill="#252E3B"/>
<path d="M160.615 149.502C160.384 147.131 156.096 146.225 156.383 148.711C156.67 151.196 158.782 153.584 159.757 153.5C160.733 153.416 160.791 151.309 160.615 149.502Z" fill="#EEA886"/>
<path d="M132.814 214.295C134.683 217.858 137.63 223.102 140.54 228.186C140.157 228.901 139.782 229.61 139.424 230.311C138.549 232.023 137.772 233.681 137.221 235.226C136.557 237.084 135.635 241.843 137.4 242.728L146.699 247.86C146.699 247.86 146.764 247.679 146.888 247.342C147.196 246.507 147.864 244.721 148.788 242.407C148.819 242.332 148.912 242.111 149.049 241.786C149.234 241.35 149.501 240.727 149.806 240.016C149.942 239.697 150.086 239.362 150.235 239.016C150.403 238.622 150.578 238.215 150.752 237.81C151.005 237.221 151.257 236.635 151.49 236.092C152.124 234.615 152.62 233.466 152.62 233.466C152.651 233.397 152.682 233.33 152.714 233.262C153.016 232.607 153.327 231.951 153.643 231.296C154.131 230.282 154.634 229.272 155.149 228.285C155.2 228.184 155.252 228.084 155.304 227.985C155.397 227.811 155.488 227.637 155.58 227.466C155.637 227.36 155.694 227.255 155.752 227.151C155.764 227.127 155.777 227.104 155.79 227.08C155.813 227.039 155.836 226.997 155.859 226.956C158.548 222.052 161.576 217.951 162.542 211.938C162.635 211.357 162.723 210.78 162.807 210.208C162.947 209.253 163.076 208.31 163.194 207.387C163.237 207.038 163.281 206.692 163.323 206.349C163.807 202.337 164.096 198.763 164.329 196.273C165.056 188.515 160.305 180.116 156.657 174.928C154.706 172.153 153.072 170.296 152.757 169.944C152.749 169.938 152.744 169.931 152.738 169.925C152.673 169.95 152.608 169.974 152.542 170C152.461 170.031 152.38 170.061 152.299 170.092C152.15 170.149 151.998 170.207 151.845 170.267C151.538 170.387 151.222 170.51 150.901 170.637C150.792 170.681 150.679 170.724 150.566 170.769C147.034 172.154 139.595 174.2 138.659 174.872C138.119 175.258 136.91 178.798 135.515 183.27C132.641 192.478 130.935 206.362 130.852 209.829C130.851 209.884 130.85 209.937 130.85 209.986C130.85 210.387 131.606 211.99 132.814 214.295ZM146.945 212.562C146.945 214.292 146.382 216.274 145.517 218.385C145.495 218.438 145.473 218.492 145.451 218.544C144.855 217.272 144.293 216.054 143.79 214.926C143.789 214.923 143.788 214.922 143.788 214.92C142.404 211.823 141.454 209.407 141.401 208.451C141.059 202.309 145.583 195.238 145.583 195.238C145.583 195.242 145.584 195.245 145.585 195.249C145.587 195.251 145.588 195.254 145.588 195.257C145.591 195.269 145.595 195.28 145.597 195.291C145.604 195.314 145.61 195.336 145.616 195.359C145.62 195.373 145.624 195.387 145.627 195.402C145.631 195.413 145.634 195.423 145.636 195.434C146.563 199.085 146.945 212.562 146.945 212.562Z" fill="#3C4145"/>
<path d="M164.608 235.705L138.102 247.503C136.602 248.171 134.846 247.496 134.178 245.997L126.922 229.694C126.254 228.195 126.929 226.438 128.428 225.77L154.935 213.973C156.434 213.305 158.191 213.979 158.858 215.479L166.115 231.782C166.782 233.281 166.107 235.038 164.608 235.705Z" fill="#B3A5A0"/>
<path d="M170.323 171.023C170.323 171.023 171.566 175.162 173.174 185.492C173.174 185.493 173.174 185.494 173.175 185.495C173.23 185.843 173.284 186.196 173.339 186.556C173.344 186.598 173.351 186.64 173.358 186.682C173.394 186.921 173.431 187.163 173.467 187.408C173.471 187.437 173.476 187.466 173.48 187.494C173.505 187.659 173.529 187.825 173.553 187.993C173.613 188.401 173.674 188.817 173.734 189.24C174.452 194.269 175.458 202.826 176.425 211.465V211.468C177.189 218.277 178.931 225.265 179.485 230.479C179.485 230.482 179.486 230.486 179.486 230.489C179.596 231.511 179.857 232.873 180.21 234.409C180.249 234.583 180.29 234.759 180.332 234.937C181.89 241.519 184.914 250.835 184.914 250.835L185.795 250.021L188.404 247.613C189.005 247.059 189.232 246.21 188.99 245.431C187.543 240.763 182.626 224.245 181.725 212.631C181.724 212.627 181.724 212.624 181.724 212.62C182.166 208.539 183.296 203.064 183.127 202.276C183.138 202.304 183.148 202.332 183.158 202.361C183.676 203.801 184.249 205.366 184.828 206.89V206.892C186.38 210.984 187.968 214.776 188.629 215.019C190.1 215.56 216.53 223.357 216.721 222.269C216.74 222.159 216.763 222.043 216.788 221.92C216.812 221.798 216.839 221.671 216.867 221.537C217.193 220.048 217.786 217.912 218.199 216.47C218.261 216.257 218.318 216.059 218.37 215.88C218.543 215.283 218.656 214.904 218.656 214.904L196.306 207.569L185.029 178.078C184.807 177.902 181.929 176.353 180.024 175.446C178.041 174.502 175.531 173.336 173.304 172.308C172.24 171.817 171.239 171.357 170.393 170.968L170.323 171.023Z" fill="#3C4145"/>
<path d="M155.191 181.247L159.489 183.671L157.653 185.543L162.541 211.939C163.538 205.752 163.992 199.876 164.329 196.273C165.453 184.281 153.484 170.753 152.739 169.925C152.164 170.143 151.543 170.384 150.901 170.637L155.191 181.247Z" fill="#51565C"/>
<path d="M170.257 170.907C170.257 170.907 171.862 176.151 173.734 189.24C174.451 194.268 175.458 202.827 176.425 211.464L177.426 186.744L175.378 184.526L177.198 182.252L173.304 172.308C172.24 171.817 171.239 171.357 170.392 170.968L170.257 170.907Z" fill="#51565C"/>
<path d="M152.499 170.016L156.086 167.814C156.086 167.814 156.186 169.768 165.01 174.872L162.504 181.93L152.499 170.016Z" fill="#F5E2D9"/>
<path d="M167.357 168.798C167.357 168.798 167.218 170.907 165.01 174.871L169.9 181.247L170.257 170.907L167.357 168.798Z" fill="#F5E2D9"/>
<path d="M164.997 174.872C164.997 174.872 164.049 178.663 164.39 179.724C164.39 179.724 166.475 180.483 167.973 179.535C167.973 179.535 166.912 176.881 164.997 174.872Z" fill="#FAA146"/>
<path d="M169.896 229.549C170.427 226.874 169.922 218.859 169.9 218.519L169.446 218.548C169.451 218.631 169.969 226.844 169.45 229.461L169.896 229.549Z" fill="#AD9F99"/>
<path d="M166.186 228.316C166.186 228.316 170.463 228.827 171.877 229.18L171.692 233.974L166.091 233.376L166.186 228.316Z" fill="#69737A"/>
<path d="M167.121 179.193C167.121 179.193 171.892 191.241 171.114 204.725C170.307 218.707 168.984 223.776 168.984 223.776L166.042 227.465L164.745 222.931C164.745 222.931 168.692 205.106 166.144 187.762C165.683 184.618 164.997 178.663 164.997 178.663L167.121 179.193Z" fill="#FAA146"/>
<path d="M152.787 236.088C152.787 236.088 153.81 238.136 154.834 238.477C155.858 238.818 157.351 240.481 157.351 240.481L150.143 244.277C150.143 244.277 148.223 240.524 148.138 238.136C148.053 235.747 152.787 236.088 152.787 236.088Z" fill="#EEA886"/>
<path d="M153.471 236.28L153.948 237.24C153.948 237.24 149.37 240.588 148.137 240.801L147.713 239.522L153.471 236.28Z" fill="#DECBC4"/>
<path d="M153.949 236.322C153.949 236.322 150.518 239.159 147.628 240.467L134.677 217.759L142.943 213.239C142.943 213.239 153.721 234.616 153.949 236.322Z" fill="#3C4145"/>
<path d="M182.991 196.165C183.15 199.401 183.127 202.274 183.127 202.274C183.127 202.274 183.127 202.275 183.127 202.276C183.128 202.292 183.131 202.379 183.138 202.524C183.145 202.469 183.151 202.415 183.158 202.361C183.676 203.801 184.25 205.367 184.828 206.891C184.963 205.125 184.997 203.478 184.958 201.954C184.726 192.883 181.873 188.125 181.873 188.125C182.527 189.707 182.841 193.099 182.991 196.165Z" fill="#2D3133"/>
<path d="M295.528 166.259C295.528 166.259 295.393 164.592 295.589 163.814C295.928 162.471 295.428 160.294 297.118 159.239C298.808 158.184 303.666 162.604 304.049 163.839C304.431 165.074 302.614 167.179 298.816 168.948C295.017 170.716 295.528 166.259 295.528 166.259Z" fill="#EEA886"/>
<path d="M296.601 159.677C296.601 159.677 298.241 157.208 300.406 154.687C302.306 152.474 304.972 149.993 305.535 150.464C306.389 151.18 303.97 152.964 302.236 155.284C300.639 157.421 301.316 157.269 301.316 157.269C301.316 157.269 301.121 157.302 303.32 155.315C305.683 153.178 308.312 150.982 308.78 151.359C309.36 151.827 309.393 151.934 308.663 152.851C309.197 152.415 309.394 152.5 309.6 152.706C310.664 153.775 307.687 157.459 306.504 158.921C307.42 157.803 308.213 157.082 308.441 158.157C308.702 159.386 304.255 164.403 302.837 166.353C301.291 168.482 296.601 159.677 296.601 159.677Z" fill="#EEA886"/>
<path d="M239.775 336.921C239.775 336.921 244.398 339.655 246.491 340.671C248.584 341.686 256.718 341.978 257.522 342.741C258.325 343.505 258.031 345.936 256.683 346.184C255.335 346.433 245.449 347.327 242.151 346.555C238.852 345.784 232.683 347.082 231.317 346.618C229.951 346.154 230.832 338.789 231.36 337.136C231.888 335.483 239.775 336.921 239.775 336.921Z" fill="#181929"/>
<path d="M240.159 333.91L239.775 336.921C239.775 336.921 233.594 338.077 231.721 337.125L232.185 333.996L240.159 333.91Z" fill="#22243B"/>
<path d="M264.955 231.051C264.889 233.136 264.51 237.661 264.067 242.412C263.969 243.468 263.865 244.535 263.763 245.589C263.147 251.983 262.524 257.897 262.524 257.897C261.744 262.987 260.133 271.824 258.333 278.505V278.507C257.813 280.435 257.279 282.183 256.743 283.61C256.222 284.999 255.698 286.084 255.19 286.734C251.36 291.627 242.578 335.004 242.578 335.004L230.59 334.912C230.59 334.912 233.226 305.54 235.877 298.095C238.832 289.78 243.969 278.574 242.694 270.554C241.896 265.521 240.866 249.502 240.866 249.502C240.866 249.502 239.864 231.501 244.572 218.317C245.747 215.023 264.955 231.051 264.955 231.051Z" fill="#292C47"/>
<path d="M273.464 338.048C273.464 338.048 278.054 340.836 280.134 341.877C282.215 342.918 290.345 343.307 291.139 344.08C291.934 344.853 291.61 347.281 290.259 347.513C288.908 347.745 279.013 348.52 275.723 347.71C272.434 346.899 266.251 348.123 264.89 347.643C263.529 347.162 264.499 339.808 265.047 338.162C265.595 336.516 273.464 338.048 273.464 338.048Z" fill="#181929"/>
<path d="M273.885 335.042L273.464 338.048C273.464 338.048 267.27 339.13 265.408 338.155L265.91 335.032L273.885 335.042Z" fill="#22243B"/>
<path d="M259.555 292.028C259.243 282.434 258.396 276.06 255.927 270.518C253.854 265.863 252.08 251.247 252.08 251.247C252.08 251.247 246.461 234.118 247.6 220.164C247.885 216.679 269.601 225.44 269.601 225.44C270.077 227.472 271.53 233.866 272.044 238.609C274.985 265.704 273.885 283.356 273.885 283.356C272.205 289.339 276.448 336.411 276.448 336.411H264.225C264.225 336.411 261.02 319.666 260.683 309.251C260.683 309.251 259.434 293.686 259.555 292.028Z" fill="#292C47"/>
<path d="M259.282 167.888C259.282 167.888 264.977 177.225 266.642 182.435C268.308 187.645 266.966 202.793 267.26 205.837C268.172 215.283 269.501 225.682 269.501 225.682L250.41 237.877C250.41 237.877 246.983 229.873 243.995 219.906C241.007 209.94 240.766 200.967 240.794 194.971C240.882 176.164 251.047 165.544 251.047 165.544L259.282 167.888Z" fill="#CFBEB6"/>
<path d="M266.299 142.845C266.299 142.845 270.214 147.035 269.108 148.136C268.195 149.046 271.794 153.222 272.305 153.924C272.817 154.626 270.707 155.788 270.36 156.417C270.012 157.047 270.217 163.618 268.405 164.294C266.593 164.969 257.444 164.255 254.537 162.481C251.631 160.707 246.943 150.477 247.279 145.554C247.615 140.631 259.414 135.539 266.299 142.845Z" fill="#EEA886"/>
<path d="M262.597 162.875C262.597 162.875 262.53 163.433 262.44 164.298C262.407 164.661 262.362 165.075 262.323 165.527C262.301 165.795 262.278 166.08 262.25 166.37C262.245 166.448 262.234 166.526 262.228 166.605C262.217 166.738 262.206 166.872 262.195 167.012C262.15 167.643 262.105 168.296 262.072 168.944C261.988 170.614 261.977 172.211 262.155 173.098C262.636 175.533 252.149 165.259 252.149 165.259C252.149 165.259 253.037 157.291 252.607 148.334C252.172 139.378 262.597 162.875 262.597 162.875Z" fill="#EEA886"/>
<path d="M267.102 143.765C267.102 143.765 268.953 139.396 263.242 136.363C256.519 132.792 249.39 141.757 248.444 142.285C247.498 142.813 243.199 147.65 247.406 154.063C252.714 162.155 252.434 161.884 252.434 161.884C252.434 161.884 252.967 155.915 252.932 154.763C252.868 152.658 258.39 152.408 258.39 152.408C258.39 152.408 256.122 149.389 258.644 148.035C261.165 146.681 264.114 143.469 267.102 143.765Z" fill="#3A3F47"/>
<path d="M255.491 151.644C255.089 151.079 253.614 148.585 251.717 150.775C249.82 152.965 254.907 157.059 255.328 157.019C255.748 156.979 258.874 156.396 255.491 151.644Z" fill="#EEA886"/>
<path d="M270.543 229.706C270.543 229.706 269.594 225.239 269.41 224.571L241.489 229.217L241.775 232.826C241.775 232.826 261.892 231.622 270.543 229.706Z" fill="#23263D"/>
<path d="M239.004 210.028C239.004 210.028 243.294 228.552 236.576 250.162C235.756 252.8 255.17 249.752 255.17 249.752L239.004 210.028Z" fill="#FAA146"/>
<path d="M263.666 248.395C263.666 248.395 249.876 251.422 246.003 250.053C246.003 250.053 240.367 229.551 238.401 208.741C238.248 207.133 238.119 205.524 238.016 203.924C238.016 203.921 238.016 203.921 238.016 203.921C236.918 186.991 241.227 169.816 251.046 165.545C251.322 165.732 265.15 177.924 264.888 189.083C264.869 189.839 264.859 190.597 264.853 191.355C264.845 192.727 264.855 194.102 264.884 195.474L264.886 195.476C264.974 199.721 265.237 203.955 265.612 208.067C265.65 208.496 265.691 208.924 265.733 209.349C265.8 210.04 265.871 210.726 265.943 211.409C266.042 212.317 266.144 213.217 266.251 214.111C268.483 232.735 263.666 248.395 263.666 248.395Z" fill="#FAA146"/>
<path d="M263.1 176.042C263.1 176.042 265.698 186.327 266.688 199.267C267.517 210.094 268.623 217.75 268.623 217.75L270.28 223.11L270.962 217.941C270.962 217.941 270.354 203.968 269.543 198.284C268.726 192.554 268.369 185.278 263.787 175.841L263.1 176.042Z" fill="#D44040"/>
<path d="M262.81 176.05C262.81 176.05 263.123 176.35 263.566 176.416C264.009 176.481 264.643 175.773 262.378 172.783L262.81 176.05Z" fill="#D44040"/>
<path d="M252.271 163.999C252.271 163.999 258.692 170.046 262.513 171.381L263.242 177.173L251.047 165.544L252.271 163.999Z" fill="#EDDAD3"/>
<path d="M256.582 187.411C254.051 186.511 243.532 181.405 246.33 175.445C249.127 169.484 256.34 172.655 261.768 175.08C267.449 177.617 280.858 185.413 281.919 184.687C282.98 183.961 287.618 177.323 288.456 175.844C289.294 174.365 294.357 164.911 294.834 164.198C295.3 163.501 302.654 169.677 302.654 169.677C302.654 169.677 289.449 193.129 285.896 196.863C282.343 200.596 256.582 187.411 256.582 187.411Z" fill="#FAA146"/>
<path d="M258.333 278.505V278.507C257.813 280.435 257.279 282.183 256.743 283.61C256.742 283.609 256.742 283.609 256.742 283.609L252.561 258.667C253.618 261.032 258.333 278.505 258.333 278.505Z" fill="#181929"/>
<path d="M264.884 195.474L252.785 185.592C255.99 187.309 263.867 190.906 264.853 191.355C264.845 192.727 264.855 194.103 264.884 195.474Z" fill="#8F5C28"/>
<path d="M262.44 164.298C262.407 164.661 262.362 165.075 262.323 165.527C262.301 165.795 262.278 166.08 262.25 166.37C258.241 166.102 255.142 162.908 254.952 162.713C256.583 164.008 262.44 164.298 262.44 164.298Z" fill="#A77860"/>
<g opacity="0.95">
<path d="M419.565 72.3864H425.917L423.973 68.3535H417.62L419.565 72.3864Z" fill="url(#paint12_linear_174_931)"/>
<path d="M416.593 72.3864H418.106L416.162 68.3535H414.648L416.593 72.3864Z" fill="url(#paint13_linear_174_931)"/>
<path d="M394.645 67.5834H420.367L419.514 65.5671H393.791L394.645 67.5834Z" fill="url(#paint14_linear_174_931)"/>
</g>
<path d="M256.503 3.28496H246.79C246.462 3.28496 246.196 3.01921 246.196 2.69128V0.593683C246.196 0.265756 246.462 0 246.79 0H256.503C256.831 0 257.096 0.265967 257.096 0.593683V2.69128C257.096 3.01921 256.831 3.28496 256.503 3.28496Z" fill="url(#paint15_linear_174_931)"/>
<path d="M256.503 11.1619H246.79C246.462 11.1619 246.196 10.8962 246.196 10.5682V8.47064C246.196 8.14271 246.462 7.87695 246.79 7.87695H256.503C256.831 7.87695 257.096 8.14292 257.096 8.47064V10.5682C257.096 10.8962 256.831 11.1619 256.503 11.1619Z" fill="url(#paint16_linear_174_931)"/>
<path d="M256.503 19.0388H246.79C246.462 19.0388 246.196 18.7731 246.196 18.4452V16.3476C246.196 16.0196 246.462 15.7537 246.79 15.7537H256.503C256.831 15.7537 257.096 16.0196 257.096 16.3476V18.4452C257.096 18.7731 256.831 19.0388 256.503 19.0388Z" fill="url(#paint17_linear_174_931)"/>
<path d="M264.104 3.28496H262.19C261.862 3.28496 261.597 3.01921 261.597 2.69128V0.593683C261.597 0.265756 261.863 0 262.19 0H264.104C264.432 0 264.698 0.265967 264.698 0.593683V2.69128C264.698 3.01921 264.432 3.28496 264.104 3.28496Z" fill="url(#paint18_linear_174_931)"/>
<path d="M264.104 11.1619H262.19C261.862 11.1619 261.597 10.8962 261.597 10.5682V8.47064C261.597 8.14271 261.863 7.87695 262.19 7.87695H264.104C264.432 7.87695 264.698 8.14292 264.698 8.47064V10.5682C264.698 10.8962 264.432 11.1619 264.104 11.1619Z" fill="url(#paint19_linear_174_931)"/>
<path d="M264.104 19.0388H262.19C261.862 19.0388 261.597 18.7731 261.597 18.4452V16.3476C261.597 16.0196 261.863 15.7537 262.19 15.7537H264.104C264.432 15.7537 264.698 16.0196 264.698 16.3476V18.4452C264.698 18.7731 264.432 19.0388 264.104 19.0388Z" fill="url(#paint20_linear_174_931)"/>
<path d="M215.153 189.56H226.556L223.066 182.322H211.663L215.153 189.56Z" fill="url(#paint21_linear_174_931)"/>
<path d="M209.817 189.56H212.534L209.044 182.322H206.327L209.817 189.56Z" fill="url(#paint22_linear_174_931)"/>
<defs>
<linearGradient id="paint0_linear_174_931" x1="223.931" y1="257.277" x2="215.251" y2="99.9388" gradientUnits="userSpaceOnUse">
<stop stop-color="#D1D7E0"/>
<stop offset="1" stop-color="#EBEBFF"/>
</linearGradient>
<linearGradient id="paint1_linear_174_931" x1="365.931" y1="301.141" x2="365.931" y2="139.159" gradientUnits="userSpaceOnUse">
<stop stop-color="#D1D7E0"/>
<stop offset="1" stop-color="#EBEBFF"/>
</linearGradient>
<linearGradient id="paint2_linear_174_931" x1="-0.00021075" y1="347.943" x2="417.592" y2="347.943" gradientUnits="userSpaceOnUse">
<stop offset="0.0052" stop-color="#1A2257"/>
<stop offset="1" stop-color="#5E60F2"/>
</linearGradient>
<linearGradient id="paint3_linear_174_931" x1="215.992" y1="201.113" x2="215.992" y2="82.6711" gradientUnits="userSpaceOnUse">
<stop stop-color="#D1D7E0"/>
<stop offset="1" stop-color="#EBEBFF"/>
</linearGradient>
<linearGradient id="paint4_linear_174_931" x1="94.6622" y1="268.939" x2="67.815" y2="268.939" gradientUnits="userSpaceOnUse">
<stop offset="0.0052" stop-color="#1A2257"/>
<stop offset="1" stop-color="#5E60F2"/>
</linearGradient>
<linearGradient id="paint5_linear_174_931" x1="73.8031" y1="291.1" x2="24.996" y2="291.1" gradientUnits="userSpaceOnUse">
<stop offset="0.0052" stop-color="#1A2257"/>
<stop offset="1" stop-color="#5E60F2"/>
</linearGradient>
<linearGradient id="paint6_linear_174_931" x1="69.6311" y1="298.198" x2="32.9981" y2="298.198" gradientUnits="userSpaceOnUse">
<stop offset="0.0052" stop-color="#1A2257"/>
<stop offset="1" stop-color="#5E60F2"/>
</linearGradient>
<linearGradient id="paint7_linear_174_931" x1="113.912" y1="260.984" x2="58.9014" y2="260.984" gradientUnits="userSpaceOnUse">
<stop offset="0.0052" stop-color="#1A2257"/>
<stop offset="1" stop-color="#5E60F2"/>
</linearGradient>
<linearGradient id="paint8_linear_174_931" x1="81.1588" y1="321.033" x2="49.1297" y2="224.946" gradientUnits="userSpaceOnUse">
<stop offset="0.0052" stop-color="#1A2257"/>
<stop offset="1" stop-color="#5E60F2"/>
</linearGradient>
<linearGradient id="paint9_linear_174_931" x1="56.3773" y1="383.786" x2="72.3919" y2="314.75" gradientUnits="userSpaceOnUse">
<stop stop-color="#C9C4C1"/>
<stop offset="1" stop-color="#FFF6DE"/>
</linearGradient>
<linearGradient id="paint10_linear_174_931" x1="53.2821" y1="329.912" x2="92.6503" y2="329.912" gradientUnits="userSpaceOnUse">
<stop stop-color="#C9C4C1"/>
<stop offset="1" stop-color="#FFF6DE"/>
</linearGradient>
<linearGradient id="paint11_linear_174_931" x1="323.329" y1="100.98" x2="323.329" y2="34.2599" gradientUnits="userSpaceOnUse">
<stop stop-color="#D1D7E0"/>
<stop offset="1" stop-color="#EBEBFF"/>
</linearGradient>
<linearGradient id="paint12_linear_174_931" x1="417.62" y1="70.37" x2="425.917" y2="70.37" gradientUnits="userSpaceOnUse">
<stop stop-color="#D1D7E0"/>
<stop offset="1" stop-color="#EBEBFF"/>
</linearGradient>
<linearGradient id="paint13_linear_174_931" x1="414.648" y1="70.37" x2="418.107" y2="70.37" gradientUnits="userSpaceOnUse">
<stop stop-color="#D1D7E0"/>
<stop offset="1" stop-color="#EBEBFF"/>
</linearGradient>
<linearGradient id="paint14_linear_174_931" x1="393.791" y1="66.5752" x2="420.367" y2="66.5752" gradientUnits="userSpaceOnUse">
<stop stop-color="#D1D7E0"/>
<stop offset="1" stop-color="#EBEBFF"/>
</linearGradient>
<linearGradient id="paint15_linear_174_931" x1="246.196" y1="1.64252" x2="257.096" y2="1.64252" gradientUnits="userSpaceOnUse">
<stop stop-color="#D1D7E0"/>
<stop offset="1" stop-color="#EBEBFF"/>
</linearGradient>
<linearGradient id="paint16_linear_174_931" x1="246.196" y1="9.51946" x2="257.096" y2="9.51946" gradientUnits="userSpaceOnUse">
<stop stop-color="#D1D7E0"/>
<stop offset="1" stop-color="#EBEBFF"/>
</linearGradient>
<linearGradient id="paint17_linear_174_931" x1="246.196" y1="17.3964" x2="257.096" y2="17.3964" gradientUnits="userSpaceOnUse">
<stop stop-color="#D1D7E0"/>
<stop offset="1" stop-color="#EBEBFF"/>
</linearGradient>
<linearGradient id="paint18_linear_174_931" x1="261.597" y1="1.64252" x2="264.698" y2="1.64252" gradientUnits="userSpaceOnUse">
<stop stop-color="#D1D7E0"/>
<stop offset="1" stop-color="#EBEBFF"/>
</linearGradient>
<linearGradient id="paint19_linear_174_931" x1="261.597" y1="9.51946" x2="264.698" y2="9.51946" gradientUnits="userSpaceOnUse">
<stop stop-color="#D1D7E0"/>
<stop offset="1" stop-color="#EBEBFF"/>
</linearGradient>
<linearGradient id="paint20_linear_174_931" x1="261.597" y1="17.3964" x2="264.698" y2="17.3964" gradientUnits="userSpaceOnUse">
<stop stop-color="#D1D7E0"/>
<stop offset="1" stop-color="#EBEBFF"/>
</linearGradient>
<linearGradient id="paint21_linear_174_931" x1="211.663" y1="185.941" x2="226.556" y2="185.941" gradientUnits="userSpaceOnUse">
<stop stop-color="#D1D7E0"/>
<stop offset="1" stop-color="#EBEBFF"/>
</linearGradient>
<linearGradient id="paint22_linear_174_931" x1="206.327" y1="185.941" x2="212.534" y2="185.941" gradientUnits="userSpaceOnUse">
<stop stop-color="#D1D7E0"/>
<stop offset="1" stop-color="#EBEBFF"/>
</linearGradient>
</defs>
</svg>
