<svg width="24" height="24" viewBox="0 0 24 24" fill="none" xmlns="http://www.w3.org/2000/svg">
<g clip-path="url(#clip0_244_4689)">
<path d="M12 23.625C5.5875 23.625 0.375 18.4125 0.375 12C0.375 8.47505 1.95 5.21255 4.65 2.96255C4.9875 2.70005 5.4375 2.73755 5.7 3.07505C5.9625 3.41255 5.925 3.86255 5.5875 4.12505C3.225 6.07505 1.875 8.92505 1.875 12C1.875 17.5875 6.4125 22.125 12 22.125C17.5875 22.125 22.125 17.5875 22.125 12C22.125 8.92505 20.775 6.07505 18.375 4.16255C18.0375 3.90005 18 3.41255 18.2625 3.11255C18.525 2.77505 19.0125 2.73755 19.3125 3.00005C22.05 5.21255 23.625 8.47505 23.625 12C23.625 18.4125 18.4125 23.625 12 23.625Z" fill="#595959"/>
<path d="M12 12.75C11.5875 12.75 11.25 12.4125 11.25 12V1.125C11.25 0.7125 11.5875 0.375 12 0.375C12.4125 0.375 12.75 0.7125 12.75 1.125V12C12.75 12.4125 12.4125 12.75 12 12.75Z" fill="#595959"/>
</g>
<defs>
<clipPath id="clip0_244_4689">
<rect width="24" height="24" fill="white"/>
</clipPath>
</defs>
</svg>
