<svg width="432" height="432" viewBox="0 0 432 432" fill="none" xmlns="http://www.w3.org/2000/svg">
<path d="M204.78 291.859H37.9425C35.2234 291.859 33.0107 289.646 33.0107 286.927V52.4102C33.0107 49.6912 35.2234 47.4785 37.9425 47.4785H204.78C207.498 47.4785 209.711 49.6912 209.711 52.4102V286.927C209.711 289.646 207.498 291.859 204.78 291.859ZM37.9425 47.6954C35.3418 47.6954 33.2267 49.8105 33.2267 52.4111V286.928C33.2267 289.529 35.3418 291.644 37.9425 291.644H204.78C207.38 291.644 209.495 289.529 209.495 286.928V52.4102C209.495 49.8105 207.38 47.6945 204.78 47.6945L37.9425 47.6954Z" fill="#EBEBEB"/>
<path d="M391.66 291.859H224.823C222.104 291.859 219.893 289.646 219.893 286.927V52.4102C219.893 49.6912 222.105 47.4785 224.823 47.4785H391.66C394.38 47.4785 396.592 49.6912 396.592 52.4102V286.927C396.593 289.646 394.38 291.859 391.66 291.859ZM224.823 47.6954C222.224 47.6954 220.109 49.8105 220.109 52.4111V286.928C220.109 289.529 222.224 291.644 224.823 291.644H391.66C394.261 291.644 396.376 289.529 396.376 286.928V52.4102C396.376 49.8105 394.261 47.6945 391.66 47.6945L224.823 47.6954Z" fill="#EBEBEB"/>
<path d="M388.714 344.299H360.097V344.515H388.714V344.299Z" fill="#EBEBEB"/>
<path d="M286.174 346.644H278.663V346.86H286.174V346.644Z" fill="#EBEBEB"/>
<path d="M359.232 336.276H342.65V336.492H359.232V336.276Z" fill="#EBEBEB"/>
<path d="M82.643 337.727H45.3242V337.943H82.643V337.727Z" fill="#EBEBEB"/>
<path d="M95.8076 337.727H90.3359V337.943H95.8076V337.727Z" fill="#EBEBEB"/>
<path d="M194.527 341.376H113.591V341.592H194.527V341.376Z" fill="#EBEBEB"/>
<path d="M432 330.392H0V330.608H432V330.392Z" fill="#EBEBEB"/>
<path d="M133.87 82.2156H32.2432V232.381H133.87V82.2156Z" fill="#E0E0E0"/>
<path d="M137.611 82.2156H35.9834V232.381H137.611V82.2156Z" fill="#2099FF"/>
<path d="M132.47 161.603H40.9287V223.586H132.47V161.603Z" fill="#EBEBEB"/>
<path d="M132.47 88.3181H40.9287V161.603H132.47V88.3181Z" fill="white"/>
<path d="M132.472 88.3215H129.25V223.585H132.472V88.3215Z" fill="#E0E0E0"/>
<path d="M40.6436 161.603V164.872H129.593V161.603H40.6436Z" fill="#E0E0E0"/>
<path d="M132.47 156.116H39.2012V161.603H132.47V156.116Z" fill="#2099FF"/>
<path d="M378.579 331.373H254.716C245.33 331.373 237.722 323.765 237.722 314.379V277.513C237.722 268.128 245.33 260.519 254.716 260.519H378.579C387.964 260.519 395.573 268.128 395.573 277.513V314.379C395.574 323.765 387.964 331.373 378.579 331.373Z" fill="#E0E0E0"/>
<path d="M370.261 331.897H246.398C237.013 331.897 229.404 324.289 229.404 314.903V278.037C229.404 268.651 237.013 261.043 246.398 261.043H370.262C379.648 261.043 387.256 268.651 387.256 278.037V314.903C387.256 324.289 379.647 331.897 370.261 331.897Z" fill="#F5F5F5"/>
<path d="M380.02 294.158H237.567V279.594C237.567 273.039 242.882 267.724 249.437 267.724H368.151C374.706 267.724 380.02 273.039 380.02 279.594V294.158Z" fill="#E0E0E0"/>
<path d="M368.151 324.169H249.437C242.882 324.169 237.567 318.855 237.567 312.3V297.735H380.02V312.3C380.02 318.855 374.706 324.169 368.151 324.169Z" fill="#E0E0E0"/>
<path d="M341.705 272.841H315.623V294.333H341.705V272.841Z" fill="#E6E6E6"/>
<path d="M315.623 272.841H308.942V294.333H315.623V272.841Z" fill="#F5F5F5"/>
<path d="M314.48 288.549C314.48 289.762 313.497 290.746 312.283 290.746C311.07 290.746 310.086 289.763 310.086 288.549C310.086 287.335 311.069 286.352 312.283 286.352C313.496 286.352 314.48 287.336 314.48 288.549Z" fill="#E0E0E0"/>
<path d="M348.545 269.527H328.952V294.333H348.545V269.527Z" fill="#E6E6E6"/>
<path d="M328.959 269.527H323.295V294.333H328.959V269.527Z" fill="#2099FF"/>
<path d="M326.127 275.073C327.199 275.073 328.068 274.204 328.068 273.131C328.068 272.059 327.199 271.19 326.127 271.19C325.055 271.19 324.186 272.059 324.186 273.131C324.186 274.204 325.055 275.073 326.127 275.073Z" fill="#2099FF"/>
<path d="M326.127 275.073C327.199 275.073 328.068 274.204 328.068 273.131C328.068 272.059 327.199 271.19 326.127 271.19C325.055 271.19 324.186 272.059 324.186 273.131C324.186 274.204 325.055 275.073 326.127 275.073Z" fill="#E0E0E0"/>
<path d="M351.243 272.841H334.725V294.333H351.243V272.841Z" fill="#EBEBEB"/>
<path d="M334.724 272.841H330.951V294.333H334.724V272.841Z" fill="#F5F5F5"/>
<path d="M369.911 276.478H348.244V294.333H369.911V276.478Z" fill="#E6E6E6"/>
<path d="M348.244 276.478H342.696V294.333H348.244V276.478Z" fill="#2099FF"/>
<path d="M375.592 273.725H359.315V294.333H375.592V273.725Z" fill="#E6E6E6"/>
<path d="M359.323 273.725H354.617V294.333H359.323V273.725Z" fill="#F5F5F5"/>
<path d="M379.924 276.478H364.113V294.333H379.924V276.478Z" fill="#E6E6E6"/>
<path d="M364.105 276.478H360.973V294.333H364.105V276.478Z" fill="#2099FF"/>
<path d="M279.358 301.864H259.169V323.356H279.358V301.864Z" fill="#E6E6E6"/>
<path d="M259.168 301.864H253.997V323.356H259.168V301.864Z" fill="#F5F5F5"/>
<path d="M284.652 298.549H269.486V323.356H284.652V298.549Z" fill="#E6E6E6"/>
<path d="M269.492 298.549H265.107V323.356H269.492V298.549Z" fill="#F5F5F5"/>
<path d="M348.234 301.864H328.045V323.356H348.234V301.864Z" fill="#E6E6E6"/>
<path d="M328.045 301.864H322.874V323.356H328.045V301.864Z" fill="#F5F5F5"/>
<path d="M353.528 298.549H338.362V323.356H353.528V298.549Z" fill="#E6E6E6"/>
<path d="M338.369 298.549H333.984V323.356H338.369V298.549Z" fill="#2099FF"/>
<path d="M286.742 301.864H273.955V323.356H286.742V301.864Z" fill="#EBEBEB"/>
<path d="M273.954 301.864H271.033V323.356H273.954V301.864Z" fill="#F5F5F5"/>
<path d="M301.191 305.5H284.419V323.356H301.191V305.5Z" fill="#E6E6E6"/>
<path d="M284.419 305.5H280.125V323.356H284.419V305.5Z" fill="#F5F5F5"/>
<path d="M305.589 302.747H292.989V323.355H305.589V302.747Z" fill="#E6E6E6"/>
<path d="M292.996 302.747H289.353V323.355H292.996V302.747Z" fill="#F5F5F5"/>
<path d="M308.943 305.5H296.704V323.356H308.943V305.5Z" fill="#E6E6E6"/>
<path d="M296.697 305.5H294.272V323.356H296.697V305.5Z" fill="#F0F0F0"/>
<path d="M294.146 239.918C293.716 239.071 292.735 238.582 291.843 238.768C290.95 238.955 290.22 239.803 290.128 240.759C289.497 240.287 288.594 240.263 287.942 240.701C287.29 241.139 286.927 242.012 287.062 242.817C286.351 242.242 285.185 242.48 284.726 243.292C284.267 244.105 284.623 245.303 285.44 245.691C284.884 245.731 284.407 246.286 284.422 246.873C284.437 247.462 284.94 247.988 285.497 247.997C284.934 248.01 284.416 248.505 284.349 249.096C284.28 249.687 284.671 250.299 285.214 250.455C284.642 250.709 284.498 251.648 284.964 252.081C285.429 252.513 286.293 252.239 286.456 251.607C286.543 251.79 286.813 251.833 286.947 251.685C287.081 251.537 287.029 251.255 286.852 251.17C287.11 251.533 287.767 251.364 287.839 250.918C287.646 251.954 288.881 252.927 289.765 252.437C289.51 252.87 289.87 253.473 290.335 253.607C290.8 253.742 291.291 253.552 291.728 253.336C292.165 253.12 292.611 252.869 293.094 252.876C293.516 252.882 293.91 253.086 294.316 253.216C295.601 253.628 297.087 253.236 298.039 252.233C298.707 253.13 300.29 252.889 300.691 251.828C300.794 252.337 301.244 252.743 301.735 252.772C302.226 252.801 302.715 252.45 302.872 251.956C302.882 252.183 302.892 252.41 302.902 252.636C303.828 252.856 304.743 251.66 304.346 250.748C305.007 250.76 305.633 250.189 305.718 249.496C305.803 248.803 305.337 248.081 304.694 247.914C305.784 247.608 306.616 246.478 306.628 245.285C306.64 244.094 305.831 242.945 304.748 242.615C304.321 242.484 303.819 242.488 303.478 242.788C303.137 243.089 303.092 243.752 303.473 243.994C303.801 242.925 303.315 241.644 302.379 241.111C301.444 240.578 300.165 240.852 299.501 241.729C299.825 241.275 299.831 240.596 299.515 240.136C299.2 239.675 298.588 239.47 298.078 239.653C297.951 238.919 297.22 238.365 296.522 238.473C295.824 238.581 295.274 239.334 295.352 240.075C295.271 239.456 294.308 239.274 294.031 239.827C293.639 239.717 294.146 239.918 294.146 239.918Z" fill="#EBEBEB"/>
<path d="M294.405 246.815C294.119 246.617 293.758 246.51 293.418 246.578C293.076 246.646 292.768 246.91 292.698 247.251C292.628 247.592 292.84 247.982 293.178 248.064C293.59 248.163 294.002 247.825 294.421 247.883C294.57 247.905 294.708 247.976 294.854 248.015C295.457 248.175 296.054 247.782 296.554 247.41C296.73 247.279 296.91 247.144 297.027 246.958C297.145 246.773 297.188 246.524 297.078 246.334C296.924 246.071 296.559 246.032 296.255 246.066C295.646 246.136 295.058 246.382 294.581 246.766C294.596 246.671 294.612 246.575 294.627 246.48L294.405 246.815Z" fill="#FAFAFA"/>
<path d="M303.16 246.298C302.997 246.184 302.828 246.067 302.634 246.021C302.44 245.976 302.211 246.017 302.089 246.174C301.92 246.39 302.027 246.726 302.241 246.898C302.454 247.068 302.739 247.115 303.008 247.158C303.285 247.201 303.635 247.21 303.773 246.966C303.873 246.787 303.793 246.551 303.643 246.411C303.494 246.271 303.292 246.205 303.097 246.142L303.16 246.298Z" fill="#FAFAFA"/>
<path d="M289.33 241.745C288.772 241.978 288.341 242.494 288.212 243.083C288.173 243.261 288.178 243.485 288.334 243.58C288.444 243.647 288.586 243.619 288.711 243.589C289.245 243.462 289.78 243.335 290.314 243.209C290.058 243.308 289.796 243.41 289.592 243.593C289.388 243.775 289.25 244.059 289.317 244.325C289.395 244.637 289.738 244.829 290.059 244.825C290.381 244.82 290.68 244.661 290.942 244.472C291.221 244.272 291.494 243.994 291.499 243.651C291.504 243.308 291.072 242.99 290.808 243.21C291.419 243.044 292.002 242.778 292.528 242.426C292.718 242.299 292.906 242.156 293.026 241.961C293.146 241.765 293.187 241.508 293.077 241.307C292.529 240.312 291.837 241.772 291.5 241.902C290.862 242.148 290.141 241.406 289.33 241.745Z" fill="#FAFAFA"/>
<path d="M286.839 245.993C286.783 246.187 286.821 246.422 286.98 246.548C287.138 246.675 287.419 246.632 287.492 246.443C287.134 246.554 286.752 246.683 286.529 246.985C286.306 247.286 286.361 247.812 286.717 247.929C286.939 248.002 287.177 247.893 287.383 247.78C287.963 247.463 288.518 247.098 289.038 246.689C288.879 247.056 289.262 247.473 289.66 247.507C290.058 247.541 290.432 247.326 290.773 247.119C291.192 246.864 291.673 246.475 291.563 245.996C291.467 245.58 290.935 245.396 290.525 245.518C290.115 245.639 289.808 245.969 289.521 246.287C289.746 245.959 289.426 245.473 289.033 245.42C288.65 245.368 288.269 245.601 288.031 245.883C288.476 245.639 288.576 245.001 287.979 244.927C287.592 244.878 286.933 245.669 286.839 245.993Z" fill="#FAFAFA"/>
<path d="M299.07 244.562C298.733 244.436 298.312 244.655 298.221 245.003C298.13 245.35 298.391 245.748 298.746 245.802C298.486 245.824 298.235 245.955 298.067 246.156C297.974 246.268 297.903 246.412 297.925 246.556C297.956 246.772 298.186 246.914 298.403 246.922C298.621 246.929 298.829 246.837 299.027 246.747C298.812 246.767 298.584 246.792 298.414 246.925C298.243 247.057 298.169 247.338 298.322 247.49C298.45 247.617 298.662 247.596 298.835 247.547C299.226 247.437 299.59 247.234 299.885 246.956C300.107 247.202 300.437 247.38 300.765 247.327C301.092 247.273 301.37 246.925 301.268 246.609C301.194 246.383 300.959 246.242 300.724 246.213C300.489 246.185 300.253 246.249 300.029 246.322C300.259 246.159 300.503 245.976 300.588 245.706C300.672 245.436 300.49 245.074 300.207 245.096C299.89 245.121 299.729 245.552 299.478 245.708C299.169 245.417 299.748 244.814 299.07 244.562Z" fill="#FAFAFA"/>
<path d="M293.359 243.244C292.999 243.488 292.874 243.969 292.899 244.404C292.926 244.884 293.145 245.397 293.585 245.589C294.164 245.843 294.888 245.36 294.994 244.737C295.1 244.115 294.691 243.48 294.13 243.188C294.132 243.188 293.72 243 293.359 243.244Z" fill="#FAFAFA"/>
<path d="M297.404 242.726C297.454 242.769 297.503 242.812 297.553 242.855C297.308 242.544 296.789 242.503 296.497 242.772C296.205 243.041 296.204 243.561 296.494 243.831C296.783 244.102 297.303 244.064 297.551 243.755C297.969 243.95 298.52 243.874 298.815 243.518C299.108 243.163 299.042 242.545 298.641 242.317C298.24 242.089 297.63 242.431 297.672 242.889C297.615 242.825 297.557 242.76 297.499 242.696L297.404 242.726Z" fill="#FAFAFA"/>
<path d="M301.869 243.447C301.583 243.728 301.285 244.03 301.18 244.418C301.074 244.806 301.248 245.299 301.638 245.399C302.025 245.497 302.392 245.178 302.612 244.845C302.812 244.544 302.964 244.17 302.849 243.829C302.734 243.487 302.242 243.284 301.996 243.548L301.869 243.447Z" fill="#FAFAFA"/>
<path d="M295.435 241.104C295.289 240.779 294.826 240.665 294.524 240.853C294.222 241.041 294.11 241.466 294.242 241.796C294.375 242.127 294.714 242.352 295.069 242.391C295.508 242.439 296.027 242.084 295.928 241.654C296.117 241.904 296.457 242.002 296.769 241.972C297.081 241.942 297.369 241.8 297.641 241.644C298.009 241.432 298.403 241.104 298.364 240.68C298.333 240.343 298.006 240.083 297.669 240.052C297.332 240.021 296.999 240.177 296.742 240.398C296.54 240.57 296.371 240.784 296.153 240.935C295.934 241.086 295.636 241.167 295.402 241.041L295.435 241.104Z" fill="#FAFAFA"/>
<path d="M300.93 260.751H289.866L288.782 249.599H302.014L300.93 260.751Z" fill="#F0F0F0"/>
<path d="M302.871 250.176H287.816L287.545 248.692H303.141L302.871 250.176Z" fill="#FAFAFA"/>
<path d="M289.441 294.309H276.74L280.72 281.486L281.302 279.612H284.175L289.441 294.309Z" fill="#EBEBEB"/>
<path d="M281.302 279.612L280.719 281.486L276.74 294.309L264.999 294.134L261.224 281.486L260.642 279.612H281.302Z" fill="#E0E0E0"/>
<path d="M281.302 279.612L280.72 281.486L276.74 294.309L252.625 293.95L257.763 279.612H281.302Z" fill="#FAFAFA"/>
<path d="M281.302 279.612L280.719 281.486H257.097L257.763 279.612H281.302Z" fill="#EBEBEB"/>
<path d="M260.728 287.577H255.433L257.28 282.361L262.345 282.417L260.728 287.577ZM256.044 287.145H260.411L261.759 282.843L257.584 282.797L256.044 287.145Z" fill="#EBEBEB"/>
<path d="M266.652 287.577H261.356L263.204 282.361L268.268 282.417L266.652 287.577ZM261.968 287.145H266.335L267.682 282.843L263.508 282.797L261.968 287.145Z" fill="#EBEBEB"/>
<path d="M272.576 287.577H267.28L269.128 282.361L274.193 282.417L272.576 287.577ZM267.892 287.145H272.259L273.606 282.843L269.432 282.797L267.892 287.145Z" fill="#EBEBEB"/>
<path d="M278.501 287.577H273.206L275.053 282.361L280.117 282.417L278.501 287.577ZM273.817 287.145H278.184L279.531 282.843L275.357 282.797L273.817 287.145Z" fill="#EBEBEB"/>
<path d="M258.88 293.112H253.585L255.432 287.896L260.497 287.952L258.88 293.112ZM254.197 292.68H258.563L259.911 288.377L255.736 288.331L254.197 292.68Z" fill="#EBEBEB"/>
<path d="M264.805 293.112H259.511L261.358 287.896L266.422 287.952L264.805 293.112ZM260.122 292.68H264.488L265.836 288.377L261.662 288.331L260.122 292.68Z" fill="#EBEBEB"/>
<path d="M270.729 293.112H265.434L267.282 287.896L272.346 287.952L270.729 293.112ZM266.044 292.68H270.411L271.759 288.377L267.584 288.331L266.044 292.68Z" fill="#EBEBEB"/>
<path d="M276.653 293.112H271.357L273.205 287.896L278.269 287.952L276.653 293.112ZM271.969 292.68H276.336L277.684 288.377L273.51 288.331L271.969 292.68Z" fill="#EBEBEB"/>
<path d="M357.015 253.834C357.015 256.556 357.442 258.317 358.161 259.446C358.702 260.296 359.674 260.774 360.681 260.774H364.623C365.63 260.774 366.602 260.296 367.143 259.446C367.863 258.316 368.29 256.556 368.29 253.834C368.29 249.885 366.568 246.724 366.006 244.199C365.804 243.29 366.478 240.505 366.478 240.505H358.826C358.826 240.505 359.5 243.29 359.298 244.199C358.736 246.724 357.015 249.885 357.015 253.834Z" fill="#F0F0F0"/>
<path d="M365.205 221.441C365.205 221.441 363.915 221.763 363.165 222.763C362.414 223.764 363.711 226.12 363.711 226.12C363.711 226.12 364.937 227.371 366.461 226.999C367.985 226.626 367.985 226.626 367.985 226.626C367.985 226.626 366.373 222.008 365.216 221.747L365.205 221.441Z" fill="#EBEBEB"/>
<path d="M371.22 222.545C371.018 224.553 369.322 226.812 367.53 226.631C365.737 226.451 364.527 223.898 364.729 221.89C364.931 219.882 366.391 219.959 368.184 220.14C369.977 220.321 371.422 220.537 371.22 222.545Z" fill="#EBEBEB"/>
<path d="M366.165 220.986C366.165 220.986 367.309 222.315 370.205 222.213C370.205 222.213 365.272 224.306 366.165 220.986Z" fill="#EBEBEB"/>
<path d="M367.428 220.819C367.428 220.819 369.033 220.842 368.933 221.495C368.933 221.495 370.265 221.671 370.187 221.085C370.11 220.498 367.428 220.819 367.428 220.819Z" fill="#EBEBEB"/>
<path d="M366.165 220.986C366.165 220.986 367.309 222.315 370.205 222.213C370.205 222.213 365.272 224.306 366.165 220.986Z" fill="#E0E0E0"/>
<path d="M367.428 220.819C367.428 220.819 369.033 220.842 368.933 221.495C368.933 221.495 370.265 221.671 370.187 221.085C370.11 220.498 367.428 220.819 367.428 220.819Z" fill="#E0E0E0"/>
<path d="M364.452 226.696C364.841 227.712 365.897 228.396 366.982 228.47C368.067 228.544 369.148 228.061 369.926 227.302C370.703 226.542 371.197 225.526 371.467 224.472C371.537 224.199 371.689 223.512 371.345 223.338C371.03 223.177 370.735 223.605 370.54 223.793C369.977 224.335 369.394 224.833 368.73 225.248C368.085 225.651 367.394 225.979 366.675 226.224C366.475 226.291 364.521 226.876 364.452 226.696Z" fill="#EBEBEB"/>
<path d="M372.765 224.183C372.947 225.047 372.641 225.997 371.99 226.593C371.562 226.984 371.015 227.217 370.472 227.419C370.093 227.56 369.62 227.672 369.328 227.393C369.012 227.094 369.144 226.572 369.307 226.168C369.556 225.546 369.822 224.931 370.104 224.323C370.336 223.824 370.582 222.963 370.974 222.577C371.342 222.213 371.704 222.538 372.082 222.924C372.419 223.269 372.664 223.709 372.765 224.183Z" fill="#EBEBEB"/>
<path d="M365.11 225.687C364.434 225.529 363.877 224.947 363.75 224.264C363.656 223.76 363.885 222.569 364.521 222.533C364.59 223.643 364.641 224.648 365.11 225.687Z" fill="#E0E0E0"/>
<path d="M369.975 226.04C370.653 225.977 371.287 225.553 371.604 224.951C371.779 224.618 371.983 222.787 371.303 223.443C371.081 223.658 370.964 224.457 370.813 224.76C370.585 225.217 370.303 225.648 369.975 226.04Z" fill="#E0E0E0"/>
<path d="M367.301 226.689C367.718 227.205 368.51 227.376 369.103 227.078C368.969 227.414 367.814 227.498 367.454 227.534C366.516 227.628 366.125 227.149 365.331 226.625C365.331 226.625 366.657 227.091 367.301 226.689Z" fill="#E0E0E0"/>
<path d="M361.595 258.608L363.804 236.294L366.729 228.377L367.237 228.564L364.324 236.446L362.016 259.217L361.595 258.608Z" fill="#E6E6E6"/>
<path d="M364.306 236.248L363.823 236.492C363.505 235.862 363.261 235.072 362.977 234.158C362.539 232.744 362.043 231.143 361.115 229.632L361.576 229.349C362.539 230.917 363.046 232.553 363.494 233.997C363.769 234.889 364.008 235.659 364.306 236.248Z" fill="#E6E6E6"/>
<path d="M365.495 233.322C366.246 233.27 366.974 232.934 367.503 232.399C368.104 231.79 368.428 230.969 368.737 230.171C367.756 230.273 366.844 229.634 365.86 229.562C365.077 229.505 364.274 229.838 363.759 230.432C363.093 231.202 362.703 232.145 363.072 232.625C363.377 233.021 364.49 233.393 365.495 233.322Z" fill="#F0F0F0"/>
<path d="M357.596 230.907C358.321 230.304 359.872 230.062 360.752 230.399C361.631 230.737 362.29 231.511 362.475 232.318C362.125 232.851 361.418 233.055 360.785 232.982C360.151 232.909 359.571 232.607 359.007 232.312C358.442 232.015 357.862 231.714 357.229 231.64L357.596 230.907Z" fill="#F0F0F0"/>
<path d="M362.465 231.331C361.184 231.473 360.037 231.729 358.873 230.272C358.093 229.296 358.343 227.82 358.4 226.653C359.511 226.897 362.03 228.123 362.589 228.423C363.148 228.724 363.624 229.212 363.716 229.79C363.808 230.368 363.416 231.011 362.785 231.117C362.764 231.085 362.465 231.331 362.465 231.331Z" fill="#F0F0F0"/>
<path d="M358.799 248.689C358.285 250.142 357.797 251.722 357.964 253.266C357.996 253.56 358.087 253.895 358.299 253.948C358.496 253.996 358.691 253.754 358.761 253.487C358.831 253.22 358.813 252.935 358.812 252.657C358.806 250.264 360.109 248.247 360.356 245.913C360.426 245.249 360.255 243.154 359.866 244.693C359.519 246.066 359.273 247.349 358.799 248.689Z" fill="#FAFAFA"/>
<path d="M177.785 296.232C177.785 296.232 180.297 268.404 169.239 254.832C158.179 241.261 177.873 253.617 181.361 267.151C181.361 267.151 182.014 242.119 170.978 225.896C159.942 209.674 178.752 221.815 182.032 239.508C182.032 239.508 182.657 217.17 177.143 205.326C171.629 193.482 179.854 200.533 183.489 207.935C187.125 215.338 185.317 234.976 185.317 234.976C185.317 234.976 189.182 198.601 196.516 200.571C203.85 202.542 188.609 227.912 187.39 240.298C187.39 240.298 194.059 223.022 200.706 225.646C207.353 228.271 191.453 231.899 186.543 257.051L185.106 268.739C185.106 268.739 191.133 251.756 196.646 256.217C202.158 260.678 183.212 271.82 181.061 296.715L177.785 296.232Z" fill="#EBEBEB"/>
<path d="M178.973 297.673C178.973 297.673 176.619 263.256 190.628 246.865C204.637 230.475 180.007 245.088 175.341 261.676C175.341 261.676 175.205 230.767 189.257 211.105C203.308 191.442 179.773 205.82 175.253 227.546C175.253 227.546 175.08 199.962 182.2 185.526C189.321 171.088 178.985 179.524 174.301 188.541C169.617 197.559 171.323 221.847 171.323 221.847C171.323 221.847 167.526 176.841 158.425 179.037C149.323 181.233 167.448 213.026 168.622 228.348C168.622 228.348 160.855 206.816 152.583 209.842C144.311 212.868 163.833 217.855 169.22 249.047L170.68 263.516C170.68 263.516 163.698 242.367 156.776 247.694C149.856 253.022 172.934 267.377 174.922 298.164L178.973 297.673Z" fill="#F0F0F0"/>
<path d="M200.745 314.834C200.745 324.277 190.506 331.941 177.875 331.941C165.234 331.941 154.996 324.277 154.996 314.834C154.996 310.574 157.07 306.695 160.508 303.705L157.804 292.257H197.937L195.233 303.705C198.671 306.695 200.745 310.574 200.745 314.834Z" fill="#EBEBEB"/>
<path d="M212.884 74.5468C200.319 88.5047 194.098 107.505 195.159 126.255C196.221 145.006 203.134 162.955 211.546 179.746C218.912 194.45 227.718 211.125 221.688 226.426C218.315 234.981 210.64 241.315 202.147 244.839C193.653 248.364 184.343 249.386 175.159 249.845C159.506 250.628 143.614 249.91 128.378 253.585C113.142 257.259 98.1486 266.326 92.2587 280.85C85.3191 297.963 93.1962 318.444 107.097 330.6C120.998 342.757 139.647 347.979 157.933 350.556C183.558 354.168 209.815 353.264 235.131 347.896C255.457 343.586 275.466 336.252 292.049 323.733C308.633 311.214 321.573 293.103 325.12 272.629C328.666 252.156 321.783 229.509 305.557 216.529C298.807 211.13 290.673 207.436 284.752 201.138C278.832 194.841 275.827 184.347 281.324 177.677C284.957 173.271 291.067 171.92 296.738 171.244C324.62 167.918 355.508 173.664 378.826 158.019C392.179 149.06 400.815 133.787 402.716 117.82C404.618 101.854 401.172 84.5727 391.109 72.03C363.704 37.8709 246.455 37.2548 212.884 74.5468Z" fill="#FAA146"/>
<g opacity="0.9">
<path d="M212.884 74.5468C200.319 88.5047 194.098 107.505 195.159 126.255C196.221 145.006 203.134 162.955 211.546 179.746C218.912 194.45 227.718 211.125 221.688 226.426C218.315 234.981 210.64 241.315 202.147 244.839C193.653 248.364 184.343 249.386 175.159 249.845C159.506 250.628 143.614 249.91 128.378 253.585C113.142 257.259 98.1486 266.326 92.2587 280.85C85.3191 297.963 93.1962 318.444 107.097 330.6C120.998 342.757 139.647 347.979 157.933 350.556C183.558 354.168 209.815 353.264 235.131 347.896C255.457 343.586 275.466 336.252 292.049 323.733C308.633 311.214 321.573 293.103 325.12 272.629C328.666 252.156 321.783 229.509 305.557 216.529C298.807 211.13 290.673 207.436 284.752 201.138C278.832 194.841 275.827 184.347 281.324 177.677C284.957 173.271 291.067 171.92 296.738 171.244C324.62 167.918 355.508 173.664 378.826 158.019C392.179 149.06 400.815 133.787 402.716 117.82C404.618 101.854 401.172 84.5727 391.109 72.03C363.704 37.8709 246.455 37.2548 212.884 74.5468Z" fill="white"/>
</g>
<path d="M216 368.942C308.518 368.942 383.52 364.562 383.52 359.159C383.52 353.756 308.518 349.376 216 349.376C123.481 349.376 48.4795 353.756 48.4795 359.159C48.4795 364.562 123.481 368.942 216 368.942Z" fill="url(#paint0_linear_174_1223)"/>
<path d="M202.239 222.05L204.393 209.59L208.641 210.818L202.239 222.05Z" fill="#FAA146"/>
<path d="M203.66 226.036L215.81 222.527L214.122 218.44L203.66 226.036Z" fill="#FAA146"/>
<path d="M205.826 221.352L212.744 208.265L217.405 211.504L205.826 221.352Z" fill="#FAA146"/>
<path d="M91.4877 240.98H86.016C85.7775 240.98 85.584 240.786 85.584 240.548C85.584 240.31 85.7775 240.116 86.016 240.116H91.4877C91.7262 240.116 91.9197 240.31 91.9197 240.548C91.9197 240.786 91.7262 240.98 91.4877 240.98Z" fill="#FAA146"/>
<path d="M82.3789 240.98H54.9711C54.7326 240.98 54.5391 240.786 54.5391 240.548C54.5391 240.31 54.7326 240.116 54.9711 240.116H82.3789C82.6173 240.116 82.8109 240.31 82.8109 240.548C82.8109 240.786 82.6173 240.98 82.3789 240.98Z" fill="#FAA146"/>
<path d="M179.584 290.976C179.48 290.976 179.375 290.938 179.292 290.862C179.116 290.7 179.105 290.427 179.267 290.251L181.828 287.468C181.99 287.294 182.264 287.283 182.438 287.443C182.614 287.606 182.625 287.879 182.463 288.054L179.902 290.837C179.818 290.93 179.701 290.976 179.584 290.976Z" fill="#FAA146"/>
<path d="M156.162 313.12C156.003 313.12 155.852 313.032 155.776 312.883C155.668 312.67 155.754 312.41 155.966 312.302C163.973 308.248 176.662 293.097 176.79 292.944C176.942 292.761 177.214 292.735 177.398 292.889C177.581 293.042 177.606 293.314 177.452 293.497C176.929 294.126 164.521 308.938 156.357 313.074C156.294 313.105 156.227 313.12 156.162 313.12Z" fill="#FAA146"/>
<path d="M218.337 308.388L224.499 303.282L208.969 288.542L202.34 294.198L218.337 308.388Z" fill="#CB7A63"/>
<path d="M229.499 301.313C229.079 301.058 228.237 301.178 227.362 301.419C226.945 301.537 226.519 301.68 226.134 301.82C225.833 301.928 225.553 302.042 225.322 302.138C224.977 302.286 224.723 302.398 224.638 302.44C224.556 302.461 224.505 302.539 224.499 302.621C224.493 302.652 224.508 302.685 224.524 302.709C224.553 302.751 224.594 302.785 224.647 302.8C225.522 303.033 226.417 303.181 227.321 303.253C227.766 303.316 228.219 303.277 228.642 303.154C228.664 303.148 228.686 303.141 228.702 303.14C228.945 303.061 229.181 302.961 229.404 302.826C229.692 302.595 229.848 302.235 229.814 301.865C229.81 301.642 229.694 301.433 229.499 301.313ZM229.413 301.878C229.454 302.13 229.345 302.379 229.14 302.527C228.979 302.663 228.744 302.754 228.443 302.811C228.152 302.87 227.796 302.886 227.39 302.866C226.915 302.849 226.359 302.775 225.748 302.659C225.617 302.634 225.477 302.608 225.343 302.578C226.079 302.224 226.85 301.96 227.642 301.777C228.065 301.68 228.488 301.61 228.921 301.567C229.051 301.566 229.175 301.595 229.289 301.657C229.366 301.709 229.414 301.79 229.413 301.878Z" fill="#FAA146"/>
<path d="M226.672 298.066C226.271 298.13 225.916 298.364 225.692 298.701C225.621 298.802 225.564 298.91 225.516 299.031C225 300.142 225.268 301.827 225.323 302.138C225.329 302.159 225.331 302.176 225.335 302.182C225.348 302.252 225.395 302.307 225.463 302.33C225.501 302.348 225.541 302.355 225.585 302.343C225.611 302.343 225.635 302.327 225.66 302.3C225.807 302.182 225.962 302.015 226.134 301.819C226.381 301.528 226.641 301.167 226.869 300.785C227.401 299.916 227.784 298.93 227.548 298.419C227.455 298.204 227.229 297.975 226.672 298.066ZM227.187 298.579C227.337 298.913 227.046 299.688 226.612 300.447C226.329 300.928 225.996 301.4 225.672 301.743C225.604 301.196 225.535 300.161 225.799 299.396C225.853 299.22 225.929 299.063 226.022 298.93C226.165 298.718 226.378 298.555 226.619 298.487L226.736 298.468C227.102 298.402 227.169 298.539 227.187 298.579Z" fill="#FAA146"/>
<path d="M223.702 302.916L215.961 306.822C215.654 306.965 215.499 307.312 215.596 307.636L217.878 314.88C218.13 315.59 218.909 315.961 219.619 315.71C219.665 315.694 219.71 315.675 219.754 315.654C233.014 310.993 237.081 307.698 238.464 306.944C242.41 304.791 240.194 301.991 238.72 302.34C232.107 303.924 229.888 303.514 227.026 302.777C225.513 302.538 224.167 302.685 223.702 302.916Z" fill="#263238"/>
<path opacity="0.2" d="M208.971 288.549L216.834 295.521L210.205 301.177L202.341 294.205L208.971 288.549Z" fill="black"/>
<path d="M206.524 301.124L216.417 292.002L214.24 288.177L202.798 298.002L206.524 301.124Z" fill="#FAA146"/>
<path opacity="0.5" d="M206.524 301.124L216.417 292.002L214.24 288.177L202.798 298.002L206.524 301.124Z" fill="white"/>
<path d="M212.679 289.519L211.354 290.658L209.373 292.36L208.192 293.366L204.743 296.331L204.081 296.896C204.081 296.896 189.985 288.955 182.144 282.176C176.771 277.53 176.289 275.801 175.72 276.233C168.142 281.998 145.711 301.921 132.999 312.288C132.586 312.334 132.175 312.371 131.759 312.401C124.968 312.899 119.625 312.154 115.483 310.574C115.44 305.061 120.157 292.189 120.547 290.945C120.547 290.945 139.305 272.303 169.694 256.544C169.993 256.39 170.307 256.266 170.612 256.136C171.008 255.962 171.403 255.798 171.803 255.655C173.39 255.052 174.949 254.677 176.462 254.605C177.819 254.535 179.137 254.778 180.412 255.227C181.133 255.477 181.836 255.791 182.52 256.154C183.121 256.46 183.708 256.809 184.282 257.177C185.222 257.775 186.129 258.438 186.991 259.099C188.929 260.595 203.607 279.511 211.5 288.237C211.504 288.244 211.504 288.243 211.504 288.243C211.916 288.695 212.307 289.127 212.679 289.519Z" fill="#FAA146"/>
<g opacity="0.1">
<path d="M212.679 289.519L211.354 290.658L209.373 292.36L208.192 293.366L204.743 296.331L204.081 296.896C204.081 296.896 189.985 288.955 182.144 282.176C176.771 277.53 176.289 275.801 175.72 276.233C168.142 281.998 145.711 301.921 132.999 312.288C132.586 312.334 132.175 312.371 131.759 312.401C124.968 312.899 119.625 312.154 115.483 310.574C115.44 305.061 120.157 292.189 120.547 290.945C120.547 290.945 139.305 272.303 169.694 256.544C169.993 256.39 170.307 256.266 170.612 256.136C171.008 255.962 171.403 255.798 171.803 255.655C173.39 255.052 174.949 254.677 176.462 254.605C177.819 254.535 179.137 254.778 180.412 255.227C181.133 255.477 181.836 255.791 182.52 256.154C183.121 256.46 183.708 256.809 184.282 257.177C185.222 257.775 186.129 258.438 186.991 259.099C188.929 260.595 203.607 279.511 211.5 288.237C211.504 288.244 211.504 288.243 211.504 288.243C211.916 288.695 212.307 289.127 212.679 289.519Z" fill="black"/>
</g>
<path d="M112.592 209.922C113.778 215.303 115.024 223.155 111.329 226.851C115.913 234.919 121.415 242.428 127.728 249.229C135.823 235.155 128.147 226.456 128.147 226.456C122.079 225.158 122.177 222.713 123.129 218.501L112.592 209.922Z" fill="#CB7A63"/>
<path d="M107.577 227.534C108.026 226.077 108.951 224.812 110.205 223.944C111.418 223.014 123.995 222.875 127.264 223.946C129.175 224.551 130.8 225.832 131.834 227.55L107.577 227.534Z" fill="#FAA146"/>
<path d="M165.609 248.959L168.863 247.476L169.023 252.781C169.023 252.781 167.501 254.14 165.837 254.654C164.24 255.146 162.721 253.677 163.115 252.053C163.439 250.703 164.356 249.565 165.609 248.959Z" fill="#CB7A63"/>
<path d="M173.023 248.974L172.853 250.919C172.805 251.519 172.371 252.022 171.782 252.154L168.998 252.78L168.837 247.474L171.663 247.515C172.413 247.505 173.024 248.105 173.027 248.856C173.028 248.895 173.026 248.935 173.023 248.974Z" fill="#CB7A63"/>
<path d="M124.308 264.051C129.203 266.463 135.193 267.846 141.075 266.854C148.005 265.685 160.078 258.735 165.327 254.744L163.559 252.105C160.936 252.665 139.545 263.537 125.728 253.702C123.154 251.87 113.041 244.326 109.468 244.487C103.674 244.749 104.173 250.822 106.663 253.347C109.578 256.304 120.306 262.079 124.308 264.051Z" fill="#CB7A63"/>
<g opacity="0.2">
<path d="M172.855 250.919C172.805 251.517 172.375 252.025 171.785 252.152L169.024 252.776L169.023 252.783C169.023 252.783 167.503 254.143 165.84 254.655C165.664 254.708 165.499 254.74 165.33 254.744L165.323 254.75C160.069 258.742 148.005 265.686 141.08 266.854C135.196 267.844 129.202 266.465 124.313 264.049C120.309 262.078 109.577 256.3 106.661 253.347C104.176 250.819 103.675 244.75 109.468 244.484C113.038 244.329 123.151 251.87 125.732 253.704C138.914 263.077 158.975 253.629 163.081 252.245C163.092 252.181 163.101 252.117 163.119 252.054C163.283 251.379 163.585 250.755 164.019 250.225C164.437 249.7 164.987 249.261 165.611 248.957L168.834 247.485L168.865 247.476L171.669 247.514C172.414 247.507 173.028 248.106 173.027 248.858C173.029 248.895 173.03 248.931 173.023 248.975L172.855 250.919Z" fill="black"/>
<path d="M168.863 247.476L168.832 247.486L168.835 247.472L168.863 247.476Z" fill="black"/>
</g>
<path d="M142.42 236.219C149.76 252.384 132.744 257.003 140.538 283.509L103.557 284.398C103.804 270.191 108.854 273.244 102.197 246.535C101.634 244.273 100.697 237.783 103.107 231.873C104.046 229.574 105.72 227.621 107.905 226.441C110.636 224.965 122.662 226.118 128.151 226.486C134.093 225.645 141.337 234.197 142.42 236.219Z" fill="#FAA146"/>
<path opacity="0.5" d="M142.42 236.219C149.76 252.384 132.744 257.003 140.538 283.509L103.557 284.398C103.804 270.191 108.854 273.244 102.197 246.535C101.634 244.273 100.697 237.783 103.107 231.873C104.046 229.574 105.72 227.621 107.905 226.441C110.636 224.965 122.662 226.118 128.151 226.486C134.093 225.645 141.337 234.197 142.42 236.219Z" fill="white"/>
<path d="M135.354 204.146C135.247 204.854 135.538 205.43 135.98 205.492C136.421 205.554 136.865 205.062 136.967 204.381C137.069 203.7 136.783 203.097 136.341 203.035C135.9 202.973 135.454 203.471 135.354 204.146Z" fill="#263238"/>
<path d="M136.141 203.044L137.838 202.809C137.838 202.809 136.813 203.963 136.141 203.044Z" fill="#263238"/>
<path d="M135.469 205.08C135.469 205.08 136.193 208.17 137.266 209.755C136.246 210.463 134.775 209.856 134.775 209.856L135.469 205.08Z" fill="#A02724"/>
<path d="M137.802 199.393C137.935 199.34 138.03 199.222 138.053 199.08C138.083 198.86 137.933 198.655 137.713 198.619C136.433 198.395 135.123 198.807 134.202 199.725C134.038 199.876 134.028 200.132 134.179 200.296C134.33 200.46 134.586 200.47 134.75 200.318C134.769 200.3 134.787 200.281 134.802 200.26C135.544 199.549 136.58 199.237 137.59 199.42C137.662 199.432 137.736 199.422 137.802 199.393Z" fill="#263238"/>
<path d="M112.974 198.551C112.278 206.971 111.798 210.52 115.389 215.418C120.796 222.786 131.308 221.817 134.494 213.768C137.382 206.525 138.042 193.971 130.358 189.463C124.882 186.213 117.809 188.017 114.558 193.493C113.645 195.032 113.102 196.764 112.974 198.551Z" fill="#CB7A63"/>
<path d="M134.69 213.258C134.055 212.719 133.567 212.01 133.292 211.199C133.268 211.109 133.319 211.014 133.412 210.984C133.502 210.96 133.597 211.011 133.62 211.101C133.875 211.8 134.287 212.413 134.817 212.904L134.69 213.258Z" fill="#263238"/>
<path d="M106.976 187.596C103.766 191.948 102.305 193.081 106.278 204.666C107.876 209.324 112.517 215.489 114.772 216.054C118.814 217.071 122.749 214.233 125.784 211.375C128.442 208.873 130.991 206.161 132.61 202.89C134.228 199.619 134.823 195.689 133.487 192.294C132.034 188.603 126.914 185.31 123.079 184.502C118.567 183.553 109.645 183.978 106.976 187.596Z" fill="#263238"/>
<path d="M132.164 203.612C132.164 203.612 133.174 205.352 131.897 206.646L131.923 204.335L132.164 203.612Z" fill="#263238"/>
<path d="M132.149 203.609C132.149 203.609 132.523 206.274 130.29 207.268L131.487 204.395L132.149 203.609Z" fill="#263238"/>
<path d="M117.311 215.075C117.311 215.075 114.86 216.186 115.215 218.604L117.002 216.055L117.311 215.075Z" fill="#263238"/>
<path d="M117.412 215.124C117.412 215.124 115.546 217.063 116.772 219.178L117.488 216.149L117.412 215.124Z" fill="#263238"/>
<path d="M135.529 200.132C136.404 199.23 137.288 198.317 137.933 197.237C138.577 196.158 138.972 194.881 138.777 193.64C138.525 192.034 137.319 190.706 135.907 189.902C134.496 189.098 132.882 188.735 131.295 188.382C130.515 188.209 129.646 188.048 128.961 188.458C128.299 188.854 128.012 189.691 128.05 190.461C128.089 191.231 128.394 191.958 128.674 192.676C129.771 195.485 130.459 198.366 130.992 201.326C131.261 202.818 131.056 203.808 132.527 203.233C133.518 202.845 134.773 200.911 135.529 200.132Z" fill="#263238"/>
<path d="M123.899 204.293C123.808 206.242 124.496 208.147 125.81 209.589C127.566 211.494 129.795 210.249 130.436 207.879C131.02 205.755 130.798 202.204 128.496 201.18C126.194 200.155 124.023 201.918 123.899 204.293Z" fill="#CB7A63"/>
<path d="M221.89 312.27L228.566 305.766L215.65 289.535L207.587 294.294L221.89 312.27Z" fill="#CB7A63"/>
<path d="M235.376 303.766C234.633 303.509 233.114 304.335 231.962 305.068C231.669 305.254 231.406 305.432 231.185 305.586L231.166 305.596C231.126 305.626 231.085 305.657 231.05 305.684C230.79 305.868 230.602 306.005 230.533 306.059C230.451 306.104 230.409 306.193 230.432 306.279C230.454 306.366 230.531 306.431 230.625 306.437C231.418 306.47 232.216 306.442 233.01 306.359C233.19 306.343 233.36 306.323 233.537 306.299C234.112 306.254 234.667 306.064 235.141 305.745C235.312 305.636 235.474 305.513 235.621 305.375C235.873 305.072 235.957 304.655 235.839 304.276C235.777 304.047 235.605 303.853 235.376 303.766ZM235.419 304.384C235.51 304.639 235.459 304.921 235.277 305.129C235.053 305.409 234.6 305.632 233.967 305.783C233.476 305.906 232.879 305.987 232.183 306.025C231.909 306.036 231.613 306.05 231.306 306.046C231.403 305.968 231.497 305.9 231.597 305.828C231.666 305.774 231.732 305.73 231.805 305.682C232.731 305.032 233.75 304.521 234.833 304.172C234.961 304.135 235.103 304.139 235.24 304.179C235.332 304.209 235.399 304.287 235.419 304.384Z" fill="#FAA146"/>
<path d="M231.669 301.007C231.262 301.165 230.946 301.488 230.788 301.887C230.242 303.215 231.049 305.264 231.184 305.585C231.182 305.594 231.182 305.594 231.191 305.598C231.192 305.614 231.195 305.62 231.199 305.626C231.231 305.7 231.297 305.745 231.368 305.755C231.414 305.763 231.459 305.755 231.5 305.74C231.529 305.733 231.557 305.709 231.57 305.686C231.579 305.673 231.585 305.669 231.595 305.656C231.714 305.499 231.842 305.297 231.962 305.067C232.602 303.868 233.194 301.864 232.674 301.171C232.52 300.968 232.235 300.779 231.669 301.007ZM231.455 305.091C231.219 304.406 230.81 302.961 231.184 302.055C231.284 301.803 231.469 301.586 231.713 301.46L231.83 301.404C232.202 301.257 232.298 301.386 232.328 301.426C232.706 301.934 232.129 303.98 231.455 305.091Z" fill="#FAA146"/>
<path opacity="0.2" d="M214.975 288.542L221.05 296.321L212.826 300.903L206.656 293.326L214.975 288.542Z" fill="black"/>
<path d="M103.225 281.573L102.373 284.927C102.247 285.192 102.564 285.443 102.985 285.433L141.067 284.531C141.4 284.518 141.671 284.349 141.687 284.138L140.734 280.621C140.76 280.396 140.458 280.206 140.095 280.215L103.833 281.281C103.594 281.265 103.362 281.376 103.225 281.573Z" fill="#263238"/>
<path d="M137.104 284.934L136.105 285.039C135.907 285.034 135.74 284.978 135.743 284.853L135.725 280.521C135.728 280.397 135.885 280.277 136.083 280.252L137.083 280.139C137.281 280.144 137.447 280.2 137.444 280.332L137.462 284.657C137.46 284.788 137.303 284.909 137.104 284.934Z" fill="#FAA146"/>
<path d="M123.477 285.109L122.477 285.214C122.279 285.209 122.119 285.154 122.116 285.028L122.104 280.696C122.108 280.572 122.265 280.451 122.463 280.428L123.456 280.314C123.654 280.32 123.82 280.375 123.817 280.507L123.835 284.832C123.839 284.979 123.675 285.085 123.477 285.109Z" fill="#FAA146"/>
<path d="M123.477 285.109L122.477 285.214C122.279 285.209 122.119 285.154 122.116 285.028L122.104 280.696C122.108 280.572 122.265 280.451 122.463 280.428L123.456 280.314C123.654 280.32 123.82 280.375 123.817 280.507L123.835 284.832C123.839 284.979 123.675 285.085 123.477 285.109Z" fill="#FAA146"/>
<path d="M220.079 292.023L218.393 292.974L218.386 292.981L215.488 294.617L212.886 296.073L212.878 296.08L210.211 297.587V297.594L209.187 298.17C209.187 298.17 208.956 298.004 208.545 297.702C208.386 297.594 208.206 297.464 207.997 297.305C207.363 296.829 206.476 296.166 205.445 295.345C205.445 295.345 205.445 295.345 205.445 295.338C200.074 291.092 190.508 282.743 187.66 275.153C185.822 277.344 183.616 280.099 181.093 283.141C170.229 296.247 153.346 314.745 133.045 317.153C132.634 317.211 132.223 317.247 131.805 317.283C125.022 317.867 119.673 317.189 115.513 315.661C104.981 311.804 102.047 302.548 102.767 294.675V294.647C102.832 290.962 103.552 284.395 103.552 284.395L141.976 284.438C147.39 277.864 158.254 267.562 169.363 261.067C169.623 260.901 169.89 260.75 170.157 260.606C170.488 260.411 170.82 260.231 171.151 260.051C174.763 258.076 178.374 256.541 181.799 255.711C182.563 255.531 183.313 255.373 184.055 255.265C184.833 255.142 185.598 255.077 186.355 255.041V255.048C191.617 254.81 196.188 256.764 199.288 262.018L219.502 291.186L220.079 292.023Z" fill="#FAA146"/>
<path d="M199.346 252.095L156.883 253.849L158.126 226.834L200.588 225.08L199.346 252.095Z" fill="#FAA146"/>
<path d="M198.848 254.226L157.005 255.955C155.818 256.004 154.9 255.078 154.954 253.886L156.19 227.039C156.244 225.848 157.252 224.842 158.438 224.794L200.282 223.065C201.469 223.016 202.386 223.942 202.332 225.133L201.097 251.98C201.043 253.172 200.035 254.178 198.848 254.226Z" fill="#263238"/>
<path d="M199.346 252.095L156.883 253.849L158.126 226.834L200.588 225.08L199.346 252.095Z" fill="#FAA146"/>
<path opacity="0.9" d="M199.346 252.095L156.883 253.849L158.126 226.834L200.588 225.08L199.346 252.095Z" fill="white"/>
<path opacity="0.1" d="M173.196 224.199L166.183 255.563L168.973 255.448L175.894 224.088L173.196 224.199Z" fill="white"/>
<path opacity="0.1" d="M177.501 224.021L170.489 255.385L176.023 255.156L182.944 223.797L177.501 224.021Z" fill="white"/>
<path d="M185.563 254.563L199.694 254.166C199.937 255.805 199.237 256.422 198.336 256.445L193.817 256.56L190.797 256.625L186.106 256.758L156.998 257.609L156.767 255.559L185.563 254.563Z" fill="#FAA146"/>
<path d="M185.563 254.563L199.694 254.166C199.938 255.805 199.237 256.422 198.337 256.445L193.817 256.56L190.797 256.625L186.107 256.758L150.075 257.863C149.662 257.876 149.28 257.644 149.102 257.271C148.778 256.592 149.256 255.806 150.007 255.78L185.563 254.563Z" fill="#FAA146"/>
<path opacity="0.2" d="M185.563 254.563L199.694 254.166C199.938 255.805 199.237 256.422 198.337 256.445L193.817 256.56L190.797 256.625L186.107 256.758L150.075 257.863C149.662 257.876 149.28 257.644 149.102 257.271C148.778 256.592 149.256 255.806 150.007 255.78L185.563 254.563Z" fill="black"/>
<path opacity="0.2" d="M199.695 254.166L199.78 254.737C199.911 255.621 199.238 256.422 198.338 256.445L193.818 256.56L185.428 256.86L185.563 254.564L199.695 254.166Z" fill="black"/>
<path opacity="0.2" d="M126.484 237.008C126.484 237.008 124.484 241.079 130.251 251.828L132.662 256.211C133.457 257.656 138.74 254.711 140.317 252C140.317 252 130.209 245.938 126.484 237.008Z" fill="black"/>
<path d="M175.357 249.539L179.378 248.355L178.733 254.564C178.733 254.564 173.128 258.313 171.186 254.729L171.967 252.727C172.557 251.206 173.803 250.035 175.357 249.539Z" fill="#CB7A63"/>
<path d="M183.989 250.797L183.485 253.034C183.336 253.727 182.751 254.239 182.045 254.295L178.704 254.558L179.35 248.35L182.634 248.871C183.509 248.985 184.127 249.786 184.013 250.661C184.006 250.706 183.999 250.752 183.989 250.797Z" fill="#CB7A63"/>
<path d="M141.906 260.041C144.708 263.841 148.648 267.016 153.282 267.922C158.741 268.99 169.245 261.267 174.178 256.268C173.929 254.159 174.071 253.02 171.967 252.726C171.967 252.726 166.546 256.7 156.32 259.085C153.018 259.856 150.815 256.478 147.933 251.563C146.496 249.113 141.848 239.057 140.098 236.82C137.285 233.225 129.279 235.804 132.457 244.449C133.795 248.087 139.615 256.933 141.906 260.041Z" fill="#CB7A63"/>
<path d="M138.911 230.937C144.595 236.154 147.358 245.382 147.358 245.382L134.091 253.469C134.091 253.469 124.386 239.857 126.121 235.113C127.487 231.428 130.017 229.016 133.341 228.808C135.402 228.678 137.39 229.54 138.911 230.937Z" fill="#FAA146"/>
<path d="M108.486 285.633L107.481 285.657C107.284 285.635 107.123 285.564 107.138 285.434L107.503 281.124C107.519 280.993 107.685 280.887 107.885 280.88L108.891 280.856C109.087 280.879 109.248 280.956 109.234 281.08L108.867 285.397C108.853 285.528 108.683 285.656 108.486 285.633Z" fill="#FAA146"/>
<path d="M207.556 300.009L220.487 293.545L219.381 288.947L204.642 295.674L207.556 300.009Z" fill="#FAA146"/>
<path opacity="0.5" d="M207.556 300.009L220.487 293.545L219.381 288.947L204.642 295.674L207.556 300.009Z" fill="white"/>
<path d="M228.046 305.058L219.132 307.758C218.781 307.854 218.552 308.191 218.595 308.553L219.669 316.641C219.804 317.44 220.56 317.977 221.358 317.842C221.41 317.834 221.461 317.822 221.511 317.808C236.406 315.329 241.32 312.595 242.924 312.053C247.498 310.504 245.671 307.132 244.047 307.228C236.755 307.68 234.481 306.835 231.591 305.525C230.033 304.993 228.581 304.9 228.046 305.058Z" fill="#263238"/>
<path d="M108.149 198.453C105.472 198.875 102.818 196.82 101.98 194.243C101.142 191.665 101.836 188.788 103.209 186.452C104.225 184.728 110.849 180.627 113.306 185.241C118.196 194.42 108.149 198.453 108.149 198.453Z" fill="#263238"/>
<path d="M198.965 234.341L172.829 235.452L172.945 232.86L199.081 231.748L198.965 234.341Z" fill="#FAA146"/>
<g opacity="0.7">
<path d="M198.965 234.341L172.829 235.452L172.945 232.86L199.081 231.748L198.965 234.341Z" fill="white"/>
</g>
<path d="M198.804 237.94L172.668 239.052L172.784 236.459L198.92 235.347L198.804 237.94Z" fill="#2099FF"/>
<g opacity="0.7">
<path d="M198.804 237.94L172.668 239.052L172.784 236.459L198.92 235.347L198.804 237.94Z" fill="#2099FF"/>
</g>
<path d="M198.643 241.538L172.507 242.65L172.623 240.058L198.759 238.946L198.643 241.538Z" fill="#FAA146"/>
<g opacity="0.7">
<path d="M198.643 241.538L172.507 242.65L172.623 240.058L198.759 238.946L198.643 241.538Z" fill="white"/>
</g>
<path d="M198.481 245.138L172.346 246.25L172.461 243.657L198.597 242.545L198.481 245.138Z" fill="#FAA146"/>
<g opacity="0.7">
<path d="M198.481 245.138L172.346 246.25L172.461 243.657L198.597 242.545L198.481 245.138Z" fill="white"/>
</g>
<path d="M198.321 248.736L172.185 249.848L172.3 247.255L198.436 246.143L198.321 248.736Z" fill="#2099FF"/>
<g opacity="0.7">
<path d="M198.321 248.736L172.185 249.848L172.3 247.255L198.436 246.143L198.321 248.736Z" fill="#2099FF"/>
</g>
<path d="M162.278 236.907L160.182 236.998L160.219 237.862L162.315 237.771L162.278 236.907Z" fill="#FAA146"/>
<g opacity="0.5">
<path d="M162.278 236.907L160.182 236.998L160.219 237.862L162.315 237.771L162.278 236.907Z" fill="white"/>
</g>
<path d="M162.179 239.4L160.082 239.49L160.119 240.354L162.216 240.264L162.179 239.4Z" fill="#FAA146"/>
<g opacity="0.5">
<path d="M162.179 239.4L160.082 239.49L160.119 240.354L162.216 240.264L162.179 239.4Z" fill="white"/>
</g>
<path d="M162.079 241.892L159.983 241.982L160.021 242.846L162.116 242.756L162.079 241.892Z" fill="#FAA146"/>
<g opacity="0.5">
<path d="M162.079 241.892L159.983 241.982L160.021 242.846L162.116 242.756L162.079 241.892Z" fill="white"/>
</g>
<path d="M161.982 244.385L159.886 244.476L159.923 245.34L162.019 245.249L161.982 244.385Z" fill="#FAA146"/>
<g opacity="0.5">
<path d="M161.982 244.385L159.886 244.476L159.923 245.34L162.019 245.249L161.982 244.385Z" fill="white"/>
</g>
<path d="M161.882 246.876L159.786 246.966L159.823 247.83L161.919 247.74L161.882 246.876Z" fill="#FAA146"/>
<g opacity="0.5">
<path d="M159.81 247.832L159.889 246.963L161.984 246.873L161.906 247.742L159.81 247.832Z" fill="white"/>
</g>
<path d="M161.778 249.363L159.682 249.451L159.718 250.315L161.815 250.227L161.778 249.363Z" fill="#FAA146"/>
<g opacity="0.5">
<path d="M161.778 249.363L159.682 249.451L159.718 250.315L161.815 250.227L161.778 249.363Z" fill="white"/>
</g>
<path d="M164.451 234.523L160.115 236.136L160.163 234.997L162.563 234.61L160.185 234.444L160.232 233.305L164.451 234.523Z" fill="#2099FF"/>
<path d="M190.939 230.401L172.829 231.172L172.909 229.376L191.019 228.605L190.939 230.401Z" fill="#FAA146"/>
<g opacity="0.7">
<path d="M190.939 230.401L172.829 231.172L172.909 229.376L191.019 228.605L190.939 230.401Z" fill="white"/>
</g>
<path d="M166.505 231.33L163.85 231.449L164.923 230.766L165.216 231.036L165.534 230.758L166.505 231.33Z" fill="#FAA146"/>
<path d="M164.814 230.683L163.741 231.366L163.821 229.785L164.814 230.683Z" fill="#FAA146"/>
<path d="M166.671 229.734L166.584 231.237L165.614 230.665L166.671 229.734Z" fill="#FAA146"/>
<path d="M165.253 230.399L165.194 230.462L165.203 230.469L165.261 230.407L165.253 230.399Z" fill="white"/>
<path d="M165.201 230.418L165.192 230.426L165.251 230.488L165.259 230.48L165.201 230.418Z" fill="white"/>
<path d="M166.671 229.586L165.534 230.622L165.216 230.9L164.923 230.63L163.929 229.732L163.85 229.66L166.671 229.586Z" fill="#FAA146"/>
<path d="M162.287 229.867L160.19 229.956L160.201 230.214L162.298 230.125L162.287 229.867Z" fill="#FAA146"/>
<path d="M162.29 230.525L160.193 230.615L160.204 230.873L162.301 230.783L162.29 230.525Z" fill="#FAA146"/>
<path d="M162.287 231.189L160.19 231.278L160.201 231.536L162.298 231.447L162.287 231.189Z" fill="#FAA146"/>
<path d="M284.001 99.9451H271.416C270.275 99.9451 269.35 99.0198 269.35 97.8785C269.35 96.7371 270.275 95.8118 271.416 95.8118H284.001C285.143 95.8118 286.068 96.7371 286.068 97.8785C286.068 99.0198 285.143 99.9451 284.001 99.9451Z" fill="#B84343"/>
<g opacity="0.7">
<path d="M284.001 99.9451H271.416C270.275 99.9451 269.35 99.0198 269.35 97.8785C269.35 96.7371 270.275 95.8118 271.416 95.8118H284.001C285.143 95.8118 286.068 96.7371 286.068 97.8785C286.068 99.0198 285.143 99.9451 284.001 99.9451Z" fill="white"/>
</g>
<path d="M330.184 142.377L281.926 231.195C281.305 232.339 279.874 232.762 278.73 232.141L196.603 187.518C195.459 186.896 195.036 185.466 195.658 184.322L258.428 68.7963C259.05 67.6523 260.48 67.229 261.624 67.851L316.96 97.9174L330.184 142.377Z" fill="#B84343"/>
<g opacity="0.2">
<path d="M330.184 142.377L281.926 231.195C281.305 232.339 279.874 232.762 278.73 232.141L196.603 187.518C195.459 186.896 195.036 185.466 195.658 184.322L258.428 68.7963C259.05 67.6523 260.48 67.229 261.624 67.851L316.96 97.9174L330.184 142.377Z" fill="white"/>
</g>
<path d="M303.106 162.311L241.774 129.223L239.722 133.027L301.055 166.115L303.106 162.311Z" fill="#B84343"/>
<path d="M294.725 177.847L233.393 144.76L231.34 148.564L292.672 181.652L294.725 177.847Z" fill="#B84343"/>
<path d="M286.344 193.383L225.012 160.296L222.959 164.1L284.291 197.188L286.344 193.383Z" fill="#B84343"/>
<path d="M317.039 97.8784L302.483 124.668C301.861 125.812 302.285 127.243 303.428 127.864L330.136 142.376L317.039 97.8784Z" fill="#B84343"/>
<path opacity="0.7" d="M317.039 97.8784L302.483 124.668C301.861 125.812 302.285 127.243 303.428 127.864L330.136 142.376L317.039 97.8784Z" fill="white"/>
<path d="M342.77 139.391L294.51 228.208C293.889 229.352 292.458 229.776 291.314 229.155L209.187 184.532C208.043 183.91 207.62 182.48 208.241 181.336L271.012 65.8102C271.633 64.6662 273.064 64.2429 274.208 64.865L329.543 94.9313L342.77 139.391Z" fill="#B84343"/>
<g opacity="0.5">
<path d="M342.77 139.391L294.51 228.208C293.889 229.352 292.458 229.776 291.314 229.155L209.187 184.532C208.043 183.91 207.62 182.48 208.241 181.336L271.012 65.8102C271.633 64.6662 273.064 64.2429 274.208 64.865L329.543 94.9313L342.77 139.391Z" fill="white"/>
</g>
<path d="M314.056 158.438L255.997 127.117C255.094 126.63 253.965 126.967 253.478 127.87L253.192 128.401C252.705 129.305 253.042 130.433 253.945 130.92L312.004 162.241C312.907 162.729 314.036 162.392 314.523 161.488L314.81 160.957C315.298 160.054 314.96 158.926 314.056 158.438Z" fill="#B84343"/>
<path d="M305.675 173.974L247.616 142.653C246.712 142.166 245.584 142.503 245.096 143.407L244.811 143.937C244.322 144.841 244.66 145.969 245.564 146.457L303.623 177.778C304.527 178.265 305.655 177.928 306.142 177.024L306.428 176.494C306.917 175.59 306.58 174.462 305.675 173.974Z" fill="#B84343"/>
<path d="M297.294 189.511L239.235 158.19C238.331 157.703 237.203 158.04 236.715 158.943L236.429 159.474C235.942 160.378 236.279 161.506 237.183 161.993L295.242 193.314C296.146 193.802 297.274 193.465 297.761 192.561L298.047 192.03C298.534 191.127 298.198 189.999 297.294 189.511Z" fill="#B84343"/>
<path d="M329.625 94.8923L315.068 121.682C314.447 122.826 314.871 124.257 316.015 124.878L342.723 139.39L329.625 94.8923Z" fill="#B84343"/>
<path opacity="0.7" d="M329.625 94.8923L315.068 121.682C314.447 122.826 314.871 124.257 316.015 124.878L342.723 139.39L329.625 94.8923Z" fill="white"/>
<path d="M326.291 54.1694L330.349 72.2003C314.968 76.4243 301.173 91.6437 291.242 106.025C287.323 111.699 284.008 118.298 281.529 125.268C281.529 125.268 312.542 97.2182 329.638 95.5723L328.825 125.379C328.825 125.379 346.555 90.8411 380.99 78.2007C380.99 78.2007 352.147 57.431 326.291 54.1694Z" fill="#B84343"/>
<path d="M117.084 251.167L124.92 340.741H112.291L103.858 244.351H109.645C113.517 244.351 116.747 247.311 117.084 251.167Z" fill="#FAA146"/>
<path opacity="0.2" d="M117.154 251.976L124.92 340.741H112.291L103.858 244.351H108.834C113.165 244.351 116.777 247.661 117.154 251.976Z" fill="black"/>
<path d="M108.874 250.187L116.797 340.741H41.5961L33.7709 251.301C33.4443 247.565 36.3888 244.351 40.1394 244.351H102.506C105.821 244.351 108.585 246.885 108.874 250.187Z" fill="#FAA146"/>
<path opacity="0.2" d="M108.96 251.172L116.797 340.741H41.5961L33.8737 252.474C33.4918 248.107 36.9331 244.351 41.3171 244.351H101.518C105.391 244.351 108.623 247.312 108.96 251.172Z" fill="white"/>
<path d="M241.222 340.742H41.9396L39.7666 315.904H231.061C235.473 315.904 239.363 319.48 239.748 323.892L241.222 340.742Z" fill="#FAA146"/>
<path opacity="0.2" d="M241.222 340.742H41.9396L39.7666 315.904H231.061C235.473 315.904 239.363 319.48 239.748 323.892L241.222 340.742Z" fill="white"/>
<path d="M250.358 350.253H39.5963C36.8626 350.253 34.6465 348.037 34.6465 345.303C34.6465 342.569 36.8626 340.353 39.5963 340.353H250.357C253.091 340.353 255.307 342.569 255.307 345.303C255.307 348.037 253.092 350.253 250.358 350.253Z" fill="#FAA146"/>
<path opacity="0.2" d="M250.359 350.253H128.008C125.275 350.253 123.059 348.037 123.059 345.303C123.059 342.569 125.275 340.353 128.008 340.353H250.358C253.091 340.353 255.308 342.569 255.308 345.303C255.308 348.037 253.092 350.253 250.359 350.253Z" fill="black"/>
<path d="M42.3604 350.253L44.8582 358.753H49.8538L52.6013 350.253H42.3604Z" fill="#263238"/>
<path opacity="0.5" d="M42.3604 350.253L44.8582 358.753H49.8538L52.6013 350.253H42.3604Z" fill="white"/>
<path d="M113.927 350.253L116.425 358.753H121.421L124.169 350.253H113.927Z" fill="#263238"/>
<path opacity="0.5" d="M113.927 350.253L116.425 358.753H121.421L124.169 350.253H113.927Z" fill="white"/>
<path d="M168.703 350.253L171.201 358.753H176.197L178.944 350.253H168.703Z" fill="#263238"/>
<path opacity="0.5" d="M168.703 350.253L171.201 358.753H176.197L178.944 350.253H168.703Z" fill="white"/>
<path d="M240.27 350.253L242.767 358.753H247.763L250.511 350.253H240.27Z" fill="#263238"/>
<path opacity="0.5" d="M240.27 350.253L242.767 358.753H247.763L250.511 350.253H240.27Z" fill="white"/>
<defs>
<linearGradient id="paint0_linear_174_1223" x1="48.4795" y1="359.159" x2="383.52" y2="359.159" gradientUnits="userSpaceOnUse">
<stop stop-color="#1A2257"/>
<stop offset="1" stop-color="#384ABD"/>
</linearGradient>
</defs>
</svg>
