<svg width="397" height="398" viewBox="0 0 397 398" fill="none" xmlns="http://www.w3.org/2000/svg">
<path d="M344.256 268.348C344.256 268.348 423.163 145.412 386.801 66.794C350.439 -11.824 263.652 -12.273 233.649 20.584C215.311 40.667 220.656 74.211 177.243 87.188C150.686 95.126 131.353 82.398 91.7626 68.595C52.1726 54.792 6.20861 84.799 0.560615 132.712C-5.77839 186.49 43.1716 214.603 70.0426 233.961C96.9136 253.319 83.3046 285.427 94.4446 315.495C105.585 345.563 285.26 377.481 344.256 268.348Z" fill="#D5FAF6"/>
<path d="M383.296 132.712C383.296 132.712 389.299 63.2271 344.255 28.686C305.516 -1.02095 266.791 13.383 254.603 26.435C242.415 39.488 255.751 55.241 289.418 52.991C323.085 50.741 374.144 73.9961 383.296 132.712Z" fill="white"/>
<path d="M168.772 398C192.471 398 211.683 393.847 211.683 388.724C211.683 383.601 192.471 379.448 168.772 379.448C145.073 379.448 125.861 383.601 125.861 388.724C125.861 393.847 145.073 398 168.772 398Z" fill="url(#paint0_linear_174_522)"/>
<path d="M321.01 388.724C344.709 388.724 363.921 384.571 363.921 379.448C363.921 374.325 344.709 370.172 321.01 370.172C297.311 370.172 278.099 374.325 278.099 379.448C278.099 384.571 297.311 388.724 321.01 388.724Z" fill="url(#paint1_linear_174_522)"/>
<path d="M252.739 379.448C314.236 379.448 364.09 375.295 364.09 370.172C364.09 365.049 314.236 360.896 252.739 360.896C191.241 360.896 141.388 365.049 141.388 370.172C141.388 375.295 191.241 379.448 252.739 379.448Z" fill="url(#paint2_linear_174_522)"/>
<path d="M117.561 373.134C179.058 373.134 228.912 368.981 228.912 363.858C228.912 358.735 179.058 354.582 117.561 354.582C56.0635 354.582 6.20996 358.735 6.20996 363.858C6.20996 368.981 56.0635 373.134 117.561 373.134Z" fill="url(#paint3_linear_174_522)"/>
<path d="M91.3793 252.333C130.439 252.333 162.103 220.669 162.103 181.609C162.103 142.549 130.439 110.885 91.3793 110.885C52.3195 110.885 20.6553 142.549 20.6553 181.609C20.6553 220.669 52.3195 252.333 91.3793 252.333Z" fill="#ACDAFF"/>
<path d="M91.3791 242.868C125.212 242.868 152.638 215.441 152.638 181.609C152.638 147.777 125.212 120.35 91.3791 120.35C57.5467 120.35 30.1201 147.777 30.1201 181.609C30.1201 215.441 57.5467 242.868 91.3791 242.868Z" fill="#E6FFFF"/>
<path opacity="0.57" d="M113.293 183.994C121.837 171.083 122.743 147.816 118.449 135.423C110.623 130.826 101.529 128.147 91.8005 128.07C62.2325 127.838 38.0735 151.619 37.8415 181.188C37.7745 189.739 39.7255 197.831 43.2345 205.029C43.6505 205.088 44.0915 205.05 44.4805 205.212C64.0355 213.365 97.2285 208.269 113.293 183.994Z" fill="#FFFAFF"/>
<path d="M91.7028 140.317C92.7328 140.325 93.5818 139.489 93.5898 138.459L93.6798 126.993C93.6878 125.963 92.8518 125.114 91.8218 125.106C90.7918 125.098 89.9428 125.934 89.9348 126.964L89.8448 138.43C89.8378 139.46 90.6728 140.309 91.7028 140.317Z" fill="#ACDAFF"/>
<path d="M90.9352 238.111C91.9652 238.119 92.8142 237.283 92.8222 236.253L92.9122 224.787C92.9202 223.757 92.0842 222.908 91.0542 222.9C90.0242 222.892 89.1752 223.728 89.1672 224.758L89.0772 236.224C89.0702 237.254 89.9052 238.103 90.9352 238.111Z" fill="#ACDAFF"/>
<path d="M132.671 181.933C132.663 182.963 133.499 183.812 134.529 183.82L145.995 183.91C147.025 183.918 147.874 183.082 147.882 182.052C147.89 181.022 147.054 180.173 146.024 180.165L134.558 180.075C133.528 180.068 132.679 180.903 132.671 181.933Z" fill="#ACDAFF"/>
<path d="M34.877 181.165C34.869 182.195 35.705 183.044 36.735 183.052L48.201 183.142C49.231 183.15 50.08 182.314 50.088 181.284C50.096 180.254 49.26 179.405 48.23 179.397L36.764 179.307C35.734 179.299 34.885 180.135 34.877 181.165Z" fill="#ACDAFF"/>
<path d="M116.851 140.152C117.884 140.152 118.723 139.314 118.723 138.28C118.723 137.246 117.884 136.408 116.851 136.408C115.817 136.408 114.979 137.246 114.979 138.28C114.979 139.314 115.817 140.152 116.851 140.152Z" fill="#ACDAFF"/>
<path d="M65.9072 226.809C66.941 226.809 67.7792 225.971 67.7792 224.937C67.7792 223.903 66.941 223.065 65.9072 223.065C64.8733 223.065 64.0352 223.903 64.0352 224.937C64.0352 225.971 64.8733 226.809 65.9072 226.809Z" fill="#ACDAFF"/>
<path d="M135.102 158.693C136.136 158.693 136.974 157.855 136.974 156.821C136.974 155.787 136.136 154.949 135.102 154.949C134.069 154.949 133.23 155.787 133.23 156.821C133.23 157.855 134.069 158.693 135.102 158.693Z" fill="#ACDAFF"/>
<path d="M47.6562 208.269C48.6901 208.269 49.5282 207.431 49.5282 206.397C49.5282 205.363 48.6901 204.525 47.6562 204.525C46.6223 204.525 45.7842 205.363 45.7842 206.397C45.7842 207.431 46.6223 208.269 47.6562 208.269Z" fill="#ACDAFF"/>
<path d="M134.708 208.952C135.742 208.952 136.58 208.114 136.58 207.08C136.58 206.046 135.742 205.208 134.708 205.208C133.674 205.208 132.836 206.046 132.836 207.08C132.836 208.114 133.674 208.952 134.708 208.952Z" fill="#ACDAFF"/>
<path d="M48.0497 158.009C49.0836 158.009 49.9217 157.171 49.9217 156.137C49.9217 155.103 49.0836 154.265 48.0497 154.265C47.0159 154.265 46.1777 155.103 46.1777 156.137C46.1777 157.171 47.0159 158.009 48.0497 158.009Z" fill="#ACDAFF"/>
<path d="M116.167 227.204C117.201 227.204 118.039 226.366 118.039 225.332C118.039 224.298 117.201 223.46 116.167 223.46C115.133 223.46 114.295 224.298 114.295 225.332C114.295 226.366 115.133 227.204 116.167 227.204Z" fill="#ACDAFF"/>
<path d="M66.5908 139.758C67.6246 139.758 68.4628 138.92 68.4628 137.886C68.4628 136.852 67.6246 136.014 66.5908 136.014C65.5569 136.014 64.7188 136.852 64.7188 137.886C64.7188 138.92 65.5569 139.758 66.5908 139.758Z" fill="#ACDAFF"/>
<path d="M110.388 167.53C115.988 165.345 142.121 154.104 142.121 154.104L142.217 154.283L142.407 154.637L142.503 154.816C142.503 154.816 118.718 170.424 113.809 173.892C108.9 177.36 91.4929 182.784 91.4929 182.784L91.1759 182.194L90.9859 181.84L90.6689 181.25C90.6689 181.25 104.789 169.715 110.388 167.53Z" fill="#B84343"/>
<path d="M73.6107 185.409C69.3247 184.745 48.9837 182.571 48.9837 182.571L48.9807 182.368L48.9747 181.966L48.9717 181.763C48.9717 181.763 69.2387 178.98 73.5027 178.187C77.7667 177.394 90.6427 180.671 90.6427 180.671L90.6527 181.341L90.6587 181.743L90.6687 182.413C90.6687 182.413 77.8967 186.074 73.6107 185.409Z" fill="#B84343"/>
<path d="M91.3798 185.354C93.4481 185.354 95.1248 183.677 95.1248 181.609C95.1248 179.541 93.4481 177.864 91.3798 177.864C89.3115 177.864 87.6348 179.541 87.6348 181.609C87.6348 183.677 89.3115 185.354 91.3798 185.354Z" fill="#ACDAFF"/>
<path d="M54.2028 258.088L37.5448 357.872C37.3528 359.021 38.2388 360.067 39.4038 360.067C40.2908 360.067 41.0578 359.449 41.2458 358.582L63.0558 258.088H54.2028Z" fill="#ACDAFF"/>
<path d="M70.3066 252.095L58.5696 352.577C58.4346 353.734 59.3706 354.736 60.5346 354.678C61.4206 354.634 62.1566 353.979 62.3016 353.104L79.1496 251.66L70.3066 252.095Z" fill="#ACDAFF"/>
<path d="M139.171 258.088L155.829 357.872C156.021 359.021 155.135 360.067 153.97 360.067C153.083 360.067 152.316 359.449 152.128 358.582L130.318 258.088H139.171Z" fill="#ACDAFF"/>
<path d="M123.068 252.095L134.806 352.577C134.941 353.734 134.005 354.736 132.841 354.678C131.955 354.634 131.219 353.979 131.074 353.104L114.226 251.66L123.068 252.095Z" fill="#ACDAFF"/>
<path d="M153.269 260.411H41.7857C39.2517 260.411 37.1777 258.337 37.1777 255.803C37.1777 253.269 39.2517 251.195 41.7857 251.195H153.269C155.803 251.195 157.877 253.269 157.877 255.803C157.877 258.338 155.803 260.411 153.269 260.411Z" fill="#2099FF"/>
<path d="M43.1604 337.403L42.8764 337.302C42.9104 337.208 46.2044 327.756 44.3074 316.569C42.5584 306.254 35.9064 292.306 14.1504 284.436L14.2524 284.152C23.9174 287.648 31.4534 292.622 36.6494 298.937C40.8094 303.992 43.4864 309.912 44.6064 316.53C46.5124 327.792 43.1934 337.308 43.1604 337.403Z" fill="#6CB7D8"/>
<path d="M17.206 285.456C17.206 285.456 11.485 286.32 8.53605 283.687C5.58605 281.055 10.612 279.784 17.206 285.456Z" fill="#6CB7D8"/>
<path d="M23.133 288.267C23.133 288.267 21.342 280.699 18.562 279.209C15.781 277.719 15.39 283.112 23.133 288.267Z" fill="#6CB7D8"/>
<path d="M22.2264 287.748C22.2264 287.748 14.5274 286.651 12.1244 288.695C9.72238 290.739 14.5994 293.072 22.2264 287.748Z" fill="#6CB7D8"/>
<path d="M26.9568 290.648C26.9568 290.648 19.2579 289.551 16.8549 291.595C14.4529 293.639 19.3298 295.973 26.9568 290.648Z" fill="#6CB7D8"/>
<path d="M31.7205 294.012C31.7205 294.012 24.0215 292.915 21.6185 294.959C19.2165 297.003 24.0935 299.336 31.7205 294.012Z" fill="#6CB7D8"/>
<path d="M36.3305 298.66C36.3305 298.66 28.7435 296.95 26.1855 298.795C23.6265 300.64 28.3015 303.357 36.3305 298.66Z" fill="#6CB7D8"/>
<path d="M40.5472 304.832C40.5472 304.832 33.4952 301.553 30.6042 302.814C27.7132 304.076 31.7062 307.721 40.5472 304.832Z" fill="#6CB7D8"/>
<path d="M43.6155 312.393C43.6155 312.393 37.9835 307.029 34.8405 307.299C31.6975 307.569 34.3135 312.3 43.6155 312.393Z" fill="#6CB7D8"/>
<path d="M44.9542 321.231C44.9542 321.231 41.4372 314.295 38.3842 313.499C35.3312 312.704 36.2172 318.038 44.9542 321.231Z" fill="#6CB7D8"/>
<path d="M44.613 329.912C44.613 329.912 42.785 322.353 39.998 320.877C37.211 319.401 36.845 324.794 44.613 329.912Z" fill="#6CB7D8"/>
<path d="M28.434 291.561C28.434 291.561 29.19 284.91 26.631 281.352C24.071 277.794 23.208 281.874 24.192 284.169C25.175 286.464 28.434 291.561 28.434 291.561Z" fill="#6CB7D8"/>
<path d="M32.3173 294.642C32.3173 294.642 34.1163 288.194 32.1513 284.276C30.1863 280.358 28.6893 284.25 29.2973 286.671C29.9053 289.092 32.3173 294.642 32.3173 294.642Z" fill="#6CB7D8"/>
<path d="M35.9301 298.273C35.9301 298.273 39.1742 292.418 38.1712 288.151C37.1682 283.884 34.8092 287.323 34.8392 289.82C34.8692 292.316 35.9301 298.273 35.9301 298.273Z" fill="#6CB7D8"/>
<path d="M39.4507 302.946C39.4507 302.946 42.6947 297.091 41.6917 292.824C40.6887 288.557 38.3297 291.996 38.3597 294.493C38.3907 296.989 39.4507 302.946 39.4507 302.946Z" fill="#6CB7D8"/>
<path d="M42.519 309.338C42.519 309.338 46.491 303.95 46.046 299.589C45.601 295.229 42.8189 298.335 42.5269 300.814C42.2359 303.295 42.519 309.338 42.519 309.338Z" fill="#6CB7D8"/>
<path d="M44.5898 317.827C44.5898 317.827 49.5128 313.291 49.9028 308.925C50.2938 304.559 46.9718 307.081 46.2158 309.46C45.4588 311.839 44.5898 317.827 44.5898 317.827Z" fill="#6CB7D8"/>
<path d="M44.9375 325.538C44.9375 325.538 50.6705 322.083 51.9315 317.885C53.1915 313.687 49.4315 315.49 48.2115 317.668C46.9915 319.847 44.9375 325.538 44.9375 325.538Z" fill="#6CB7D8"/>
<path d="M80.0947 322.523L80.3787 322.422C80.3447 322.328 77.0507 312.875 78.9477 301.689C80.6967 291.374 87.3487 277.426 109.105 269.556L109.003 269.272C99.3377 272.768 91.8017 277.742 86.6057 284.057C82.4457 289.112 79.7687 295.031 78.6487 301.65C76.7427 312.912 80.0607 322.428 80.0947 322.523Z" fill="#6CB7D8"/>
<path d="M106.049 270.576C106.049 270.576 111.77 271.44 114.719 268.807C117.669 266.176 112.643 264.904 106.049 270.576Z" fill="#6CB7D8"/>
<path d="M100.121 273.387C100.121 273.387 101.912 265.819 104.692 264.329C107.473 262.84 107.864 268.232 100.121 273.387Z" fill="#6CB7D8"/>
<path d="M101.028 272.868C101.028 272.868 108.727 271.771 111.13 273.815C113.532 275.859 108.655 278.193 101.028 272.868Z" fill="#6CB7D8"/>
<path d="M96.2979 275.768C96.2979 275.768 103.997 274.671 106.4 276.715C108.803 278.759 103.925 281.093 96.2979 275.768Z" fill="#6CB7D8"/>
<path d="M91.5342 279.132C91.5342 279.132 99.2332 278.035 101.636 280.079C104.039 282.123 99.1612 284.456 91.5342 279.132Z" fill="#6CB7D8"/>
<path d="M86.9248 283.78C86.9248 283.78 94.5118 282.07 97.0698 283.915C99.6288 285.761 94.9538 288.477 86.9248 283.78Z" fill="#6CB7D8"/>
<path d="M82.707 289.953C82.707 289.953 89.759 286.674 92.65 287.935C95.541 289.196 91.548 292.841 82.707 289.953Z" fill="#6CB7D8"/>
<path d="M79.6396 297.513C79.6396 297.513 85.2717 292.149 88.4147 292.419C91.5577 292.689 88.9416 297.42 79.6396 297.513Z" fill="#6CB7D8"/>
<path d="M78.3008 306.352C78.3008 306.352 81.8178 299.416 84.8708 298.62C87.9238 297.825 87.0378 303.158 78.3008 306.352Z" fill="#6CB7D8"/>
<path d="M78.6416 315.032C78.6416 315.032 80.4696 307.473 83.2566 305.997C86.0436 304.521 86.4096 309.915 78.6416 315.032Z" fill="#6CB7D8"/>
<path d="M94.8201 276.681C94.8201 276.681 94.0641 270.03 96.6231 266.472C99.1831 262.914 100.046 266.994 99.0621 269.289C98.0791 271.584 94.8201 276.681 94.8201 276.681Z" fill="#6CB7D8"/>
<path d="M90.9371 279.762C90.9371 279.762 89.1381 273.314 91.1031 269.396C93.0681 265.478 94.5651 269.37 93.9571 271.792C93.3491 274.213 90.9371 279.762 90.9371 279.762Z" fill="#6CB7D8"/>
<path d="M87.3241 283.393C87.3241 283.393 84.0801 277.538 85.0831 273.271C86.0861 269.004 88.4451 272.443 88.4151 274.94C88.3851 277.436 87.3241 283.393 87.3241 283.393Z" fill="#6CB7D8"/>
<path d="M83.8036 288.066C83.8036 288.066 80.5596 282.211 81.5626 277.944C82.5656 273.677 84.9246 277.116 84.8946 279.613C84.8636 282.109 83.8036 288.066 83.8036 288.066Z" fill="#6CB7D8"/>
<path d="M80.7356 294.459C80.7356 294.459 76.7636 289.071 77.2086 284.71C77.6536 280.35 80.4356 283.456 80.7276 285.935C81.0186 288.415 80.7356 294.459 80.7356 294.459Z" fill="#6CB7D8"/>
<path d="M78.6642 302.947C78.6642 302.947 73.7412 298.411 73.3512 294.045C72.9602 289.679 76.2822 292.201 77.0382 294.58C77.7952 296.96 78.6642 302.947 78.6642 302.947Z" fill="#6CB7D8"/>
<path d="M78.3174 310.659C78.3174 310.659 72.5844 307.204 71.3234 303.006C70.0624 298.808 73.8234 300.611 75.0434 302.789C76.2634 304.968 78.3174 310.659 78.3174 310.659Z" fill="#6CB7D8"/>
<path d="M46.9517 309.567C46.9517 309.567 40.2667 289.78 46.2837 284.097C52.3007 278.414 44.8337 270.349 46.6017 265.095C48.3707 259.842 54.8477 256.72 57.6727 266.358C60.4977 275.996 61.2977 276.294 68.3967 276.738C75.4957 277.182 74.9497 291.476 73.6947 298.052C72.4397 304.629 79.4116 294.24 81.5206 301.299C83.6297 308.358 73.4137 322.914 62.6687 330.501C51.9237 338.088 38.7817 316.511 39.6837 311.114C40.5867 305.718 44.5307 312.942 46.9517 309.567Z" fill="#82C4E8"/>
<path d="M47.8976 281.966C47.5246 282.704 47.0026 283.418 46.2836 284.098C40.2666 289.781 46.9516 309.568 46.9516 309.568C44.5306 312.943 40.5866 305.719 39.6846 311.115C38.7826 316.512 51.9236 338.088 62.6696 330.502C63.2466 330.095 63.8216 329.663 64.3936 329.218C63.1466 312.338 57.4466 296.158 47.8976 281.966Z" fill="#6CB7D8"/>
<path d="M59.0129 332.377C58.9049 332.496 58.7399 332.557 58.5709 332.525C58.3129 332.476 58.1439 332.226 58.1929 331.968C58.2439 331.699 63.1989 304.629 50.6799 265.389C50.5999 265.138 50.7379 264.87 50.9889 264.791C51.2399 264.711 51.5079 264.849 51.5869 265.1C64.1859 304.589 59.1799 331.877 59.1279 332.148C59.1099 332.236 59.0689 332.315 59.0129 332.377Z" fill="#98CFF4"/>
<path d="M54.4372 277.028L48.1052 271.926C47.9002 271.761 47.8682 271.462 48.0332 271.257C48.1982 271.056 48.4982 271.02 48.7022 271.185L54.1802 275.599L57.0672 270.761C57.2032 270.533 57.4942 270.461 57.7202 270.596C57.9462 270.731 58.0202 271.023 57.8852 271.249L54.4372 277.028Z" fill="#98CFF4"/>
<path d="M69.9206 280.907C69.9106 280.918 69.9006 280.929 69.8896 280.939L57.5706 292.209L47.7836 285.559C47.5666 285.411 47.5096 285.115 47.6576 284.898C47.8046 284.679 48.1016 284.624 48.3186 284.772L57.4826 290.998L69.2466 280.236C69.4406 280.059 69.7416 280.072 69.9196 280.266C70.0866 280.449 70.0846 280.727 69.9206 280.907Z" fill="#98CFF4"/>
<path d="M72.589 296.619C72.584 296.624 72.579 296.63 72.574 296.635L59.52 309.798L46.63 299.523C46.424 299.359 46.39 299.059 46.554 298.854C46.729 298.645 47.017 298.615 47.223 298.778L59.444 308.521L71.897 295.965C72.082 295.778 72.384 295.777 72.57 295.962C72.753 296.142 72.759 296.432 72.589 296.619Z" fill="#98CFF4"/>
<path d="M78.2044 305.897C78.2004 305.902 78.1954 305.907 78.1914 305.911L59.5524 324.848L43.5744 313.675C43.3594 313.524 43.3064 313.227 43.4564 313.012C43.6094 312.798 43.9044 312.744 44.1194 312.894L59.4384 323.606L77.5134 305.242C77.6974 305.055 77.9994 305.052 78.1864 305.237C78.3684 305.418 78.3754 305.709 78.2044 305.897Z" fill="#98CFF4"/>
<path d="M43.9404 335.003C43.9404 335.003 29.3344 327.694 29.5474 321.225C29.7604 314.756 21.1734 314.388 19.2634 310.497C17.3534 306.606 19.2324 301.306 26.1074 305.104C32.9814 308.902 33.5904 308.626 37.7774 304.965C41.9644 301.304 49.5304 309.542 52.4544 313.886C55.3784 318.23 53.5314 308.622 58.5884 311.381C63.6454 314.14 65.9864 327.849 64.1944 337.978C62.4034 348.107 43.2264 343.359 40.7564 339.865C38.2864 336.371 44.4544 338.21 43.9404 335.003Z" fill="#98CFF4"/>
<path d="M29.2705 319.153C29.4705 319.768 29.5735 320.452 29.5475 321.225C29.3345 327.694 43.9405 335.003 43.9405 335.003C44.4535 338.21 38.2865 336.369 40.7565 339.863C43.2265 343.357 62.4035 348.105 64.1945 337.976C64.2905 337.432 64.3725 336.876 64.4455 336.314C54.4605 327.626 42.3875 321.778 29.2705 319.153Z" fill="#82C4E8"/>
<path d="M63.1978 341.031C63.2028 341.156 63.1458 341.281 63.0338 341.357C62.8628 341.472 62.6318 341.426 62.5178 341.256C62.3978 341.079 50.2478 323.317 21.6918 308.416C21.5098 308.321 21.4378 308.096 21.5338 307.914C21.6288 307.732 21.8538 307.661 22.0358 307.756C50.7728 322.751 63.0158 340.662 63.1358 340.841C63.1738 340.898 63.1948 340.965 63.1978 341.031Z" fill="#ACDAFF"/>
<path d="M30.1848 312.81L23.8598 313.462C23.6558 313.483 23.4728 313.335 23.4518 313.13C23.4328 312.927 23.5798 312.743 23.7838 312.722L29.2568 312.158L28.1969 307.882C28.1469 307.68 28.2688 307.48 28.4688 307.431C28.6688 307.382 28.8709 307.503 28.9198 307.703L30.1848 312.81Z" fill="#ACDAFF"/>
<path d="M40.9198 306.44C40.9208 306.452 40.9208 306.463 40.9198 306.475L40.2818 319.516L31.1858 321.211C30.9838 321.249 30.7888 321.115 30.7518 320.913C30.7128 320.71 30.8478 320.516 31.0498 320.479L39.5668 318.892L40.1758 306.439C40.1858 306.234 40.3608 306.075 40.5658 306.085C40.7598 306.095 40.9118 306.25 40.9198 306.44Z" fill="#ACDAFF"/>
<path d="M51.0518 313.697C51.0518 313.702 51.0518 313.708 51.0518 313.714L51.0488 328.211L38.2338 329.601C38.0288 329.623 37.8458 329.475 37.8238 329.271C37.8058 329.059 37.9498 328.883 38.1538 328.861L50.3048 327.544L50.3078 313.715C50.3078 313.509 50.4748 313.343 50.6798 313.343C50.8798 313.342 51.0428 313.5 51.0518 313.697Z" fill="#ACDAFF"/>
<path d="M59.2776 315.759C59.2776 315.764 59.2776 315.769 59.2776 315.774L59.3516 336.553L44.3266 339.144C44.1236 339.179 43.9316 339.043 43.8966 338.84C43.8636 338.637 43.9976 338.444 44.2006 338.41L58.6056 335.926L58.5336 315.777C58.5326 315.571 58.6986 315.404 58.9046 315.403C59.1056 315.402 59.2696 315.56 59.2776 315.759Z" fill="#ACDAFF"/>
<path d="M76.7753 332.943C76.7753 332.943 96.0273 324.845 96.2993 316.573C96.5713 308.301 107.559 308.553 110.323 303.748C113.087 298.943 111.135 292.023 102.044 296.291C92.9533 300.559 92.1993 300.156 87.1643 295.132C82.1293 290.107 71.7823 299.984 67.6873 305.281C63.5923 310.578 66.7563 298.473 60.0713 301.569C53.3863 304.665 49.2473 321.96 50.6823 335.035C52.1163 348.11 76.9853 343.663 80.4313 339.413C83.8743 335.161 75.8503 336.992 76.7753 332.943Z" fill="#ACDAFF"/>
<path d="M96.826 313.952C96.52 314.72 96.331 315.584 96.298 316.573C96.026 324.845 76.774 332.943 76.774 332.943C75.849 336.992 83.874 335.161 80.429 339.412C76.984 343.663 52.115 348.109 50.68 335.034C50.603 334.332 50.545 333.616 50.5 332.892C63.971 322.646 79.869 316.198 96.826 313.952Z" fill="#98CFF4"/>
<path d="M51.6973 339.016C51.6793 339.175 51.7433 339.34 51.8793 339.445C52.0873 339.606 52.3863 339.567 52.5473 339.359C52.7143 339.143 69.7123 317.5 107.403 300.887C107.644 300.781 107.754 300.5 107.647 300.259C107.541 300.018 107.26 299.909 107.019 300.015C69.0903 316.733 51.9623 338.558 51.7943 338.777C51.7373 338.849 51.7063 338.932 51.6973 339.016Z" fill="#D2EDFF"/>
<path d="M96.1934 305.781L104.209 307.145C104.468 307.189 104.714 307.015 104.758 306.755C104.799 306.498 104.627 306.25 104.368 306.206L97.4324 305.026L99.1444 299.658C99.2254 299.404 99.0864 299.139 98.8354 299.059C98.5844 298.979 98.3164 299.117 98.2364 299.368L96.1934 305.781Z" fill="#D2EDFF"/>
<path d="M83.0311 296.751C83.0291 296.766 83.0281 296.781 83.0281 296.796L82.7451 313.49L94.2101 316.418C94.4651 316.483 94.7241 316.329 94.7891 316.074C94.8561 315.819 94.7001 315.56 94.4451 315.495L83.7101 312.753L83.9801 296.812C83.9841 296.549 83.7751 296.332 83.5121 296.328C83.2641 296.324 83.0581 296.51 83.0311 296.751Z" fill="#D2EDFF"/>
<path d="M69.4924 305.16C69.4914 305.167 69.4904 305.174 69.4904 305.181L68.2754 323.679L84.5114 326.529C84.7704 326.574 85.0174 326.401 85.0624 326.143C85.1024 325.874 84.9344 325.637 84.6764 325.592L69.2824 322.889L70.4404 305.243C70.4574 304.981 70.2594 304.754 69.9964 304.737C69.7424 304.72 69.5204 304.908 69.4924 305.16Z" fill="#D2EDFF"/>
<path d="M58.8225 307.098C58.8215 307.104 58.8215 307.111 58.8205 307.117L56.9795 333.625L75.9335 338.195C76.1895 338.256 76.4465 338.099 76.5085 337.844C76.5675 337.588 76.4125 337.331 76.1575 337.269L57.9855 332.888L59.7705 307.183C59.7885 306.921 59.5915 306.693 59.3285 306.675C59.0725 306.658 58.8505 306.846 58.8225 307.098Z" fill="#D2EDFF"/>
<path d="M132.898 308.311C132.898 308.311 138.464 291.836 133.454 287.104C128.444 282.372 134.661 275.657 133.189 271.283C131.716 266.909 126.323 264.31 123.971 272.335C121.619 280.359 120.952 280.608 115.042 280.977C109.131 281.346 109.586 293.248 110.631 298.724C111.676 304.2 105.871 295.55 104.115 301.427C102.359 307.304 110.865 319.424 119.812 325.741C128.759 332.057 139.701 314.092 138.949 309.599C138.197 305.106 134.913 311.121 132.898 308.311Z" fill="#82C4E8"/>
<path d="M132.11 285.33C132.42 285.945 132.855 286.539 133.454 287.105C138.464 291.837 132.898 308.312 132.898 308.312C134.914 311.122 138.197 305.107 138.949 309.6C139.701 314.093 128.758 332.058 119.812 325.742C119.332 325.403 118.853 325.044 118.376 324.673C119.413 310.619 124.159 297.146 132.11 285.33Z" fill="#6CB7D8"/>
<path d="M122.855 327.304C122.945 327.403 123.082 327.454 123.223 327.427C123.438 327.386 123.579 327.178 123.538 326.963C123.495 326.739 119.37 304.2 129.794 271.528C129.861 271.319 129.746 271.096 129.537 271.03C129.328 270.963 129.105 271.078 129.039 271.287C118.549 304.167 122.717 326.887 122.76 327.112C122.773 327.186 122.807 327.251 122.855 327.304Z" fill="#98CFF4"/>
<path d="M126.665 281.219L131.937 276.971C132.107 276.834 132.134 276.584 131.997 276.414C131.86 276.247 131.61 276.217 131.44 276.354L126.879 280.029L124.474 276C124.36 275.81 124.118 275.75 123.93 275.862C123.742 275.974 123.68 276.218 123.793 276.406L126.665 281.219Z" fill="#98CFF4"/>
<path d="M113.773 284.449C113.781 284.458 113.79 284.467 113.799 284.475L124.056 293.858L132.205 288.321C132.386 288.198 132.433 287.951 132.31 287.77C132.188 287.587 131.94 287.542 131.759 287.665L124.128 292.849L114.333 283.889C114.171 283.741 113.921 283.753 113.773 283.914C113.635 284.067 113.637 284.299 113.773 284.449Z" fill="#98CFF4"/>
<path d="M111.551 297.531C111.555 297.535 111.559 297.54 111.563 297.544L122.432 308.504L133.164 299.949C133.335 299.812 133.364 299.563 133.227 299.392C133.081 299.218 132.841 299.193 132.67 299.329L122.494 307.441L112.126 296.987C111.972 296.832 111.721 296.83 111.565 296.985C111.414 297.133 111.409 297.375 111.551 297.531Z" fill="#98CFF4"/>
<path d="M106.875 305.256C106.879 305.26 106.882 305.264 106.886 305.268L122.405 321.036L135.709 311.733C135.888 311.607 135.932 311.36 135.807 311.181C135.679 311.003 135.434 310.958 135.255 311.083L122.5 320.002L107.451 304.712C107.297 304.556 107.046 304.554 106.891 304.707C106.739 304.857 106.733 305.099 106.875 305.256Z" fill="#98CFF4"/>
<path d="M110.45 331.282C110.45 331.282 95.8442 323.973 96.0572 317.504C96.2702 311.035 87.6832 310.667 85.7732 306.776C83.8632 302.885 85.7422 297.585 92.6172 301.383C99.4912 305.181 100.1 304.905 104.287 301.244C108.474 297.582 116.04 305.821 118.964 310.165C121.887 314.509 120.041 304.901 125.098 307.66C130.155 310.419 132.496 324.128 130.704 334.257C128.913 344.386 109.736 339.638 107.266 336.144C104.795 332.648 110.963 334.489 110.45 331.282Z" fill="#98CFF4"/>
<path d="M95.7793 315.432C95.9793 316.047 96.0823 316.731 96.0563 317.504C95.8433 323.973 110.449 331.282 110.449 331.282C110.962 334.489 104.795 332.648 107.265 336.142C109.735 339.636 128.912 344.384 130.703 334.255C130.799 333.711 130.881 333.155 130.954 332.593C120.97 323.905 108.896 318.057 95.7793 315.432Z" fill="#82C4E8"/>
<path d="M129.707 337.31C129.713 337.435 129.655 337.56 129.543 337.636C129.372 337.751 129.141 337.705 129.027 337.535C128.907 337.358 116.757 319.596 88.2006 304.695C88.0186 304.6 87.9466 304.375 88.0426 304.193C88.1376 304.011 88.3626 303.94 88.5446 304.035C117.282 319.03 129.525 336.941 129.645 337.12C129.684 337.177 129.704 337.243 129.707 337.31Z" fill="#ACDAFF"/>
<path d="M96.6936 309.089L90.3686 309.741C90.1646 309.762 89.9816 309.614 89.9606 309.409C89.9416 309.206 90.0886 309.022 90.2926 309.001L95.7656 308.437L94.7056 304.161C94.6556 303.959 94.7776 303.759 94.9776 303.71C95.1776 303.66 95.3796 303.782 95.4286 303.982L96.6936 309.089Z" fill="#ACDAFF"/>
<path d="M107.429 302.719C107.43 302.731 107.43 302.742 107.429 302.754L106.791 315.795L97.6946 317.49C97.4926 317.528 97.2976 317.394 97.2606 317.192C97.2216 316.989 97.3566 316.795 97.5586 316.758L106.076 315.171L106.685 302.718C106.695 302.513 106.87 302.354 107.075 302.364C107.269 302.374 107.421 302.529 107.429 302.719Z" fill="#ACDAFF"/>
<path d="M117.561 309.976C117.561 309.981 117.561 309.987 117.561 309.993L117.558 324.49L104.743 325.88C104.538 325.902 104.355 325.754 104.333 325.55C104.315 325.338 104.459 325.162 104.663 325.14L116.814 323.823L116.817 309.994C116.817 309.788 116.984 309.622 117.189 309.622C117.389 309.621 117.552 309.778 117.561 309.976Z" fill="#ACDAFF"/>
<path d="M125.787 312.038C125.787 312.043 125.787 312.048 125.787 312.053L125.861 332.832L110.836 335.423C110.633 335.458 110.441 335.322 110.406 335.119C110.373 334.916 110.507 334.723 110.71 334.689L125.115 332.205L125.043 312.056C125.042 311.85 125.208 311.683 125.414 311.682C125.614 311.681 125.778 311.839 125.787 312.038Z" fill="#ACDAFF"/>
<path d="M90.4184 335.408C90.4184 335.408 77.1544 333.682 75.5804 328.621C74.0054 323.56 67.2644 325.584 64.7404 323.088C62.2164 320.592 62.2454 315.987 68.5844 317.076C74.9234 318.165 75.3204 317.788 77.5744 313.83C79.8284 309.872 87.8964 314.21 91.3264 316.784C94.7564 319.358 90.7434 312.422 95.3974 313.197C100.051 313.972 105.548 323.946 106.886 332.263C108.224 340.58 92.1134 342.064 89.2634 340.025C86.4134 337.986 91.6784 337.75 90.4184 335.408Z" fill="#82C4E8"/>
<path d="M74.8086 327.092C75.1286 327.514 75.3926 328.015 75.5806 328.62C77.1556 333.681 90.4186 335.407 90.4186 335.407C91.6786 337.75 86.4126 337.984 89.2626 340.023C92.1126 342.062 108.224 340.578 106.886 332.261C106.814 331.814 106.728 331.362 106.633 330.908C96.5726 326.873 85.6606 325.596 74.8086 327.092Z" fill="#6CB7D8"/>
<path d="M106.935 334.892C106.973 334.987 106.962 335.1 106.895 335.188C106.794 335.323 106.603 335.35 106.468 335.248C106.328 335.143 92.1523 324.671 66.0563 320.824C65.8893 320.8 65.7743 320.645 65.7993 320.478C65.8233 320.311 65.9793 320.196 66.1453 320.221C92.4063 324.093 106.693 334.655 106.834 334.761C106.881 334.796 106.915 334.842 106.935 334.892Z" fill="#98CFF4"/>
<path d="M73.8089 321.94L69.0909 324.145C68.9389 324.216 68.7569 324.151 68.6859 323.998C68.6169 323.846 68.6809 323.664 68.8329 323.593L72.9139 321.685L70.9439 318.662C70.8509 318.519 70.8919 318.332 71.0329 318.24C71.1739 318.148 71.3629 318.188 71.4549 318.329L73.8089 321.94Z" fill="#98CFF4"/>
<path d="M80.4006 314.126C80.4046 314.135 80.4077 314.144 80.4097 314.153L83.4236 324.412L76.8426 328.169C76.6966 328.252 76.5106 328.202 76.4266 328.055C76.3416 327.909 76.3936 327.723 76.5406 327.639L82.7026 324.121L79.8246 314.324C79.7776 314.162 79.8696 313.993 80.0316 313.945C80.1846 313.902 80.3436 313.982 80.4006 314.126Z" fill="#98CFF4"/>
<path d="M90.1891 317.015C90.1911 317.019 90.1921 317.024 90.1941 317.028L94.0901 328.243L84.5511 332.764C84.3991 332.836 84.2171 332.771 84.1451 332.619C84.0741 332.46 84.1381 332.285 84.2901 332.213L93.3351 327.926L89.6191 317.228C89.5641 317.069 89.6481 316.895 89.8071 316.84C89.9611 316.786 90.1291 316.864 90.1891 317.015Z" fill="#98CFF4"/>
<path d="M97.1074 316.397C97.1094 316.401 97.1104 316.405 97.1114 316.409L102.756 332.462L91.8314 338.507C91.6844 338.588 91.4984 338.535 91.4164 338.388C91.3364 338.24 91.3884 338.055 91.5354 337.973L102.01 332.178L96.5364 316.611C96.4804 316.452 96.5644 316.278 96.7224 316.222C96.8784 316.168 97.0474 316.246 97.1074 316.397Z" fill="#98CFF4"/>
<path d="M143.284 332.943C143.284 332.943 162.536 324.845 162.808 316.573C163.08 308.301 174.068 308.553 176.832 303.748C179.596 298.943 177.644 292.023 168.553 296.291C159.462 300.559 158.708 300.156 153.673 295.132C148.638 290.107 138.291 299.984 134.196 305.281C130.101 310.578 133.265 298.473 126.58 301.569C119.895 304.665 115.756 321.96 117.191 335.035C118.625 348.11 143.494 343.663 146.94 339.413C150.384 335.161 142.359 336.992 143.284 332.943Z" fill="#ACDAFF"/>
<path d="M163.335 313.952C163.029 314.72 162.84 315.584 162.807 316.573C162.535 324.845 143.283 332.943 143.283 332.943C142.358 336.992 150.383 335.161 146.938 339.412C143.493 343.663 118.624 348.109 117.189 335.034C117.112 334.332 117.054 333.616 117.009 332.892C130.48 322.646 146.378 316.198 163.335 313.952Z" fill="#98CFF4"/>
<path d="M118.206 339.016C118.188 339.175 118.252 339.34 118.388 339.445C118.596 339.606 118.895 339.567 119.056 339.359C119.223 339.143 136.221 317.5 173.912 300.887C174.153 300.781 174.263 300.5 174.156 300.259C174.05 300.018 173.769 299.909 173.528 300.015C135.599 316.733 118.471 338.558 118.303 338.777C118.247 338.849 118.215 338.932 118.206 339.016Z" fill="#D2EDFF"/>
<path d="M162.703 305.781L170.719 307.145C170.978 307.189 171.224 307.015 171.268 306.755C171.309 306.498 171.137 306.25 170.878 306.206L163.942 305.026L165.654 299.658C165.735 299.404 165.596 299.139 165.345 299.059C165.094 298.979 164.826 299.117 164.746 299.368L162.703 305.781Z" fill="#D2EDFF"/>
<path d="M149.54 296.751C149.538 296.766 149.537 296.781 149.537 296.796L149.254 313.49L160.719 316.418C160.974 316.483 161.233 316.329 161.298 316.074C161.365 315.819 161.209 315.56 160.954 315.495L150.219 312.753L150.489 296.812C150.493 296.549 150.284 296.332 150.021 296.328C149.774 296.324 149.567 296.51 149.54 296.751Z" fill="#D2EDFF"/>
<path d="M136.002 305.16C136.001 305.167 136 305.174 136 305.181L134.785 323.679L151.021 326.529C151.28 326.574 151.527 326.401 151.572 326.143C151.612 325.874 151.444 325.637 151.186 325.592L135.792 322.889L136.95 305.243C136.967 304.981 136.769 304.754 136.506 304.737C136.251 304.72 136.03 304.908 136.002 305.16Z" fill="#D2EDFF"/>
<path d="M125.331 307.098C125.33 307.104 125.33 307.111 125.329 307.117L123.488 333.625L142.442 338.195C142.698 338.256 142.955 338.099 143.017 337.844C143.076 337.588 142.921 337.331 142.666 337.269L124.494 332.888L126.279 307.183C126.297 306.921 126.1 306.693 125.837 306.675C125.582 306.658 125.359 306.846 125.331 307.098Z" fill="#D2EDFF"/>
<path d="M172.619 363.858H29.2191L25.6191 331.113H176.219L172.619 363.858Z" fill="#FF9900"/>
<path d="M173.665 354.34H28.1729L28.4448 356.816H173.393L173.665 354.34Z" fill="#B84343"/>
<path d="M174.63 345.563H27.208L27.736 350.364H174.102L174.63 345.563Z" fill="#B84343"/>
<path d="M178.203 328.848H23.3682V336.561H178.203V328.848Z" fill="#B84343"/>
<path d="M305.727 371.289H183.942C175.323 371.289 161.929 364.809 162.929 356.19L200.125 97.2811C201.125 88.6621 208.923 81.674 217.543 81.674L331.874 77.217C345.778 77.217 354.123 88.6611 353.123 97.2811L323.144 355.682C322.144 364.301 314.346 371.289 305.727 371.289Z" fill="#144182"/>
<path d="M296.753 366.758H174.969C166.35 366.758 160.173 359.771 161.173 351.151L191.152 92.7501C192.152 84.1311 199.95 77.1431 208.57 77.1431H330.354C338.973 77.1431 345.15 84.1301 344.15 92.7501L314.171 351.151C313.171 359.77 305.373 366.758 296.753 366.758Z" fill="#2099FF"/>
<path d="M296.723 361.34H176.256C169.696 361.34 164.996 356.022 165.757 349.463L195.447 93.552C196.208 86.992 202.143 81.675 208.702 81.675H329.169C335.729 81.675 340.429 86.993 339.668 93.552L309.978 349.463C309.217 356.022 303.283 361.34 296.723 361.34Z" fill="#ACDAFF"/>
<path d="M247.432 354.901H222.322C219.415 354.901 217.312 352.522 217.649 349.615C217.986 346.708 220.641 344.329 223.549 344.329H248.659C251.566 344.329 253.669 346.708 253.332 349.615C252.994 352.522 250.339 354.901 247.432 354.901Z" fill="#2099FF"/>
<path d="M214.138 93.89C215.828 92.2958 216.046 89.7836 214.626 88.2789C213.207 86.7743 210.686 86.8468 208.997 88.441C207.307 90.0353 207.089 92.5474 208.508 94.0521C209.928 95.5568 212.449 95.4842 214.138 93.89Z" fill="#2099FF"/>
<path d="M223.752 92.8069C224.77 91.8464 224.902 90.3329 224.046 89.4263C223.191 88.5197 221.672 88.5634 220.654 89.5239C219.637 90.4843 219.505 91.9979 220.361 92.9045C221.216 93.811 222.735 93.7674 223.752 92.8069Z" fill="#2099FF"/>
<path d="M304.864 338.287H172.457L199.902 101.729H332.309L304.864 338.287Z" fill="white"/>
<path d="M313.978 138.229H209.88C206.682 138.229 204.391 135.637 204.762 132.439L206.865 114.315C207.236 111.117 210.129 108.525 213.326 108.525H317.424C320.622 108.525 322.913 111.117 322.542 114.315L320.439 132.439C320.068 135.637 317.175 138.229 313.978 138.229Z" fill="#E6F2FF"/>
<path d="M219.653 118.615H220.716L222.512 124.679H222.598L225.801 118.615H226.864L226.017 125.92H225.184L225.827 120.37H225.756L222.814 125.92H222.009L220.355 120.37H220.283L219.639 125.92H218.806L219.653 118.615ZM229.915 126.034C229.417 126.034 228.994 125.917 228.645 125.681C228.299 125.446 228.045 125.116 227.884 124.693C227.725 124.27 227.678 123.775 227.743 123.209C227.81 122.638 227.972 122.14 228.229 121.715C228.489 121.289 228.82 120.958 229.22 120.723C229.624 120.487 230.074 120.37 230.572 120.37C231.07 120.37 231.492 120.487 231.838 120.723C232.187 120.958 232.441 121.289 232.6 121.715C232.761 122.14 232.808 122.638 232.742 123.209C232.677 123.775 232.514 124.27 232.254 124.693C231.997 125.116 231.667 125.446 231.263 125.681C230.863 125.917 230.413 126.034 229.915 126.034ZM230.003 125.278C230.381 125.278 230.704 125.182 230.97 124.989C231.237 124.797 231.447 124.543 231.601 124.229C231.754 123.915 231.852 123.575 231.895 123.209C231.937 122.843 231.918 122.502 231.838 122.185C231.757 121.869 231.606 121.613 231.384 121.418C231.163 121.223 230.863 121.126 230.484 121.126C230.106 121.126 229.784 121.223 229.517 121.418C229.25 121.613 229.04 121.869 228.886 122.185C228.732 122.502 228.633 122.843 228.591 123.209C228.549 123.575 228.568 123.915 228.649 124.229C228.73 124.543 228.881 124.797 229.103 124.989C229.325 125.182 229.625 125.278 230.003 125.278ZM234.951 122.624L234.569 125.92H233.722L234.357 120.441H235.176L235.077 121.297H235.148C235.31 121.019 235.532 120.795 235.815 120.627C236.098 120.455 236.448 120.37 236.865 120.37C237.238 120.37 237.556 120.446 237.819 120.598C238.081 120.748 238.273 120.976 238.393 121.283C238.513 121.587 238.546 121.973 238.492 122.439L238.088 125.92H237.241L237.638 122.496C237.688 122.065 237.614 121.73 237.417 121.49C237.22 121.247 236.925 121.126 236.533 121.126C236.262 121.126 236.014 121.184 235.787 121.301C235.563 121.417 235.377 121.587 235.229 121.811C235.081 122.034 234.988 122.305 234.951 122.624ZM241.707 126.034C241.247 126.034 240.855 125.919 240.529 125.688C240.204 125.455 239.967 125.127 239.818 124.704C239.668 124.278 239.627 123.775 239.695 123.195C239.761 122.619 239.919 122.12 240.166 121.697C240.414 121.273 240.729 120.946 241.11 120.716C241.491 120.485 241.913 120.37 242.378 120.37C242.737 120.37 243.014 120.429 243.208 120.548C243.406 120.665 243.55 120.798 243.643 120.948C243.739 121.095 243.812 121.216 243.863 121.311H243.935L244.248 118.615H245.095L244.248 125.92H243.429L243.527 125.078H243.426C243.352 125.178 243.249 125.304 243.117 125.456C242.984 125.606 242.805 125.741 242.578 125.86C242.351 125.976 242.061 126.034 241.707 126.034ZM241.909 125.278C242.249 125.278 242.547 125.19 242.802 125.014C243.057 124.836 243.264 124.59 243.422 124.276C243.581 123.959 243.685 123.594 243.733 123.181C243.78 122.772 243.762 122.414 243.678 122.107C243.594 121.798 243.444 121.558 243.23 121.386C243.015 121.213 242.736 121.126 242.391 121.126C242.032 121.126 241.722 121.217 241.461 121.401C241.203 121.581 240.996 121.827 240.84 122.139C240.687 122.448 240.588 122.795 240.544 123.181C240.498 123.571 240.517 123.925 240.6 124.244C240.685 124.56 240.836 124.812 241.051 125C241.269 125.185 241.555 125.278 241.909 125.278ZM247.526 126.049C247.177 126.049 246.867 125.983 246.597 125.852C246.328 125.719 246.124 125.528 245.985 125.278C245.847 125.026 245.798 124.722 245.84 124.365C245.876 124.051 245.968 123.797 246.115 123.602C246.262 123.404 246.447 123.25 246.668 123.138C246.889 123.026 247.129 122.943 247.386 122.888C247.647 122.831 247.907 122.786 248.167 122.753C248.507 122.71 248.783 122.678 248.993 122.656C249.207 122.632 249.365 122.593 249.467 122.539C249.571 122.484 249.631 122.389 249.647 122.253L249.65 122.225C249.691 121.873 249.626 121.599 249.455 121.404C249.286 121.209 249.006 121.112 248.616 121.112C248.211 121.112 247.884 121.2 247.634 121.376C247.383 121.552 247.2 121.739 247.083 121.939L246.312 121.654C246.494 121.321 246.716 121.062 246.977 120.876C247.24 120.688 247.519 120.558 247.812 120.484C248.109 120.408 248.395 120.37 248.673 120.37C248.85 120.37 249.051 120.391 249.276 120.434C249.504 120.474 249.718 120.559 249.918 120.687C250.121 120.816 250.28 121.009 250.393 121.269C250.507 121.528 250.538 121.875 250.488 122.31L250.069 125.92H249.222L249.308 125.178H249.265C249.193 125.297 249.083 125.424 248.933 125.56C248.783 125.696 248.592 125.811 248.358 125.906C248.124 126.001 247.847 126.049 247.526 126.049ZM247.743 125.292C248.078 125.292 248.368 125.227 248.613 125.096C248.861 124.965 249.055 124.797 249.196 124.59C249.34 124.383 249.425 124.165 249.452 123.937L249.541 123.166C249.5 123.209 249.417 123.248 249.29 123.284C249.167 123.317 249.025 123.347 248.863 123.373C248.705 123.397 248.551 123.418 248.4 123.437C248.252 123.454 248.132 123.468 248.039 123.48C247.816 123.509 247.605 123.555 247.406 123.619C247.209 123.681 247.045 123.775 246.913 123.901C246.784 124.025 246.707 124.194 246.682 124.408C246.648 124.7 246.732 124.921 246.932 125.071C247.135 125.219 247.406 125.292 247.743 125.292ZM251.726 127.975C251.582 127.975 251.456 127.963 251.346 127.939C251.236 127.918 251.161 127.896 251.12 127.875L251.421 127.133C251.621 127.185 251.801 127.204 251.961 127.19C252.12 127.176 252.269 127.106 252.405 126.98C252.544 126.856 252.681 126.655 252.816 126.377L253.024 125.949L251.623 120.441H252.542L253.559 124.807H253.616L255.645 120.441H256.564L253.495 126.719C253.357 127.002 253.199 127.237 253.022 127.422C252.845 127.61 252.648 127.749 252.431 127.839C252.217 127.93 251.982 127.975 251.726 127.975ZM263.31 118.615L262.463 125.92H261.572L262.312 119.542H262.269L260.336 120.726L260.44 119.827L262.42 118.615H263.31ZM268.011 118.615L267.164 125.92H266.273L267.013 119.542H266.97L265.037 120.726L265.141 119.827L267.12 118.615H268.011ZM269.47 125.977C269.293 125.977 269.148 125.914 269.036 125.788C268.923 125.662 268.877 125.511 268.898 125.335C268.918 125.159 268.999 125.008 269.141 124.882C269.282 124.756 269.442 124.693 269.619 124.693C269.796 124.693 269.941 124.756 270.053 124.882C270.165 125.008 270.211 125.159 270.191 125.335C270.177 125.452 270.135 125.559 270.064 125.656C269.995 125.754 269.908 125.832 269.803 125.892C269.7 125.949 269.589 125.977 269.47 125.977ZM273.76 126.02C273.219 126.02 272.775 125.874 272.428 125.581C272.082 125.286 271.84 124.86 271.704 124.301C271.568 123.739 271.546 123.062 271.638 122.267C271.73 121.478 271.908 120.804 272.174 120.245C272.443 119.684 272.785 119.256 273.199 118.961C273.617 118.663 274.094 118.515 274.63 118.515C275.166 118.515 275.608 118.663 275.954 118.961C276.303 119.256 276.545 119.684 276.681 120.245C276.82 120.804 276.843 121.478 276.752 122.267C276.66 123.062 276.481 123.739 276.214 124.301C275.948 124.86 275.608 125.286 275.193 125.581C274.779 125.874 274.301 126.02 273.76 126.02ZM273.851 125.235C274.387 125.235 274.833 124.978 275.19 124.465C275.546 123.951 275.78 123.219 275.89 122.267C275.963 121.635 275.958 121.096 275.873 120.651C275.79 120.207 275.636 119.868 275.409 119.635C275.184 119.402 274.895 119.285 274.541 119.285C274.009 119.285 273.564 119.546 273.204 120.066C272.845 120.585 272.61 121.319 272.5 122.267C272.427 122.9 272.431 123.437 272.514 123.88C272.597 124.322 272.751 124.659 272.975 124.889C273.202 125.12 273.494 125.235 273.851 125.235ZM280.08 126.02C279.539 126.02 279.095 125.874 278.748 125.581C278.402 125.286 278.161 124.86 278.024 124.301C277.888 123.739 277.866 123.062 277.958 122.267C278.05 121.478 278.229 120.804 278.495 120.245C278.763 119.684 279.105 119.256 279.52 118.961C279.937 118.663 280.414 118.515 280.951 118.515C281.487 118.515 281.928 118.663 282.274 118.961C282.623 119.256 282.865 119.684 283.001 120.245C283.14 120.804 283.164 121.478 283.072 122.267C282.98 123.062 282.801 123.739 282.535 124.301C282.269 124.86 281.928 125.286 281.514 125.581C281.099 125.874 280.621 126.02 280.08 126.02ZM280.171 125.235C280.707 125.235 281.154 124.978 281.51 124.465C281.867 123.951 282.1 123.219 282.21 122.267C282.284 121.635 282.278 121.096 282.193 120.651C282.111 120.207 281.956 119.868 281.729 119.635C281.505 119.402 281.215 119.285 280.861 119.285C280.33 119.285 279.884 119.546 279.524 120.066C279.165 120.585 278.93 121.319 278.82 122.267C278.747 122.9 278.752 123.437 278.834 123.88C278.917 124.322 279.071 124.659 279.295 124.889C279.522 125.12 279.814 125.235 280.171 125.235ZM287.288 125.92H286.355L289.902 118.615H290.822L292.675 125.92H291.741L290.257 119.77H290.199L287.288 125.92ZM287.964 123.066H291.727L291.636 123.851H287.873L287.964 123.066ZM294.668 118.615H295.731L297.527 124.679H297.613L300.816 118.615H301.879L301.031 125.92H300.198L300.842 120.37H300.77L297.828 125.92H297.024L295.369 120.37H295.297L294.654 125.92H293.82L294.668 118.615Z" fill="#ACDAFF"/>
<path d="M224.007 170.789H200.312L203.061 147.095H226.755L224.007 170.789Z" fill="#E6F2FF"/>
<path d="M254.668 170.789H230.973L233.722 147.095H257.417L254.668 170.789Z" fill="#ACDAFF"/>
<path d="M285.329 170.789H261.634L264.383 147.095H288.078L285.329 170.789Z" fill="#E6F2FF"/>
<path d="M315.99 170.789H292.295L295.044 147.095H318.739L315.99 170.789Z" fill="#E6F2FF"/>
<path d="M220.492 201.089H196.797L199.546 177.395H223.241L220.492 201.089Z" fill="#E6F2FF"/>
<path d="M251.153 201.089H227.458L230.207 177.395H253.902L251.153 201.089Z" fill="#E6F2FF"/>
<path d="M281.814 201.089H258.119L260.868 177.395H284.563L281.814 201.089Z" fill="#E6F2FF"/>
<path d="M312.475 201.089H288.78L291.529 177.395H315.224L312.475 201.089Z" fill="#E6F2FF"/>
<path d="M216.975 231.39H193.281L196.03 207.695H219.724L216.975 231.39Z" fill="#E6F2FF"/>
<path d="M247.636 231.39H223.942L226.691 207.695H250.385L247.636 231.39Z" fill="#E6F2FF"/>
<path d="M278.298 231.39H254.604L257.353 207.695H281.047L278.298 231.39Z" fill="#E6F2FF"/>
<path d="M308.959 231.39H285.265L288.014 207.695H311.708L308.959 231.39Z" fill="#E6F2FF"/>
<path d="M213.461 261.69H189.767L192.516 237.995H216.21L213.461 261.69Z" fill="#E6F2FF"/>
<path d="M244.122 261.69H220.428L223.176 237.995H246.871L244.122 261.69Z" fill="#E6F2FF"/>
<path d="M274.783 261.69H251.088L253.837 237.995H277.532L274.783 261.69Z" fill="#E6F2FF"/>
<path d="M305.444 261.69H281.749L284.498 237.995H308.193L305.444 261.69Z" fill="#E6F2FF"/>
<path d="M207.626 310.695C207.842 308.837 209.529 307.326 211.387 307.326H232.797C234.808 307.326 236.67 306.172 237.655 304.313C238.64 302.455 238.471 300.417 237.214 298.995L228.902 289.592C228.088 288.67 226.921 288.163 225.617 288.163H199.576C198.145 288.163 196.971 287.255 196.657 285.903L195.554 281.165C195.311 280.121 195.599 279.006 196.343 278.104C197.088 277.203 198.149 276.686 199.255 276.686H235.176C236.068 276.686 236.869 277.031 237.431 277.658L250.878 292.653C250.994 291.993 251.127 291.335 251.262 290.684L238.616 276.583C237.802 275.676 236.642 275.176 235.35 275.176H199.429C197.828 275.176 196.29 275.925 195.212 277.23C194.133 278.536 193.716 280.151 194.068 281.663L195.171 286.401C195.627 288.359 197.326 289.674 199.399 289.674H225.44C226.34 289.674 227.146 290.024 227.708 290.661L236.02 300.064C237.058 301.237 236.857 302.731 236.324 303.736C235.791 304.742 234.629 305.816 232.969 305.816H211.559C208.868 305.816 206.425 308.005 206.113 310.696L205.537 315.662C205.225 318.353 207.16 320.542 209.851 320.542H233.507C235.365 320.542 236.701 322.054 236.479 323.969C236.264 325.827 234.576 327.339 232.718 327.339H185.397L185.222 328.849H232.543C235.234 328.849 237.677 326.66 237.996 323.912C238.308 321.221 236.373 319.032 233.682 319.032H210.026C208.168 319.032 206.832 317.52 207.047 315.662L207.626 310.695Z" fill="#E6F2FF"/>
<path d="M259.674 280.499C259.227 284.351 251.067 294.576 251.067 294.576C251.067 294.576 245.28 284.351 245.726 280.499C246.172 276.647 249.657 273.525 253.509 273.525C257.361 273.525 260.121 276.647 259.674 280.499Z" fill="#ACDAFF"/>
<path d="M255.156 282.756C256.751 281.252 256.957 278.882 255.618 277.462C254.278 276.043 251.9 276.112 250.306 277.616C248.711 279.12 248.505 281.491 249.844 282.91C251.184 284.33 253.562 284.261 255.156 282.756Z" fill="white"/>
<path d="M192.147 332.119C194.638 329.768 194.961 326.064 192.868 323.846C190.774 321.627 187.058 321.734 184.566 324.085C182.075 326.436 181.753 330.14 183.846 332.358C185.939 334.577 189.656 334.47 192.147 332.119Z" fill="#ACDAFF"/>
<path d="M190.314 330.176C191.599 328.962 191.766 327.05 190.685 325.905C189.604 324.76 187.686 324.815 186.4 326.028C185.115 327.242 184.948 329.154 186.029 330.299C187.11 331.444 189.028 331.389 190.314 330.176Z" fill="white"/>
<path d="M133.361 219.66C133.361 219.66 145.809 201.541 147.782 197.229C149.755 192.917 149.97 189.25 146.877 187.01C143.784 184.77 138.083 183.013 133.044 190.113C128.006 197.214 118.692 219.022 118.311 225.845C117.93 232.668 148.784 253.326 151.526 254.661C154.548 253.871 155.83 249.358 155.83 249.358C155.83 249.358 135.908 224.066 133.361 219.66Z" fill="#FF9900"/>
<path d="M143.574 369.568C143.574 369.568 144.199 373.148 142.153 378.546C140.107 383.944 139.994 385.649 142.153 386.842C144.312 388.035 145.847 388.376 151.87 386.842C157.893 385.308 164.599 381.955 164.599 381.955C164.599 381.955 158.064 377.807 156.473 376.045C154.882 374.283 151.529 367.976 151.586 367.067C151.643 366.159 143.574 369.568 143.574 369.568Z" fill="#F79E77"/>
<path d="M159.954 378.839C157.53 380.455 155.215 382.221 152.111 381.778C149.619 381.155 148.685 378.663 147.127 376.794C146.053 375.935 144.387 375.669 142.945 376.097C142.741 376.862 142.482 377.68 142.154 378.546C140.108 383.944 139.995 385.649 142.154 386.842C144.313 388.035 145.848 388.376 151.871 386.842C157.894 385.308 164.6 381.955 164.6 381.955C164.6 381.955 162.199 380.432 159.954 378.839Z" fill="#0C2C51"/>
<path d="M216.638 183.117L224.181 186.364C226.682 183.264 228.561 180.928 229.788 180.674C232.981 181.102 234.351 179.751 235.205 178.66C236.059 177.57 234.991 176.945 235.13 176.527C236.012 175.229 234.516 174.719 234.756 174.412C235.683 173.33 235.511 172.744 234.952 172.448C234.393 172.152 233.451 171.877 233.624 171.333C233.797 170.789 236.092 169.339 238.087 168.394C240.082 167.449 242.276 165.933 241.062 165.136C239.848 164.339 228.514 169.784 226.393 172.107C224.272 174.43 224.818 176.903 222.158 179.462C221.193 180.391 219.054 181.765 216.638 183.117Z" fill="#FFB797"/>
<path d="M151.454 368.469C151.454 368.469 151.984 375.818 149.636 381.804C147.287 387.789 147.969 390.441 152.212 391.654C156.455 392.867 158.804 389.987 164.335 390.139C169.866 390.291 177.215 389.684 179.109 384.608C181.003 379.532 172.161 381.8 166.808 380.211C161.455 378.622 163.835 369.227 163.835 369.227L151.454 368.469Z" fill="#FFAE83"/>
<path d="M166.958 380.104C166.478 381.713 170.843 383.411 169.554 384.27C164.882 387.696 159.275 381.778 153.98 379.909C152.901 379.37 151.615 379.351 150.361 379.61C150.156 380.351 149.917 381.087 149.636 381.804C147.287 387.79 147.969 390.441 152.212 391.654C156.455 392.866 158.804 389.987 164.335 390.139C169.866 390.291 180.328 389.243 182.222 384.167C184.096 379.141 172.325 381.6 166.958 380.104Z" fill="#0F3163"/>
<path d="M181.571 381.741C181.541 381.86 181.507 381.981 181.459 382.109C179.565 387.185 169.103 388.233 163.572 388.081C158.041 387.929 155.692 390.809 151.449 389.596C149.993 389.18 148.967 388.589 148.328 387.757C148.51 389.773 149.766 390.954 152.21 391.652C156.453 392.864 158.802 389.985 164.332 390.137C169.863 390.289 180.325 389.241 182.219 384.165C182.655 383.003 182.351 382.244 181.571 381.741Z" fill="#0C2C51"/>
<path d="M160.394 274.217C157.498 272.845 155.551 270.807 154.288 268.552C151.786 264.082 151.986 258.753 152.893 256.033C154.257 251.942 159.712 241.638 159.712 241.638L146.301 239.157C146.301 239.157 140.278 249.556 137.209 257.739C134.14 265.922 136.641 274.559 138.118 281.037C139.595 287.515 143.346 306.04 141.755 312.972C140.164 319.905 137.209 330.474 138.005 338.543C138.801 346.612 142.778 365.819 142.665 370.137C144.007 370.737 145.321 370.941 146.535 370.912C150.154 370.825 152.893 368.659 152.893 368.659C152.893 368.659 153.802 335.587 157.212 321.04C160.621 306.493 164.031 279.445 160.394 274.217Z" fill="#144182"/>
<path d="M160.394 274.217C157.498 272.845 155.551 270.807 154.288 268.552C148.613 265.87 152.57 255.455 152.11 249.026C149.863 255.232 141.266 266.418 153.014 280.357C157.195 284.24 153.114 314.704 149.529 328.443C146.316 340.092 147.72 358.801 148.288 370.705C151 370.149 152.892 368.659 152.892 368.659C152.892 368.659 153.801 335.587 157.211 321.04C160.621 306.493 164.031 279.445 160.394 274.217Z" fill="#0F3163"/>
<path d="M181.836 241.486C181.836 241.486 185.776 256.488 184.564 272.55C183.352 288.612 172.593 315.585 171.381 321.495C170.169 327.405 168.502 344.399 166.987 352.04C165.472 359.681 164.714 366.803 165.547 368.773C161.986 372.561 152.515 372.107 150.394 368.773C151.152 353.165 150.773 339.755 153.728 329.223C156.683 318.691 154.864 315.964 156.077 309.372C157.289 302.78 158.501 282.399 159.108 279.975C159.714 277.551 153.653 276.338 151.456 272.398C149.259 268.458 144.713 258.987 157.29 239.667C170.698 239.213 181.836 241.486 181.836 241.486Z" fill="#144182"/>
<path d="M181.836 241.486C181.836 241.486 170.698 239.213 157.288 239.668C157.036 240.055 156.802 240.432 156.564 240.811C167.625 240.952 176.095 242.68 176.095 242.68C176.095 242.68 180.035 257.682 178.823 273.744C177.611 289.806 169.019 316.331 167.807 322.241C166.595 328.151 166.115 344.375 164.6 352.016C163.293 358.605 163.054 366.803 163.547 370.202C164.316 369.817 165.006 369.351 165.547 368.774C164.714 366.804 165.471 359.682 166.987 352.041C168.502 344.4 170.169 327.406 171.381 321.496C172.593 315.586 183.352 288.614 184.564 272.551C185.776 256.488 181.836 241.486 181.836 241.486Z" fill="#164E91"/>
<path d="M174.941 150.87C174.941 150.87 176.077 164.356 174.562 168.523C173.047 172.69 171.531 175.721 170.698 176.554C169.865 177.387 165.853 175.872 165.056 176.554C164.258 177.236 164.334 185.04 164.334 185.04L153.196 184.585C153.196 184.585 154.484 170.493 155.469 166.629C156.454 162.765 173.805 150.567 174.941 150.87Z" fill="#FFAE83"/>
<path d="M148.575 184.321C148.575 184.321 157.212 180.002 164.259 183.412C171.305 186.821 182.329 201.141 184.034 203.869C185.739 206.597 186.875 212.734 184.034 218.302C181.193 223.871 182.216 240.236 183.693 243.077C171.76 246.6 153.235 244.327 144.712 240.577C149.485 233.644 151.986 231.031 148.576 223.416C145.166 215.801 141.074 194.208 148.575 184.321Z" fill="#FFAA00"/>
<path d="M178.669 219.352C181.51 213.783 180.374 207.646 178.669 204.919C176.964 202.191 165.94 187.872 158.894 184.462C156.46 183.284 153.842 183.039 151.45 183.209C149.698 183.765 148.575 184.321 148.575 184.321C141.074 194.208 145.165 215.802 148.575 223.416C151.984 231.03 149.484 233.644 144.711 240.577C151.883 243.733 166.137 245.842 177.586 244.332C177.835 244.265 178.085 244.199 178.328 244.127C176.85 241.286 175.828 224.921 178.669 219.352Z" fill="#FF9900"/>
<path d="M192.102 200.8C192.102 200.8 174.118 188.158 169.827 186.139C165.536 184.12 161.872 183.866 159.599 186.935C157.326 190.004 155.508 195.686 162.554 200.8C169.6 205.914 191.307 215.461 198.126 215.915C204.945 216.37 225.932 185.739 227.296 183.011C226.538 179.98 222.04 178.65 222.04 178.65C222.04 178.65 196.534 198.3 192.102 200.8Z" fill="#FFBC00"/>
<path d="M162.555 200.8C162.316 200.626 162.11 200.462 161.89 200.294C162.102 200.463 162.323 200.632 162.555 200.8Z" fill="#FF69A6"/>
<path d="M159.159 189.903C161.432 186.834 165.097 187.089 169.387 189.107C173.678 191.126 190.977 202.43 190.977 202.43C195.409 199.93 222.038 178.649 222.038 178.649C222.038 178.649 196.534 198.3 192.102 200.8C192.102 200.8 174.118 188.158 169.827 186.139C165.536 184.12 161.872 183.866 159.599 186.935C158.536 188.371 157.572 190.379 157.569 192.633C157.887 191.706 158.48 190.82 159.159 189.903Z" fill="#FFD815"/>
<path d="M174.108 144.506C168.956 139.354 159.409 137.384 159.409 137.384C151.308 134.633 145.014 142.233 143.195 149.052C141.377 155.871 142.271 163.805 139.483 172.765C138.073 177.132 117.896 208.384 144.348 231.019C151.072 234.341 156.219 235.803 163.487 230.196C155.829 211.99 158.249 194.518 159.793 189.279C161.286 184.213 164.354 184.025 167.169 185.071C167.297 185.121 167.423 185.17 167.555 185.223C167.293 184.71 166.954 184.12 166.553 183.473C165.135 179.247 166.47 170.481 169.372 167.386C172.781 163.749 174.373 157.84 174.941 153.521C175.737 158.635 173.918 161.817 172.668 163.636C177.555 159.886 179.26 149.658 174.108 144.506Z" fill="#144182"/>
<path d="M141.665 212.259C138.678 191.352 147.041 169.847 154.807 150.135C157.131 144.093 163.794 141.307 170.576 141.774C165.499 138.643 159.409 137.384 159.409 137.384C151.308 134.633 145.014 142.233 143.195 149.052C141.377 155.871 142.271 163.805 139.483 172.765C138.073 177.132 117.896 208.384 144.348 231.019C149.784 233.705 154.189 235.173 159.517 232.676C157.245 232.271 154.585 230.787 154.02 230.329C148.047 226.148 142.86 219.427 141.665 212.259Z" fill="#0F3163"/>
<path d="M301.951 231.22C301.951 231.22 290.493 197.303 300.806 187.562C311.12 177.821 298.32 163.996 301.352 154.991C304.384 145.986 315.487 140.636 320.328 157.156C325.169 173.676 326.542 174.187 338.711 174.948C350.88 175.709 349.944 200.21 347.792 211.483C345.64 222.756 357.592 204.949 361.206 217.049C364.82 229.149 347.31 254.1 328.891 267.104C310.472 280.107 287.946 243.123 289.493 233.873C291.042 224.622 297.802 237.005 301.951 231.22Z" fill="url(#paint4_linear_174_522)"/>
<path d="M303.572 183.908C302.933 185.174 302.039 186.397 300.806 187.562C290.492 197.303 301.951 231.22 301.951 231.22C297.801 237.005 291.041 224.622 289.494 233.872C287.947 243.122 310.473 280.107 328.892 267.103C329.881 266.405 330.867 265.666 331.847 264.902C329.711 235.97 319.94 208.235 303.572 183.908Z" fill="url(#paint5_linear_174_522)"/>
<path d="M322.626 270.319C322.441 270.523 322.158 270.628 321.868 270.572C321.425 270.487 321.135 270.06 321.22 269.617C321.308 269.156 329.801 222.756 308.341 155.493C308.203 155.064 308.44 154.603 308.87 154.468C309.299 154.33 309.759 154.568 309.895 154.997C331.491 222.686 322.911 269.46 322.821 269.924C322.793 270.078 322.723 270.212 322.626 270.319Z" fill="#1A2257"/>
<path d="M314.782 175.444L303.929 166.698C303.578 166.416 303.523 165.902 303.806 165.551C304.089 165.206 304.603 165.145 304.953 165.428L314.343 172.994L319.292 164.701C319.526 164.309 320.024 164.187 320.411 164.418C320.798 164.649 320.925 165.15 320.694 165.537L314.782 175.444Z" fill="#1A2257"/>
<path d="M341.324 182.094C341.307 182.113 341.289 182.131 341.27 182.149L320.153 201.466L303.377 190.068C303.004 189.815 302.908 189.307 303.161 188.934C303.413 188.558 303.922 188.465 304.295 188.718L320.004 199.39L340.169 180.944C340.502 180.64 341.018 180.663 341.322 180.996C341.608 181.309 341.604 181.786 341.324 182.094Z" fill="#1A2257"/>
<path d="M345.898 209.026C345.89 209.035 345.881 209.044 345.873 209.053L323.497 231.616L301.403 214.003C301.05 213.722 300.992 213.208 301.273 212.856C301.573 212.499 302.067 212.446 302.42 212.726L323.369 229.426L344.714 207.904C345.031 207.584 345.548 207.582 345.868 207.899C346.179 208.208 346.19 208.705 345.898 209.026Z" fill="#1A2257"/>
<path d="M355.523 224.93C355.516 224.938 355.508 224.947 355.5 224.954L323.55 257.415L296.162 238.264C295.793 238.005 295.702 237.497 295.96 237.127C296.223 236.761 296.728 236.667 297.097 236.925L323.355 255.287L354.337 223.81C354.653 223.489 355.17 223.484 355.491 223.801C355.803 224.109 355.815 224.608 355.523 224.93Z" fill="#1A2257"/>
<path d="M297.688 306.212L297.459 306.097L297.235 306.544C297.459 306.097 297.459 306.097 297.459 306.097L297.458 306.096L297.455 306.095L297.442 306.088L297.39 306.062C297.343 306.038 297.274 306.003 297.183 305.956C297.002 305.863 296.735 305.724 296.395 305.543C295.715 305.181 294.744 304.651 293.578 303.98C291.247 302.638 288.145 300.735 285.057 298.489C281.965 296.242 278.906 293.663 276.648 290.974C274.379 288.272 272.979 285.53 273.064 282.943C273.256 277.103 269.438 274.038 265.368 271.644C264.525 271.148 263.662 270.676 262.816 270.214C262.64 270.117 262.464 270.021 262.289 269.925C261.274 269.368 260.294 268.819 259.392 268.244C257.579 267.087 256.141 265.858 255.385 264.317C253.797 261.082 253.842 257.372 255.542 255.288C256.377 254.265 257.64 253.59 259.413 253.552C261.202 253.514 263.524 254.127 266.425 255.73C269.371 257.357 271.668 258.56 273.563 259.345C275.46 260.13 276.995 260.515 278.413 260.467C279.844 260.419 281.102 259.933 282.444 259.075C283.773 258.226 285.212 256.993 287 255.429C288.644 253.992 290.621 253.704 292.807 254.233C295.013 254.767 297.398 256.129 299.756 257.949C304.468 261.584 308.928 266.931 311.413 270.623C312.046 271.563 312.59 272.191 313.087 272.52C313.342 272.689 313.616 272.8 313.904 272.807C314.203 272.814 314.461 272.708 314.673 272.543C315.061 272.241 315.324 271.715 315.534 271.199C315.686 270.826 315.836 270.392 315.988 269.95C316.053 269.761 316.118 269.57 316.185 269.382C316.65 268.068 317.184 266.83 318.05 266.17C318.463 265.855 318.96 265.667 319.596 265.682C320.244 265.696 321.063 265.922 322.103 266.489C324.139 267.6 325.957 269.85 327.484 272.948C329.006 276.037 330.212 279.915 331.058 284.204C332.75 292.784 332.983 302.936 331.46 311.552C330.725 315.703 328.224 318.325 324.772 319.854C321.296 321.393 316.858 321.818 312.334 321.514C307.817 321.21 303.26 320.184 299.576 318.865C297.735 318.206 296.121 317.476 294.843 316.733C293.555 315.984 292.652 315.246 292.184 314.584C291.138 313.104 291.184 312.426 291.395 312.078C291.518 311.875 291.745 311.685 292.104 311.501C292.462 311.317 292.902 311.162 293.402 311.001C293.517 310.963 293.636 310.926 293.757 310.888C294.646 310.607 295.673 310.282 296.449 309.73C296.904 309.405 297.297 308.988 297.538 308.434C297.78 307.879 297.851 307.228 297.729 306.465L297.688 306.212Z" stroke="black"/>
<path d="M330.243 316.876C330.252 317.091 330.153 317.305 329.961 317.434C329.668 317.631 329.272 317.553 329.076 317.26C328.871 316.956 308.043 286.51 259.095 260.968C258.782 260.805 258.66 260.419 258.825 260.107C258.988 259.794 259.374 259.673 259.686 259.837C308.945 285.541 329.93 316.241 330.136 316.549C330.203 316.65 330.238 316.763 330.243 316.876Z" fill="black"/>
<path d="M273.655 268.503L262.813 269.621C262.463 269.658 262.149 269.402 262.113 269.052C262.08 268.705 262.332 268.388 262.682 268.352L272.063 267.385L270.246 260.055C270.16 259.709 270.37 259.366 270.712 259.282C271.054 259.197 271.4 259.406 271.485 259.748L273.655 268.503Z" fill="#1A2257"/>
<path d="M292.057 257.585C292.058 257.605 292.058 257.625 292.057 257.645L290.964 279.999L275.372 282.905C275.026 282.969 274.692 282.741 274.628 282.394C274.561 282.046 274.792 281.714 275.139 281.65L289.739 278.929L290.783 257.583C290.801 257.231 291.1 256.96 291.452 256.977C291.782 256.993 292.042 257.259 292.057 257.585Z" fill="#1A2257"/>
<path d="M309.424 270.024C309.424 270.033 309.425 270.043 309.425 270.053L309.419 294.902L287.452 297.284C287.101 297.322 286.786 297.069 286.748 296.719C286.718 296.355 286.963 296.054 287.313 296.015L308.141 293.757L308.147 270.053C308.147 269.701 308.433 269.415 308.785 269.415C309.129 269.415 309.409 269.685 309.424 270.024Z" fill="#1A2257"/>
<path d="M323.525 273.558C323.525 273.567 323.526 273.575 323.526 273.584L323.652 309.201L297.898 313.643C297.551 313.703 297.22 313.47 297.16 313.123C297.104 312.775 297.334 312.445 297.68 312.385L322.372 308.127L322.249 273.589C322.248 273.237 322.532 272.95 322.885 272.949C323.229 272.947 323.51 273.218 323.525 273.558Z" fill="#1A2257"/>
<path d="M362.163 290.065L362.009 290.27L362.087 290.515C362.378 291.436 362.821 292.115 363.391 292.591C363.961 293.065 364.624 293.309 365.312 293.415C366.492 293.598 367.827 293.384 369.007 293.195C369.168 293.169 369.326 293.144 369.48 293.12C370.145 293.017 370.747 292.94 371.273 292.945C371.802 292.95 372.199 293.038 372.487 293.219C373.006 293.546 373.435 294.378 373.087 296.677C372.928 297.73 372.306 299.113 371.26 300.714C370.221 302.304 368.789 304.071 367.058 305.886C363.597 309.516 358.969 313.311 353.969 316.256C348.963 319.205 343.625 321.278 338.738 321.516C333.877 321.751 329.466 320.175 326.213 315.809C319.518 306.823 313.951 295.071 310.958 284.28C309.461 278.885 308.612 273.747 308.579 269.329C308.546 264.899 309.334 261.251 311.047 258.779C311.918 257.522 312.74 256.776 313.498 256.374C314.245 255.978 314.953 255.903 315.636 256.032C317.05 256.298 318.399 257.437 319.681 258.669C319.867 258.848 320.053 259.029 320.237 259.209C320.663 259.626 321.078 260.031 321.463 260.367C322 260.837 322.577 261.264 323.153 261.378C323.464 261.44 323.786 261.414 324.091 261.252C324.386 261.095 324.618 260.834 324.805 260.509C325.169 259.873 325.428 258.866 325.611 257.432C326.334 251.777 328.366 243.091 331.673 236.216C333.328 232.776 335.283 229.83 337.518 227.937C339.738 226.056 342.209 225.229 344.966 225.943C347.909 226.705 350.251 227.284 352.245 227.491C354.254 227.699 355.943 227.533 357.577 226.781C359.199 226.034 360.719 224.73 362.429 222.752C364.14 220.774 366.07 218.086 368.503 214.536C370.907 211.029 373.226 208.975 375.322 207.978C377.404 206.987 379.277 207.031 380.859 207.739C384.065 209.176 386.259 213.453 386.301 218.092C386.322 220.327 385.368 222.584 383.956 224.952C383.253 226.132 382.445 227.324 381.604 228.543C381.46 228.754 381.314 228.965 381.167 229.177C380.466 230.19 379.752 231.223 379.075 232.271C375.801 237.335 373.237 242.966 376.768 249.458C378.374 252.41 378.338 256.389 377.293 260.79C376.251 265.175 374.229 269.888 371.983 274.235C369.74 278.579 367.284 282.538 365.387 285.412C364.44 286.849 363.632 288.013 363.063 288.818C362.778 289.22 362.552 289.533 362.398 289.744C362.321 289.85 362.262 289.93 362.222 289.984L362.177 290.045L362.166 290.06L362.164 290.064L362.163 290.064C362.163 290.065 362.163 290.065 362.563 290.364L362.163 290.065Z" stroke="black"/>
<path d="M330.771 321.111C330.883 321.362 331.12 321.55 331.413 321.587C331.86 321.644 332.269 321.327 332.325 320.88C332.385 320.415 338.718 273.67 380.002 216.395C380.266 216.029 380.185 215.518 379.817 215.256C379.451 214.992 378.941 215.075 378.678 215.441C337.133 273.079 330.766 320.205 330.706 320.675C330.686 320.829 330.711 320.979 330.771 321.111Z" fill="white"/>
<path d="M367.683 233.36L380.715 228.416C381.136 228.257 381.348 227.785 381.188 227.364C381.026 226.948 380.557 226.731 380.136 226.891L368.86 231.168L366.73 221.748C366.629 221.303 366.193 221.032 365.754 221.131C365.314 221.23 365.038 221.668 365.137 222.107L367.683 233.36Z" fill="#1A2257"/>
<path d="M340.39 231.441C340.4 231.464 340.412 231.487 340.424 231.51L354.499 256.429L373.985 250.803C374.418 250.678 374.668 250.225 374.542 249.792C374.419 249.356 373.964 249.109 373.531 249.235L355.285 254.502L341.844 230.706C341.622 230.314 341.124 230.176 340.732 230.397C340.364 230.607 340.22 231.061 340.39 231.441Z" fill="#1A2257"/>
<path d="M327.681 255.622C327.686 255.633 327.691 255.645 327.697 255.655L341.961 284.05L368.432 274.168C368.855 274.01 369.069 273.54 368.912 273.118C368.738 272.685 368.284 272.481 367.862 272.638L342.763 282.008L329.155 254.922C328.953 254.519 328.462 254.357 328.06 254.559C327.667 254.756 327.503 255.226 327.681 255.622Z" fill="#1A2257"/>
<path d="M313.593 267.751C313.598 267.761 313.602 267.771 313.607 267.781L333.899 308.558L365.88 298.857C366.311 298.726 366.555 298.271 366.425 297.839C366.289 297.409 365.837 297.164 365.407 297.294L334.746 306.595L315.069 267.054C314.868 266.651 314.378 266.486 313.975 266.687C313.581 266.883 313.415 267.354 313.593 267.751Z" fill="#1A2257"/>
<path d="M291.752 318.583H354.823L341.706 381.023H301.042L291.752 318.583Z" fill="#FF9900"/>
<path d="M349.404 344.38H295.591L296.563 350.911H348.033L349.404 344.38Z" fill="#B84343"/>
<path d="M347.439 353.731H296.981L297.467 356.996H346.753L347.439 353.731Z" fill="#B84343"/>
<path d="M356.597 317.548H289.857V326.421H356.597V317.548Z" fill="#B84343"/>
<defs>
<linearGradient id="paint0_linear_174_522" x1="125.861" y1="388.724" x2="211.683" y2="388.724" gradientUnits="userSpaceOnUse">
<stop stop-color="#1A2257"/>
<stop offset="1" stop-color="#384ABD"/>
</linearGradient>
<linearGradient id="paint1_linear_174_522" x1="278.099" y1="379.448" x2="363.921" y2="379.448" gradientUnits="userSpaceOnUse">
<stop stop-color="#1A2257"/>
<stop offset="1" stop-color="#384ABD"/>
</linearGradient>
<linearGradient id="paint2_linear_174_522" x1="141.388" y1="370.172" x2="364.09" y2="370.172" gradientUnits="userSpaceOnUse">
<stop stop-color="#1A2257"/>
<stop offset="1" stop-color="#384ABD"/>
</linearGradient>
<linearGradient id="paint3_linear_174_522" x1="6.20996" y1="363.858" x2="228.912" y2="363.858" gradientUnits="userSpaceOnUse">
<stop stop-color="#1A2257"/>
<stop offset="1" stop-color="#384ABD"/>
</linearGradient>
<linearGradient id="paint4_linear_174_522" x1="325.55" y1="146.465" x2="325.55" y2="269.845" gradientUnits="userSpaceOnUse">
<stop stop-color="#1A2257"/>
<stop offset="1" stop-color="#384ABD"/>
</linearGradient>
<linearGradient id="paint5_linear_174_522" x1="310.633" y1="183.908" x2="310.633" y2="269.844" gradientUnits="userSpaceOnUse">
<stop stop-color="#1A2257"/>
<stop offset="1" stop-color="#384ABD"/>
</linearGradient>
</defs>
</svg>
