<svg width="22" height="22" viewBox="0 0 22 22" fill="none" xmlns="http://www.w3.org/2000/svg">
<path d="M9.16536 16.4998H2.7487C2.1987 16.4998 1.83203 16.1332 1.83203 15.5832C1.83203 15.0332 2.1987 14.6665 2.7487 14.6665H9.16536C9.71536 14.6665 10.082 15.0332 10.082 15.5832C10.082 16.1332 9.71536 16.4998 9.16536 16.4998Z" fill="black"/>
<path d="M19.2487 15.5833H13.7487C13.1987 15.5833 12.832 15.2167 12.832 14.6667C12.832 14.1167 13.1987 13.75 13.7487 13.75H19.2487C19.7987 13.75 20.1654 14.1167 20.1654 14.6667C20.1654 15.2167 19.7987 15.5833 19.2487 15.5833Z" fill="black"/>
<path d="M16.4987 18.3333C15.9487 18.3333 15.582 17.9667 15.582 17.4167V11.9167C15.582 11.3667 15.9487 11 16.4987 11C17.0487 11 17.4154 11.3667 17.4154 11.9167V17.4167C17.4154 17.9667 17.0487 18.3333 16.4987 18.3333Z" fill="black"/>
<path d="M12.832 11.9168H2.7487C2.1987 11.9168 1.83203 11.5502 1.83203 11.0002C1.83203 10.4502 2.1987 10.0835 2.7487 10.0835H12.832C13.382 10.0835 13.7487 10.4502 13.7487 11.0002C13.7487 11.5502 13.382 11.9168 12.832 11.9168Z" fill="black"/>
<path d="M12.832 7.33333H2.7487C2.1987 7.33333 1.83203 6.96667 1.83203 6.41667C1.83203 5.86667 2.1987 5.5 2.7487 5.5H12.832C13.382 5.5 13.7487 5.86667 13.7487 6.41667C13.7487 6.96667 13.382 7.33333 12.832 7.33333Z" fill="black"/>
</svg>
