<svg width="142" height="40" viewBox="0 0 142 40" fill="none" xmlns="http://www.w3.org/2000/svg">
<path d="M46.988 29V3.8H52.82V29H46.988ZM64.1205 29V8.552H56.0565V3.8H78.0165V8.552H69.9525V29H64.1205ZM88.5017 29.288C86.2937 29.288 84.3497 28.856 82.6697 27.992C81.0137 27.128 79.7297 25.952 78.8177 24.464C77.9057 22.952 77.4497 21.236 77.4497 19.316C77.4497 17.372 77.8937 15.656 78.7817 14.168C79.6937 12.656 80.9297 11.48 82.4897 10.64C84.0497 9.776 85.8137 9.344 87.7817 9.344C89.6777 9.344 91.3817 9.752 92.8937 10.568C94.4297 11.36 95.6417 12.512 96.5297 14.024C97.4177 15.512 97.8617 17.3 97.8617 19.388C97.8617 19.604 97.8497 19.856 97.8257 20.144C97.8017 20.408 97.7777 20.66 97.7537 20.9H82.0217V17.624H94.8017L92.6417 18.596C92.6417 17.588 92.4377 16.712 92.0297 15.968C91.6217 15.224 91.0577 14.648 90.3377 14.24C89.6177 13.808 88.7777 13.592 87.8177 13.592C86.8577 13.592 86.0057 13.808 85.2617 14.24C84.5417 14.648 83.9777 15.236 83.5697 16.004C83.1617 16.748 82.9577 17.636 82.9577 18.668V19.532C82.9577 20.588 83.1857 21.524 83.6417 22.34C84.1217 23.132 84.7817 23.744 85.6217 24.176C86.4857 24.584 87.4937 24.788 88.6457 24.788C89.6777 24.788 90.5777 24.632 91.3457 24.32C92.1377 24.008 92.8577 23.54 93.5057 22.916L96.4937 26.156C95.6057 27.164 94.4897 27.944 93.1457 28.496C91.8017 29.024 90.2537 29.288 88.5017 29.288ZM110.917 29.288C108.853 29.288 107.017 28.856 105.409 27.992C103.825 27.128 102.565 25.952 101.629 24.464C100.717 22.952 100.261 21.236 100.261 19.316C100.261 17.372 100.717 15.656 101.629 14.168C102.565 12.656 103.825 11.48 105.409 10.64C107.017 9.776 108.853 9.344 110.917 9.344C112.957 9.344 114.781 9.776 116.389 10.64C117.997 11.48 119.257 12.644 120.169 14.132C121.081 15.62 121.537 17.348 121.537 19.316C121.537 21.236 121.081 22.952 120.169 24.464C119.257 25.952 117.997 27.128 116.389 27.992C114.781 28.856 112.957 29.288 110.917 29.288ZM110.917 24.68C111.853 24.68 112.693 24.464 113.437 24.032C114.181 23.6 114.769 22.988 115.201 22.196C115.633 21.38 115.849 20.42 115.849 19.316C115.849 18.188 115.633 17.228 115.201 16.436C114.769 15.644 114.181 15.032 113.437 14.6C112.693 14.168 111.853 13.952 110.917 13.952C109.981 13.952 109.141 14.168 108.397 14.6C107.653 15.032 107.053 15.644 106.597 16.436C106.165 17.228 105.949 18.188 105.949 19.316C105.949 20.42 106.165 21.38 106.597 22.196C107.053 22.988 107.653 23.6 108.397 24.032C109.141 24.464 109.981 24.68 110.917 24.68ZM131.906 29.288C130.25 29.288 128.654 29.096 127.118 28.712C125.606 28.304 124.406 27.8 123.518 27.2L125.39 23.168C126.278 23.72 127.322 24.176 128.522 24.536C129.746 24.872 130.946 25.04 132.122 25.04C133.418 25.04 134.33 24.884 134.858 24.572C135.41 24.26 135.686 23.828 135.686 23.276C135.686 22.82 135.47 22.484 135.038 22.268C134.63 22.028 134.078 21.848 133.382 21.728C132.686 21.608 131.918 21.488 131.078 21.368C130.262 21.248 129.434 21.092 128.594 20.9C127.754 20.684 126.986 20.372 126.29 19.964C125.594 19.556 125.03 19.004 124.598 18.308C124.19 17.612 123.986 16.712 123.986 15.608C123.986 14.384 124.334 13.304 125.03 12.368C125.75 11.432 126.782 10.7 128.126 10.172C129.47 9.62 131.078 9.344 132.95 9.344C134.27 9.344 135.614 9.488 136.982 9.776C138.35 10.064 139.49 10.484 140.402 11.036L138.53 15.032C137.594 14.48 136.646 14.108 135.686 13.916C134.75 13.7 133.838 13.592 132.95 13.592C131.702 13.592 130.79 13.76 130.214 14.096C129.638 14.432 129.35 14.864 129.35 15.392C129.35 15.872 129.554 16.232 129.962 16.472C130.394 16.712 130.958 16.904 131.654 17.048C132.35 17.192 133.106 17.324 133.922 17.444C134.762 17.54 135.602 17.696 136.442 17.912C137.282 18.128 138.038 18.44 138.71 18.848C139.406 19.232 139.97 19.772 140.402 20.468C140.834 21.14 141.05 22.028 141.05 23.132C141.05 24.332 140.69 25.4 139.97 26.336C139.25 27.248 138.206 27.968 136.838 28.496C135.494 29.024 133.85 29.288 131.906 29.288Z" fill="#1769AA"/>
<path d="M24.1414 28.6521C24.9964 29.3953 25.5891 30.3514 25.8446 31.3997C26.1001 32.448 26.0068 33.5414 25.5767 34.5417C25.1465 35.542 24.3987 36.4043 23.4278 37.0197C22.4569 37.635 21.3065 37.9758 20.1219 37.9989C18.9373 38.0221 17.7717 37.7265 16.7725 37.1496C15.7732 36.5727 14.9851 35.7404 14.5078 34.7578C14.0305 33.7753 13.8853 32.6865 14.0907 31.6292C14.2961 30.5719 14.8428 29.5935 15.6617 28.8176C15.7918 28.6942 15.9249 28.5735 16.0426 28.4388C17.3155 26.9909 17.2505 25.3774 16.0426 24.0978C15.9218 23.9687 15.7918 23.8424 15.6617 23.719C14.988 23.0763 14.4982 22.2939 14.235 21.4402C13.9718 20.5865 13.9433 19.6874 14.152 18.8214C14.3607 17.9554 14.8002 17.1489 15.4321 16.4723C16.064 15.7956 16.8691 15.2694 17.7772 14.9396C18.6852 14.6098 19.6686 14.4865 20.6414 14.5803C21.6142 14.6742 22.5468 14.9824 23.3579 15.478C24.1689 15.9737 24.8337 16.6417 25.2942 17.4237C25.7547 18.2057 25.9969 19.078 25.9996 19.9644C26.0058 20.6923 25.8475 21.4137 25.5343 22.084C25.2211 22.7543 24.7597 23.3595 24.1786 23.8621L24.16 23.8817C22.6115 25.5401 22.6858 27.1284 24.16 28.6521H24.1414Z" fill="#174A73"/>
<path d="M20.0037 12.8657C23.3151 12.8657 25.9995 10.4334 25.9995 7.43308C25.9995 4.43274 23.3151 2.00049 20.0037 2.00049C16.6923 2.00049 14.0078 4.43274 14.0078 7.43308C14.0078 10.4334 16.6923 12.8657 20.0037 12.8657Z" fill="#1769AA"/>
<path d="M26.0011 19.9648C26.0073 20.6927 25.8489 21.414 25.5357 22.0844C25.2226 22.7547 24.7612 23.3598 24.1801 23.8624L24.1615 23.8821C22.7895 25.3497 22.6904 26.7639 23.7062 28.1249L15.9636 24.0168C15.8645 23.9158 15.7623 23.8175 15.6539 23.7193C14.9825 23.0759 14.4949 22.2935 14.2337 21.4402C13.9724 20.5869 13.9455 19.6887 14.1552 18.8239C14.3649 17.959 14.8048 17.1537 15.4367 16.4782C16.0686 15.8027 16.8732 15.2775 17.7804 14.9483C18.6877 14.6191 19.67 14.4959 20.6419 14.5895C21.6137 14.6831 22.5455 14.9906 23.3561 15.4853C24.1667 15.9799 24.8314 16.6467 25.2925 17.4274C25.7535 18.2082 25.9968 19.0793 26.0011 19.9648Z" fill="#1769AA"/>
</svg>
