<svg width="73" height="73" viewBox="0 0 73 73" fill="none" xmlns="http://www.w3.org/2000/svg">
<g clip-path="url(#clip0_174_2486)">
<path d="M58.7972 53.4907L4.44751 71.6519C4.01567 71.7965 3.55207 71.8179 3.10878 71.7135C2.66549 71.6092 2.26006 71.3834 1.93804 71.0613C1.61602 70.7393 1.39017 70.3339 1.28584 69.8906C1.18151 69.4473 1.20284 68.9837 1.34744 68.5519L19.5086 14.2021L58.7972 53.4907Z" fill="#FDC70E"/>
<path d="M58.7972 53.4932C58.7972 53.4932 50.7927 51.6803 36.065 36.938C21.7277 22.6142 19.6107 14.6243 19.5098 14.207V14.1924C19.5098 14.1924 27.5288 16.0064 42.2614 30.739C56.9941 45.4717 58.7972 53.4932 58.7972 53.4932Z" fill="#D39518"/>
<path d="M23.6766 65.2256L15.6223 67.9144C13.9311 66.4057 12.1304 64.7146 10.2081 62.7922C8.28577 60.8699 6.5946 59.0692 5.08594 57.3781L7.77477 49.3237C9.81877 51.7936 12.3129 54.5554 15.3789 57.6214C18.4449 60.6874 21.2068 63.1816 23.6766 65.2256Z" fill="#2167D8"/>
<path d="M45.6002 57.9012L36.9497 60.7847C32.1921 57.3674 27.7424 53.5406 23.6515 49.3481C19.459 45.2572 15.6322 40.8075 12.2148 36.0499L15.0983 27.3994C18.9845 33.5215 23.5922 39.1545 28.8223 44.1772C33.8451 49.4074 39.478 54.0151 45.6002 57.9012Z" fill="#D3374E"/>
<path d="M31.066 24.8274C30.8254 24.8273 30.5902 24.7559 30.3902 24.6222C30.1902 24.4885 30.0343 24.2985 29.9422 24.0763C29.8501 23.854 29.826 23.6094 29.873 23.3734C29.9199 23.1374 30.0357 22.9207 30.2058 22.7505C32.5843 20.5064 34.1552 17.5396 34.6744 14.311C35.1936 11.0824 34.6322 7.77265 33.0772 4.89593C32.984 4.75884 32.9198 4.60415 32.8886 4.44137C32.8573 4.27858 32.8597 4.11113 32.8955 3.94929C32.9313 3.78744 32.9998 3.63462 33.0967 3.50019C33.1937 3.36577 33.3171 3.25258 33.4594 3.16756C33.6017 3.08255 33.7599 3.02751 33.9242 3.00582C34.0886 2.98413 34.2556 2.99625 34.4151 3.04143C34.5745 3.08661 34.7231 3.1639 34.8516 3.26856C34.9802 3.37322 35.086 3.50304 35.1625 3.65006C36.9869 6.99471 37.6584 10.8472 37.0735 14.6119C36.4885 18.3766 34.6795 21.8436 31.9262 24.477C31.813 24.5892 31.6788 24.678 31.5311 24.7381C31.3835 24.7983 31.2254 24.8286 31.066 24.8274Z" fill="#2167D8"/>
<path d="M29.0303 12.6119C28.7077 12.6118 28.3983 12.4836 28.1702 12.2554L26.1335 10.2199C26.0205 10.1069 25.9309 9.9727 25.8698 9.82503C25.8087 9.67737 25.7773 9.51911 25.7773 9.35931C25.7774 9.1995 25.8089 9.04127 25.8701 8.89365C25.9313 8.74602 26.021 8.6119 26.1341 8.49894C26.3624 8.27081 26.6719 8.14271 26.9947 8.14282C27.1545 8.14288 27.3127 8.17441 27.4603 8.23562C27.608 8.29683 27.7421 8.38651 27.855 8.49955L29.8905 10.535C30.0606 10.7052 30.1765 10.922 30.2234 11.1579C30.2703 11.3939 30.2462 11.6385 30.1542 11.8608C30.0621 12.0831 29.9062 12.2731 29.7062 12.4068C29.5061 12.5405 29.2709 12.6118 29.0303 12.6119Z" fill="#23AF6F"/>
<path d="M43.2811 10.5765C42.9584 10.5765 42.649 10.4483 42.4208 10.2201C42.1926 9.99196 42.0645 9.6825 42.0645 9.35982V7.32433C42.0645 7.00165 42.1926 6.69219 42.4208 6.46402C42.649 6.23585 42.9584 6.10767 43.2811 6.10767C43.6038 6.10767 43.9133 6.23585 44.1414 6.46402C44.3696 6.69219 44.4978 7.00165 44.4978 7.32433V9.35982C44.4978 9.6825 44.3696 9.99196 44.1414 10.2201C43.9133 10.4483 43.6038 10.5765 43.2811 10.5765Z" fill="#D3374E"/>
<path d="M45.3178 18.7209H43.2811C42.9584 18.7209 42.649 18.5927 42.4208 18.3646C42.1926 18.1364 42.0645 17.8269 42.0645 17.5043C42.0645 17.1816 42.1926 16.8721 42.4208 16.644C42.649 16.4158 42.9584 16.2876 43.2811 16.2876H45.3178C45.6405 16.2876 45.95 16.4158 46.1781 16.644C46.4063 16.8721 46.5345 17.1816 46.5345 17.5043C46.5345 17.8269 46.4063 18.1364 46.1781 18.3646C45.95 18.5927 45.6405 18.7209 45.3178 18.7209Z" fill="#23AF6F"/>
<path d="M49.3883 43.1515C49.1477 43.1515 48.9125 43.0801 48.7125 42.9464C48.5124 42.8127 48.3565 42.6227 48.2645 42.4004C48.1724 42.1781 48.1483 41.9335 48.1952 41.6976C48.2422 41.4616 48.358 41.2448 48.5281 41.0747C51.1616 38.3213 54.6289 36.5123 58.3938 35.9273C62.1586 35.3423 66.0114 36.0139 69.3562 37.8383C69.622 38.0092 69.8109 38.2768 69.8829 38.5844C69.9549 38.8921 69.9044 39.2157 69.7421 39.4868C69.5797 39.7579 69.3183 39.9552 69.0131 40.037C68.7079 40.1187 68.3828 40.0785 68.1067 39.9249C65.2368 38.3411 61.9195 37.7632 58.6831 38.2833C55.4467 38.8035 52.4775 40.3917 50.2485 42.795C50.0203 43.0232 49.7109 43.1514 49.3883 43.1515Z" fill="#2167D8"/>
<path d="M63.6408 47.2224C63.3183 47.2227 63.0089 47.0949 62.7806 46.8672L60.7439 44.8305C60.5223 44.601 60.3996 44.2937 60.4024 43.9747C60.4052 43.6556 60.5331 43.3505 60.7587 43.1249C60.9843 42.8993 61.2894 42.7714 61.6084 42.7686C61.9274 42.7658 62.2348 42.8885 62.4642 43.1101L64.5009 45.1456C64.671 45.3157 64.7869 45.5325 64.8338 45.7685C64.8807 46.0044 64.8566 46.249 64.7646 46.4713C64.6725 46.6936 64.5166 46.8836 64.3166 47.0173C64.1165 47.151 63.8814 47.2224 63.6408 47.2224Z" fill="#23AF6F"/>
<path d="M65.6748 30.9363H63.6405C63.3178 30.9363 63.0083 30.8081 62.7802 30.5799C62.552 30.3517 62.4238 30.0423 62.4238 29.7196C62.4238 29.3969 62.552 29.0875 62.7802 28.8593C63.0083 28.6311 63.3178 28.5029 63.6405 28.5029H65.6748C65.9974 28.5029 66.3069 28.6311 66.5351 28.8593C66.7632 29.0875 66.8914 29.3969 66.8914 29.7196C66.8914 30.0423 66.7632 30.3517 66.5351 30.5799C66.3069 30.8081 65.9974 30.9363 65.6748 30.9363Z" fill="#D3374E"/>
<path d="M55.496 30.9361C55.1733 30.9361 54.8638 30.8079 54.6356 30.5797C54.4075 30.3516 54.2793 30.0421 54.2793 29.7194V27.6827C54.2793 27.3601 54.4075 27.0506 54.6356 26.8224C54.8638 26.5942 55.1733 26.4661 55.496 26.4661C55.8186 26.4661 56.1281 26.5942 56.3563 26.8224C56.5844 27.0506 56.7126 27.3601 56.7126 27.6827V29.7194C56.7126 30.0421 56.5844 30.3516 56.3563 30.5797C56.1281 30.8079 55.8186 30.9361 55.496 30.9361Z" fill="#D3374E"/>
<path d="M45.318 26.8639C45.0774 26.8639 44.8422 26.7925 44.6422 26.6588C44.4421 26.5251 44.2862 26.3351 44.1942 26.1128C44.1021 25.8905 44.078 25.6459 44.1249 25.41C44.1719 25.174 44.2877 24.9572 44.4578 24.7871C44.9716 24.2885 45.5876 23.9075 46.2633 23.6705C46.9389 23.4336 47.6579 23.3463 48.3706 23.4147H48.3974C48.7845 23.4783 49.1812 23.452 49.5566 23.3376C49.9319 23.2232 50.2759 23.024 50.5618 22.7552C50.8328 22.4655 51.0333 22.1172 51.1477 21.7374C51.262 21.3575 51.2872 20.9564 51.2212 20.5652C51.1426 19.8516 51.2253 19.1294 51.4632 18.4519C51.7011 17.7745 52.0881 17.1592 52.5957 16.6514C53.1032 16.1436 53.7184 15.7563 54.3957 15.5181C55.073 15.2799 55.7952 15.1969 56.5089 15.2752C56.902 15.3542 57.3086 15.3349 57.6925 15.2189C58.0763 15.1028 58.4256 14.8938 58.7092 14.6102C58.9927 14.3266 59.2018 13.9774 59.3178 13.5935C59.4338 13.2097 59.4532 12.8031 59.3741 12.4099C59.3063 11.6966 59.3943 10.9771 59.6319 10.3011C59.8694 9.62507 60.251 9.00873 60.7502 8.49468C60.8621 8.37618 60.9967 8.28139 61.146 8.21593C61.2953 8.15047 61.4562 8.11568 61.6192 8.11362C61.7822 8.11157 61.944 8.14228 62.0949 8.20395C62.2458 8.26562 62.3827 8.35699 62.4976 8.47262C62.6125 8.58825 62.703 8.7258 62.7637 8.87708C62.8244 9.02837 62.8541 9.19031 62.851 9.35329C62.8479 9.51627 62.8121 9.67697 62.7457 9.82584C62.6793 9.97472 62.5837 10.1087 62.4645 10.2199C62.1935 10.5097 61.9928 10.858 61.8778 11.2377C61.7629 11.6174 61.7367 12.0185 61.8014 12.4099C61.8798 13.1239 61.7969 13.8464 61.5587 14.5241C61.3206 15.2017 60.9332 15.8172 60.4253 16.3251C59.9174 16.8331 59.3019 17.2204 58.6242 17.4586C57.9466 17.6967 57.2241 17.7797 56.5101 17.7012C56.1179 17.6223 55.7122 17.6417 55.3293 17.7576C54.9464 17.8736 54.5981 18.0824 54.3155 18.3656C54.033 18.6488 53.8248 18.9975 53.7097 19.3807C53.5946 19.7638 53.5761 20.1695 53.6558 20.5616C53.7248 21.2743 53.6377 21.9935 53.4007 22.6692C53.1637 23.3449 52.7825 23.9609 52.2834 24.4744C51.7675 24.97 51.1512 25.3491 50.4761 25.5858C49.8011 25.8226 49.083 25.9116 48.3706 25.8468H48.3426C47.9556 25.7827 47.559 25.8089 47.1838 25.9233C46.8086 26.0377 46.4648 26.2372 46.1794 26.5062C46.0664 26.6196 45.9321 26.7095 45.7843 26.7709C45.6365 26.8323 45.478 26.8639 45.318 26.8639Z" fill="#FDC70E"/>
<path d="M49.3902 12.6119C49.1903 12.612 48.9934 12.5628 48.817 12.4687C48.6406 12.3746 48.4901 12.2384 48.3788 12.0723C48.2675 11.9062 48.1989 11.7152 48.179 11.5163C48.1592 11.3173 48.1886 11.1165 48.2648 10.9317C48.911 9.49564 49.2494 7.9402 49.2582 6.36547C49.267 4.79075 48.946 3.23162 48.3159 1.78844C48.1636 1.50383 48.1306 1.17038 48.2241 0.861441C48.3177 0.5525 48.5301 0.293375 48.8147 0.14107C49.0993 -0.0112354 49.4328 -0.044244 49.7417 0.0493054C50.0506 0.142855 50.3098 0.355299 50.4621 0.639903C51.2611 2.40053 51.6789 4.31018 51.6882 6.24362C51.6974 8.17706 51.2978 10.0906 50.5156 11.8588C50.4238 12.0817 50.2677 12.2723 50.0674 12.4064C49.867 12.5405 49.6313 12.612 49.3902 12.6119Z" fill="#D3374E"/>
<path d="M61.6046 24.8272C61.3227 24.8275 61.0495 24.7298 60.8316 24.551C60.6137 24.3722 60.4646 24.1233 60.4099 23.8467C60.3551 23.5702 60.3981 23.2832 60.5315 23.0349C60.6649 22.7865 60.8803 22.5922 61.1411 22.4851C62.9093 21.702 64.8231 21.302 66.7569 21.3112C68.6907 21.3204 70.6006 21.7387 72.3612 22.5386C72.6458 22.6909 72.8582 22.95 72.9518 23.259C73.0453 23.5679 73.0123 23.9014 72.86 24.186C72.7077 24.4706 72.4486 24.683 72.1397 24.7766C71.8307 24.8701 71.4973 24.8371 71.2127 24.6848C69.7694 24.0541 68.21 23.7329 66.635 23.7417C65.06 23.7505 63.5043 24.0891 62.0682 24.7359C61.9211 24.7961 61.7636 24.8271 61.6046 24.8272Z" fill="#D3374E"/>
</g>
<defs>
<clipPath id="clip0_174_2486">
<rect width="73" height="73" fill="white"/>
</clipPath>
</defs>
</svg>
