<svg width="320" height="320" viewBox="0 0 320 320" fill="none" xmlns="http://www.w3.org/2000/svg">
<path d="M193.13 229.217C199.97 235.163 204.711 242.812 206.755 251.198C208.799 259.585 208.053 268.332 204.612 276.334C201.17 284.337 195.188 291.235 187.421 296.158C179.654 301.081 170.45 303.807 160.973 303.992C151.497 304.177 142.172 301.813 134.178 297.198C126.184 292.582 119.879 285.924 116.061 278.063C112.242 270.203 111.081 261.493 112.724 253.034C114.367 244.576 118.741 236.749 125.292 230.542C126.333 229.554 127.398 228.589 128.339 227.511C138.522 215.927 138.002 203.019 128.339 192.783C127.373 191.75 126.333 190.74 125.292 189.752C119.902 184.611 115.983 178.352 113.878 171.522C111.773 164.693 111.545 157.5 113.214 150.572C114.884 143.644 118.4 137.192 123.455 131.779C128.51 126.365 134.951 122.156 142.216 119.517C149.48 116.879 157.347 115.892 165.129 116.643C172.912 117.394 180.373 119.859 186.861 123.825C193.35 127.79 198.668 133.134 202.352 139.39C206.036 145.646 207.973 152.625 207.995 159.716C208.045 165.539 206.778 171.31 204.272 176.672C201.767 182.035 198.076 186.876 193.427 190.897L193.278 191.054C180.89 204.321 181.485 217.027 193.278 229.217H193.13Z" fill="#174A73"/>
<path d="M160.012 102.925C186.504 102.925 207.979 83.4669 207.979 59.4642C207.979 35.4614 186.504 16.0034 160.012 16.0034C133.521 16.0034 112.045 35.4614 112.045 59.4642C112.045 83.4669 133.521 102.925 160.012 102.925Z" fill="#1769AA"/>
<path d="M207.998 159.718C208.047 165.541 206.78 171.312 204.275 176.674C201.769 182.037 198.078 186.878 193.429 190.899L193.281 191.056C182.305 202.797 181.512 214.111 189.638 224.999L127.698 192.134C126.905 191.326 126.087 190.54 125.22 189.754C119.849 184.607 115.948 178.347 113.858 171.521C111.768 164.695 111.553 157.509 113.23 150.59C114.908 143.672 118.427 137.229 123.482 131.825C128.537 126.421 134.974 122.219 142.232 119.586C149.49 116.952 157.349 115.967 165.124 116.716C172.898 117.464 180.353 119.925 186.837 123.882C193.322 127.839 198.64 133.173 202.328 139.419C206.017 145.665 207.963 152.634 207.998 159.718Z" fill="#1769AA"/>
</svg>
